<svg width="190" height="60" viewBox="0 0 190 60" fill="none" xmlns="http://www.w3.org/2000/svg">
<path fill-rule="evenodd" clip-rule="evenodd" d="M15.3765 7.36035C7.30298 12.0844 1.87866 20.8564 1.87866 30.8861C1.87866 45.9307 14.0794 58.1298 29.126 58.1298C44.1725 58.1298 56.3733 45.9307 56.3733 30.8861C56.3733 20.8564 50.9568 12.1001 42.8833 7.36822C43.2449 7.83198 43.4729 8.2014 43.5043 8.4372C43.6616 9.60052 44.1411 11.5263 44.1332 14.7412C44.1254 17.4765 43.638 24.7944 43.4886 26.8931C43.4571 30.0372 43.5829 32.1202 42.6081 34.6433C41.5704 37.3237 39.6523 39.5874 38.1193 41.9848C37.7891 42.4957 37.4668 42.9752 37.1367 43.4154C37.2074 43.8556 37.2781 44.2879 37.341 44.7202H14.8341C15.2036 44.1385 15.2507 44.1778 16.0212 42.5115C16.7916 40.8451 15.8954 35.28 15.8875 33.3778C15.8639 33.1342 15.8403 32.8748 15.8246 32.6075C15.8482 33.2206 14.5354 32.0652 13.9458 31.4521C13.3483 30.8311 12.8688 30.1158 12.7666 29.5735C12.7194 29.3141 12.6565 28.8582 12.5701 28.5752C12.2399 27.4669 11.5324 26.4529 11.3909 25.0302C11.2729 23.8512 11.4066 22.004 12.1377 21.5324C11.6345 17.3743 12.8295 10.9918 15.3765 7.36035Z" fill="#5F9012"/>
<path fill-rule="evenodd" clip-rule="evenodd" d="M29.1262 2.70588C21.3435 2.70588 14.2997 5.85786 9.19775 10.9592C4.09575 16.0605 0.943367 23.1033 0.943367 30.8849C0.943367 38.6666 4.09575 45.7094 9.19775 50.8107C14.2997 55.912 21.3435 59.064 29.1262 59.064C36.9089 59.064 43.9526 55.912 49.0546 50.8107C54.1566 45.7094 57.309 38.6666 57.309 30.8849C57.309 23.1033 54.1566 16.0605 49.0546 10.9592C43.9526 5.86572 36.901 2.70588 29.1262 2.70588ZM8.52953 10.2989C13.7966 5.03251 21.0762 1.77051 29.1183 1.77051C37.1604 1.77051 44.44 5.03251 49.7071 10.2989C54.9742 15.5653 58.2366 22.8439 58.2366 30.8849C58.2366 38.926 54.9742 46.2046 49.7071 51.471C44.44 56.7374 37.1604 59.9994 29.1183 59.9994C21.0762 59.9994 13.7966 56.7374 8.52953 51.471C3.26245 46.2046 0 38.926 0 30.8849C0 22.8439 3.26245 15.5653 8.52953 10.2989Z" fill="#5F9012"/>
<path fill-rule="evenodd" clip-rule="evenodd" d="M6.4856 46.0561L10.4084 44.9713C9.68517 46.6534 10.9902 49.5774 15.9664 54.7574C12.1615 52.643 8.90688 49.6561 6.4856 46.0561ZM17.2556 44.5154L39.1494 44.2482C40.3679 48.1547 36.0363 54.5766 35.1401 55.7478C34.6999 56.3294 34.3697 56.974 34.1417 57.6657C32.876 57.9015 31.5711 58.0508 30.2504 58.1058C29.6922 57.5085 29.0948 56.9504 28.4423 56.4316C27.0036 55.2526 20.0228 49.1216 17.2556 44.5154ZM44.0155 44.2246L52.1756 45.4115C50.2417 48.4692 47.7261 51.1102 44.7702 53.1853C46.7513 48.3041 45.8629 45.4115 44.0155 44.2246Z" fill="white"/>
<path fill-rule="evenodd" clip-rule="evenodd" d="M18.0179 30.7529C18.0179 30.7529 17.2632 31.9477 17.334 31.7512C17.4047 31.5547 17.5934 38.4796 16.1862 41.5608C14.7791 44.642 13.4426 45.7425 13.4426 45.7425C13.4426 45.7425 18.3245 54.7818 26.0915 57.9652C27.0899 58.0752 28.0961 58.1302 29.1181 58.1302C32.239 58.1302 35.2342 57.6036 38.025 56.6368C40.5563 53.477 39.6758 47.6289 38.591 41.5844C36.948 32.4114 18.0179 30.7529 18.0179 30.7529Z" fill="#EBCDAE"/>
<path fill-rule="evenodd" clip-rule="evenodd" d="M16.855 21.3528C16.855 21.3528 16.9808 31.0288 17.6097 34.1729C18.2386 37.317 19.5593 41.1056 23.0812 43.4165C30.3607 48.1956 35.1719 48.2192 39.7236 41.0428C41.2251 38.6768 43.1118 36.4445 44.118 33.7956C45.2029 30.9423 44.8413 28.6471 44.912 24.7013C44.9199 24.2925 44.9277 23.8681 44.9356 23.42C45.0456 17.1554 44.7469 10.6943 43.835 9.23225C40.5726 3.98159 36.3511 3.57286 30.7538 3.66718C19.575 3.85583 16.855 8.56412 16.855 21.3528Z" fill="#EBCDAE"/>
<path fill-rule="evenodd" clip-rule="evenodd" d="M22.0271 20.8472C22.0271 20.8472 23.2692 19.1494 23.7723 18.6935C24.2754 18.2376 24.6999 17.9861 25.9735 17.9232C26.9483 17.876 29.1337 17.7503 30.1557 17.8131C31.5157 17.8917 31.1305 19.228 30.3051 19.228C29.3617 19.228 25.7848 18.9136 24.9358 19.118C24.0867 19.3223 22.0271 21.4132 22.0271 20.8472Z" fill="black"/>
<path fill-rule="evenodd" clip-rule="evenodd" d="M22.3259 22.5227C22.3259 22.5227 23.2771 21.0056 25.5805 20.6598C27.8839 20.3139 30.2737 20.5419 31.6337 20.9427C30.6746 23.403 28.332 23.7646 25.439 23.2929C26.0758 23.3165 29.9435 23.3323 29.2203 21.8152C29.0866 21.5323 28.6464 21.4222 28.0411 21.4065C27.9782 21.941 27.5301 22.3497 26.9798 22.3497C26.5081 22.3497 26.0994 22.0432 25.9657 21.6109C24.4249 21.886 22.8212 22.3419 22.3259 22.5227Z" fill="black"/>
<path fill-rule="evenodd" clip-rule="evenodd" d="M43.2451 23.0412C42.3174 21.815 41.4684 20.966 39.9355 20.7381C38.3003 20.5023 36.7988 20.4787 35.3209 20.5416C35.3052 23.0097 37.4827 23.9136 41.0282 23.78C38.8899 23.5914 37.2233 22.6324 36.6494 21.6656C39.4088 21.4927 41.665 22.2394 43.2451 23.0412Z" fill="black"/>
<path fill-rule="evenodd" clip-rule="evenodd" d="M24.9989 31.7585C25.1562 29.2354 27.5617 27.3175 30.4783 26.1777C29.8965 26.783 28.9296 27.3646 29.2048 28.3236C29.3384 28.7952 29.6922 29.1882 29.6922 29.1882C29.0554 28.9681 28.6545 28.5908 28.4579 28.1349C27.5381 29.0231 26.6813 29.9349 26.1703 30.9725C25.2505 32.8432 26.1467 36.0974 26.5398 38.2197C25.6907 36.4197 24.8732 33.7865 24.9989 31.7585Z" fill="black"/>
<path fill-rule="evenodd" clip-rule="evenodd" d="M39.9748 32.9059C40.2028 31.161 39.5818 29.6832 38.6384 28.347C38.6227 28.685 38.434 28.9758 37.9859 29.133L37.6086 29.2745L37.8287 28.8815C38.1825 28.2527 37.4042 27.3802 36.6338 26.5155C34.9672 24.6369 34.9672 23.7959 35.1166 21.2256C35.431 23.5129 35.3917 24.5112 37.1448 25.9339C39.1494 27.5688 42.0031 29.581 39.9748 32.9059Z" fill="black"/>
<path fill-rule="evenodd" clip-rule="evenodd" d="M31.8617 29.1575C32.8287 30.0536 33.8821 31.0676 35.3286 29.6213C35.8474 29.1025 36.4449 28.6859 36.9008 29.0789C37.4826 29.582 36.7672 30.1479 36.3505 30.313C35.8553 30.5095 35.4937 30.5959 35.0613 30.8396C34.0236 31.4291 33.3711 31.3427 32.302 30.5802C31.8539 30.258 31.3743 30.0929 31.0206 30.0457C30.4546 29.975 30.2659 29.3776 30.5253 29.0475C30.7611 28.7645 31.2957 28.6309 31.8617 29.1575Z" fill="black"/>
<path fill-rule="evenodd" clip-rule="evenodd" d="M27.444 32.4571C28.6546 32.4571 32.7897 32.4571 34.4248 32.4571C35.5254 32.4571 37.2156 32.3628 38.2926 32.4335C40.8554 32.6065 37.6637 35.0667 36.8147 35.7427C35.8241 36.5288 32.0114 36.3244 30.9108 36.2615C30.0461 36.2143 28.1122 34.8152 26.9644 33.9113C26.0447 33.196 25.8717 32.4571 27.444 32.4571Z" fill="black"/>
<path fill-rule="evenodd" clip-rule="evenodd" d="M29.9125 38.0322C29.9125 38.0322 31.4298 38.8182 33.2064 38.8418C34.9831 38.8575 36.1859 38.1973 36.516 37.9065C36.8462 37.6156 37.1842 37.7021 36.9248 38.2759C36.3824 39.4706 34.9359 40.3353 33.6309 40.3746C31.1782 40.4374 29.5824 38.1894 29.9125 38.0322Z" fill="black"/>
<path fill-rule="evenodd" clip-rule="evenodd" d="M13.2856 19.0564C13.2856 19.0564 13.1912 20.7778 13.7887 21.4774C14.3861 22.1691 16.1314 24.2521 16.9096 23.8669C17.6879 23.4818 17.7822 22.57 17.7508 20.5499C17.7194 18.5219 18.0338 16.8634 18.6627 15.7315C19.2916 14.5997 18.6627 13.4678 18.6627 12.4617C18.6627 11.4555 19.7161 8.78307 23.1279 8.97171C26.5397 9.16036 26.6655 9.60054 28.7881 9.60054C30.9028 9.60054 31.6653 9.4119 32.7187 9.63199C33.7722 9.85207 35.2894 8.1228 36.5944 7.4311C37.9072 6.73939 39.8254 6.3621 41.7985 9.06603C43.7796 11.77 44.3456 14.9534 44.44 20.0861C44.5343 25.211 44.8645 26.7202 44.8645 26.7202C44.8645 26.7202 45.4148 17.3193 45.3833 14.1438C45.3519 10.9682 44.8487 9.06604 44.6758 7.91844C44.5028 6.77084 39.5345 2.08612 35.4152 0.891362C31.2958 -0.303398 25.5885 -0.429164 22.161 1.33154C18.7334 3.09224 19.1265 3.39093 17.4599 4.05119C15.7933 4.71146 14.9129 8.35861 14.3783 10.4337C13.8516 12.501 12.8139 17.0599 13.2856 19.0564Z" fill="#1B1C1C"/>
<path fill-rule="evenodd" clip-rule="evenodd" d="M28.7879 9.59262C30.9026 9.59262 31.6651 9.40398 32.7185 9.62406C33.7719 9.84415 35.2892 8.11489 36.5942 7.42319C37.907 6.73148 39.8252 6.35419 41.7983 9.05813C43.7794 11.7621 44.3454 14.9455 44.4398 20.0782C44.5341 25.2031 44.8642 26.7123 44.8642 26.7123C44.8642 26.7123 45.4145 17.3114 45.3831 14.1359C45.3517 10.9603 44.8485 9.05812 44.6756 7.91052C44.6441 7.69829 44.4476 7.3603 44.1174 6.95157C44.3061 7.87122 44.4791 8.94023 44.4083 9.30966C44.2668 10.0171 44.3611 9.96991 43.6064 8.60223C42.8517 7.23454 41.2638 5.88257 40.6506 5.4424C40.0374 5.00222 38.3865 5.17515 37.4589 5.68606C36.5313 6.19698 33.827 7.45463 33.6383 6.90441C33.4575 6.37777 35.6193 5.04938 35.8945 4.90004C35.5643 5.04152 32.294 6.44851 31.0519 7.40746C29.7155 8.4293 28.8979 7.83192 27.8602 7.54895C26.8225 7.26599 24.3226 7.50179 24.2126 7.06161C24.1025 6.62144 25.5018 5.68607 26.5395 5.33235C27.5772 4.97864 27.6558 4.2948 27.2628 4.10615C26.8697 3.91751 25.0773 4.95507 23.5522 6.36991C22.0271 7.78476 20.5964 7.97341 18.9927 9.01097C17.389 10.0485 16.1626 11.935 16.2569 12.2179C16.3513 12.5009 16.8308 11.8564 17.4361 11.2904C18.0415 10.7245 18.238 11.369 17.9078 12.1236C17.5776 12.8782 16.3041 14.5446 16.5399 14.969C16.7758 15.3935 17.1846 14.9612 17.4361 15.3306C17.6877 15.7001 16.9566 17.5236 16.878 19.3865C16.7994 21.2415 15.9425 21.5874 15.4629 20.9507C14.9834 20.314 15.4629 19.3787 14.3859 19.3787C14.0322 19.3787 13.647 19.5044 13.2932 19.6695C13.3168 20.2354 13.4269 21.0529 13.7963 21.4773C14.3938 22.169 16.139 24.252 16.9173 23.8669C17.6956 23.4817 17.7899 22.5699 17.7585 20.5498C17.727 18.5219 18.0414 16.8634 18.6703 15.7315C19.2993 14.5996 18.6703 13.4677 18.6703 12.4616C18.6703 11.4555 19.7238 8.78302 23.1356 8.97166C26.5474 9.16031 26.6653 9.59262 28.7879 9.59262Z" fill="black"/>
<path fill-rule="evenodd" clip-rule="evenodd" d="M14.2052 28.7791C14.1502 28.5198 14.0873 28.0717 14.0008 27.7966C13.6549 26.704 12.9317 25.6979 12.7744 24.2909C12.6172 22.8839 12.8059 20.5337 14.0008 20.7381C15.1957 20.9424 14.3939 21.4377 15.4709 22.035C16.5479 22.6324 16.1784 23.0804 16.5479 23.4656C16.9174 23.8507 16.9174 23.8508 16.9174 23.8508L17.3104 31.766C17.3419 32.3713 16.0133 31.2316 15.4159 30.6263C14.8027 30.0289 14.3153 29.3215 14.2052 28.7791Z" fill="#EBCDAE"/>
<path fill-rule="evenodd" clip-rule="evenodd" d="M15.5028 27.798C13.4353 26.6897 14.7245 24.3081 15.5028 24.2923C16.1632 24.2766 16.7213 24.8033 16.4855 25.4242C16.2496 26.0452 15.7229 26.4146 15.5185 26.9648C15.3142 27.515 15.5028 27.798 15.5028 27.798Z" fill="black"/>
<path fill-rule="evenodd" clip-rule="evenodd" d="M13.9929 26.2092C13.9929 26.2092 13.2932 24.6371 13.2932 23.3166C13.2932 21.9961 13.6784 21.438 13.9929 21.7839C14.3073 22.1218 13.8121 22.6878 13.7334 23.6624C13.6548 24.6371 13.9929 26.2092 13.9929 26.2092Z" fill="black"/>
<path fill-rule="evenodd" clip-rule="evenodd" d="M43.245 21.3673C43.245 21.3673 43.245 19.1507 41.6727 18.2703C40.1004 17.39 37.7892 17.7987 37.2703 18.0345C36.7515 18.2703 36.4213 19.0328 36.8459 19.3786C37.2704 19.7166 39.0077 19.3786 39.9511 19.3786C40.8866 19.3708 42.223 19.3708 43.245 21.3673Z" fill="black"/>
<path fill-rule="evenodd" clip-rule="evenodd" d="M38.1589 21.6584C38.2218 22.1929 38.6699 22.6017 39.2202 22.6017C39.6919 22.6017 40.1007 22.2951 40.2343 21.8628V21.4619H38.1589V21.6584Z" fill="black"/>
<path fill-rule="evenodd" clip-rule="evenodd" d="M30.7063 33.0558L35.9419 33.04C36.6337 33.04 36.9482 33.0793 37.0032 33.7946C37.1369 35.3824 35.7533 34.6278 35.4939 34.6435C35.1322 34.6671 34.3068 34.785 33.7172 34.6435C33.1983 34.8479 32.7267 34.8164 32.2707 34.6435C31.8619 34.8636 31.406 34.8164 30.9343 34.6435C30.5176 34.4942 29.3306 35.1544 28.8668 34.2505C28.6309 33.7867 28.9926 33.433 29.4013 33.2287C29.9045 32.9771 30.1953 33.0558 30.7063 33.0558Z" fill="white"/>
<path fill-rule="evenodd" clip-rule="evenodd" d="M10.9351 44.5791C9.44936 46.2061 11.3361 49.5782 20.5888 56.7625C23.2695 57.6428 26.1389 58.1223 29.1184 58.1223C30.2818 58.1223 31.4296 58.0437 32.5538 57.9101C26.8936 55.5834 13.553 44.5948 16.3831 41.0498C14.2526 41.6157 12.4838 42.8812 10.9351 44.5791Z" fill="white"/>
<path fill-rule="evenodd" clip-rule="evenodd" d="M43.7638 44.194C45.6505 45.4595 46.0907 48.8315 42.4509 54.656C39.275 56.4403 35.7059 57.6036 31.9089 57.9887C34.8255 54.6481 41.8142 47.5975 38.4024 42.9127L39.5894 42.8105C40.6507 43.1407 41.8692 42.9206 43.7638 44.194Z" fill="white"/>
<path fill-rule="evenodd" clip-rule="evenodd" d="M37.585 45.3014C39.3381 43.4621 41.0754 40.7817 42.2703 38.0542L43.8583 34.4307C43.2687 35.2324 42.6319 36.0499 41.8694 37.0088C40.6981 38.4787 40.2342 40.0743 39.1101 41.5992C36.9561 44.5311 33.1433 46.9835 29.1026 43.9101C27.5933 42.7625 28.0807 44.3739 27.3102 44.3818C25.2742 44.4053 20.3923 40.318 19.4175 38.4709C19.787 40.6403 23.5997 46.5433 29.2127 48.0761C31.8619 48.8071 34.8257 48.194 37.585 45.3014Z" fill="black"/>
<path fill-rule="evenodd" clip-rule="evenodd" d="M71.6319 19.1187H72.2372V25.1633H71.6476V20.5336L70.209 24.3222H69.7452L68.3145 20.6279V25.1633H67.7249V19.1187H68.3302L69.981 23.5048L71.6319 19.1187ZM76.105 19.1187H76.5138H76.7025H79.3439V19.6768H76.7025V21.8855H79.0058V22.4436H76.7025V24.6052H79.3439V25.1633H76.7025H76.5138H76.105V19.1187ZM82.7006 24.6052H82.8421C83.023 24.6052 83.1566 24.4794 83.2431 24.2122C83.3296 23.9528 83.3767 23.5755 83.3767 23.0882V19.1109H83.9034H83.9742H85.9002H86.2304H86.4977V24.5973H86.5055H86.7492H87.103V26.3187H86.5055V25.1476H86.4977H85.9002H83.1802V26.3187H82.5827V25.1476V24.5895H82.7006V24.6052ZM83.982 19.6768V23.151C83.982 23.5676 83.9506 23.9056 83.8798 24.1886C83.8405 24.3537 83.7855 24.4952 83.7148 24.6131H85.9081V19.6847H83.982V19.6768ZM93.8323 25.1554V20.3685L91.1909 25.1554H90.6877V19.1187H91.2616V23.9606L93.9109 19.1187H94.3983V25.1554H93.8323ZM101.206 19.1187H101.804V24.6052H101.819H102.157H102.417V26.413H101.819V25.1633H101.804H101.206H98.8714H98.5491H98.2739V19.1187H98.8714V24.6052H101.206V19.1187ZM109.146 25.1554V20.3685L106.505 25.1554H106.002V19.1187H106.575V23.9606L109.225 19.1187H109.712V25.1554H109.146ZM116.52 19.1187H117.117V25.1633H116.52V22.4672H114.185V25.1633H113.588V19.1187H114.185V21.8934H116.52V19.1187ZM122.683 25.2262C122.322 25.2262 122.007 25.1476 121.748 24.9982C121.488 24.841 121.284 24.6288 121.142 24.3379C121.001 24.055 120.93 23.717 120.93 23.324V20.958C120.93 20.565 121.001 20.227 121.142 19.9441C121.284 19.6611 121.488 19.441 121.748 19.2838C122.015 19.1266 122.322 19.0558 122.683 19.0558C123.013 19.0558 123.304 19.1266 123.564 19.2681C123.815 19.4096 124.02 19.6061 124.169 19.8655C124.318 20.1248 124.405 20.4392 124.429 20.793H123.831C123.807 20.5493 123.745 20.3449 123.642 20.172C123.54 19.9991 123.407 19.8655 123.241 19.7711C123.076 19.6768 122.896 19.6297 122.691 19.6297C122.455 19.6297 122.251 19.6847 122.078 19.7868C121.905 19.8969 121.771 20.0462 121.677 20.2506C121.583 20.4471 121.536 20.6908 121.536 20.9659V23.3318C121.536 23.6069 121.583 23.8427 121.677 24.0393C121.771 24.2358 121.905 24.393 122.078 24.4951C122.251 24.6052 122.455 24.6524 122.691 24.6524C122.896 24.6524 123.076 24.6052 123.241 24.5109C123.407 24.4166 123.54 24.2829 123.642 24.11C123.745 23.9371 123.807 23.7249 123.831 23.4812H124.429C124.405 23.8349 124.318 24.1493 124.169 24.4087C124.02 24.6681 123.815 24.8725 123.564 25.0061C123.304 25.1554 123.013 25.2262 122.683 25.2262ZM129.483 21.8855L131.142 19.1187H131.834L130.041 22.1449L132.085 25.1633H131.331L129.499 22.4436H128.705V25.1633H128.108V19.1187H128.705V21.8855H129.483ZM138.532 25.1554V20.3685L135.89 25.1554H135.387V19.1187H135.961V23.9606L138.61 19.1187H139.098V25.1554H138.532ZM146.11 25.1554V20.3685L143.469 25.1554H142.965V19.1187H143.539V23.9606L146.189 19.1187H146.676V25.1554H146.11ZM146.079 17.4209C146.079 17.8218 145.968 18.1362 145.756 18.3563C145.544 18.5764 145.237 18.6864 144.844 18.6864H144.813C144.42 18.6864 144.113 18.5764 143.901 18.3563C143.681 18.1362 143.579 17.8218 143.579 17.4209L144.121 17.4288C144.121 17.6724 144.184 17.8689 144.302 18.0026C144.428 18.1362 144.601 18.2069 144.813 18.2069H144.844C145.064 18.2069 145.237 18.1362 145.363 18.0026C145.489 17.8611 145.544 17.6724 145.544 17.4288L146.079 17.4209ZM157.54 19.1187H158.138V24.6052H158.154H158.492H158.751V26.413H158.154V25.1633H158.138H157.54H155.206H154.883H154.608V19.1187H155.206V24.6052H157.54V19.1187ZM162.344 19.1187H162.752H162.941H165.582V19.6768H162.941V21.8855H165.244V22.4436H162.941V24.6052H165.582V25.1633H162.941H162.752H162.344V19.1187ZM172.131 19.1187H172.728V25.1633H172.131V22.4672H169.796V25.1633H169.199V19.1187H169.796V21.8934H172.131V19.1187ZM178.074 19.6768V25.1633H177.477V19.6768H175.975V19.1187H179.576V19.6768H178.074ZM183.412 22.2628H184.858C185.039 22.2628 185.189 22.2235 185.33 22.1371C185.464 22.0585 185.566 21.9406 185.637 21.7912C185.707 21.6419 185.747 21.4689 185.747 21.2646V20.6751C185.747 20.4707 185.707 20.2899 185.637 20.1406C185.566 19.9912 185.464 19.8733 185.33 19.7947C185.196 19.7161 185.039 19.6689 184.858 19.6689H183.412V22.2628ZM183.255 19.1187H183.42H184.843C185.149 19.1187 185.417 19.1816 185.645 19.3074C185.873 19.4331 186.045 19.6139 186.171 19.8497C186.297 20.0856 186.352 20.3607 186.352 20.6829V21.2724C186.352 21.5869 186.289 21.862 186.171 22.0899C186.045 22.3178 185.873 22.4987 185.645 22.6244C185.417 22.7502 185.149 22.8131 184.843 22.8131H183.42V25.1554H182.822V19.1109H183.255V19.1187Z" fill="black"/>
<path fill-rule="evenodd" clip-rule="evenodd" d="M71.2627 42.2827C70.5159 42.2827 69.887 42.1412 69.3524 41.8504C68.8257 41.5674 68.4248 41.143 68.1418 40.6006C67.8588 40.0504 67.7173 39.3823 67.7173 38.6041V33.998C67.7173 33.2198 67.8588 32.5517 68.1418 32.0015C68.4169 31.4513 68.8257 31.0268 69.3524 30.7438C69.8791 30.4609 70.5159 30.3115 71.2627 30.3115C71.9938 30.3115 72.607 30.4609 73.1101 30.7517C73.6133 31.0425 73.9985 31.4827 74.2815 32.0722C74.5566 32.6617 74.7217 33.4085 74.7768 34.3124H72.6149C72.5834 33.8879 72.5127 33.5421 72.4026 33.267C72.2926 32.9919 72.1432 32.7875 71.9545 32.646C71.7659 32.5124 71.5379 32.4416 71.2706 32.4416C70.9876 32.4416 70.736 32.5045 70.5316 32.6224C70.3272 32.7403 70.17 32.9211 70.06 33.1569C69.9499 33.3927 69.8949 33.6757 69.8949 34.0058V38.612C69.8949 38.9421 69.9499 39.2251 70.06 39.4609C70.17 39.6888 70.3272 39.8696 70.5316 39.9875C70.736 40.1054 70.9797 40.1683 71.2706 40.1683C71.5379 40.1683 71.7659 40.1054 71.9624 39.9639C72.1511 39.8303 72.3004 39.6259 72.4105 39.3508C72.5205 39.0757 72.5913 38.722 72.6149 38.2976H74.7768C74.7217 39.2015 74.5488 39.9482 74.2736 40.5377C73.9985 41.1272 73.6133 41.5674 73.1101 41.8583C72.607 42.1334 71.9938 42.2827 71.2627 42.2827ZM79.8866 32.4495V42.1569H77.7798V32.4495H75.217V30.4216H82.4572V32.4495H79.8866ZM83.2512 30.4216H84.0924H85.3581H89.7918V32.4652H85.3581V35.3106H89.1472V37.3543H85.3581V40.1211H89.7918V42.1648H85.3581H84.0924H83.2512V30.4216ZM96.3246 30.4216H97.6453H98.4314V42.1569H96.3246V32.4416H93.4238V42.1569H91.3169V30.4216H92.3468H93.4238H96.3246ZM103.235 30.4216H104.642L108.29 42.1569H106.104L105.593 40.3019H102.291L101.78 42.1569H99.6028L103.235 30.4216ZM105.035 38.3054L103.934 34.3045L102.834 38.3054H105.035ZM114.453 30.4216H116.56V42.1569H114.453V37.3543H111.552V42.1569H109.445V30.4216H111.552V35.35H114.453V30.4216ZM121.363 30.4216H122.77L126.418 42.1569H124.232L123.721 40.3019H120.42L119.909 42.1569H117.731L121.363 30.4216ZM123.171 38.3054L122.07 34.3045L120.97 38.3054H123.171ZM134.468 30.4216H136.622V42.1569H134.468V37.8495C134.326 38.0539 134.145 38.2189 133.941 38.3526C133.603 38.5726 133.194 38.6827 132.715 38.6827C132.125 38.6827 131.63 38.5569 131.205 38.3054C130.781 38.0539 130.466 37.6844 130.246 37.205C130.026 36.7255 129.924 36.136 129.924 35.4521V30.4137H132.07V35.4836C132.07 35.9159 132.164 36.2539 132.353 36.4897C132.542 36.7255 132.809 36.8434 133.147 36.8434C133.564 36.8434 133.894 36.7176 134.122 36.4661C134.35 36.2146 134.46 35.8609 134.46 35.3971V34.2338V30.4216H134.468ZM138.634 30.4216H139.475H140.741H145.175V32.4652H140.741V35.3106H144.53V37.3543H140.741V40.1211H145.175V42.1648H140.741H139.475H138.634V30.4216ZM148.807 35.5779H150.583C150.804 35.5779 150.984 35.5307 151.149 35.4285C151.307 35.3264 151.432 35.1928 151.519 35.0041C151.605 34.8233 151.653 34.6111 151.653 34.3674V33.6836C151.653 33.432 151.613 33.2119 151.527 33.0233C151.44 32.8425 151.322 32.6932 151.157 32.5989C151 32.4967 150.811 32.4495 150.583 32.4495H148.807V35.5779ZM147.667 30.4216H148.807H150.583C151.244 30.4216 151.81 30.5473 152.297 30.7989C152.785 31.0504 153.154 31.412 153.421 31.8836C153.681 32.3552 153.814 32.9054 153.814 33.5421V34.5246C153.814 35.1534 153.681 35.7037 153.421 36.1674C153.154 36.6312 152.785 36.9849 152.297 37.2364C151.818 37.4879 151.244 37.6137 150.583 37.6137H148.807V42.1648H146.7V30.4294H147.667V30.4216ZM160.465 30.4216H162.572V42.1569H160.465V37.3543H157.564V42.1569H155.457V30.4216H157.564V35.35H160.465V30.4216ZM166.33 37.5115C166.094 37.4486 165.881 37.3622 165.677 37.2521C165.198 36.9927 164.828 36.6155 164.569 36.1281C164.309 35.6408 164.176 35.067 164.176 34.4146V33.5657C164.176 32.9211 164.301 32.3709 164.561 31.8914C164.82 31.4119 165.19 31.0504 165.669 30.7989C166.149 30.5473 166.723 30.4216 167.367 30.4216H169.128H170.142H171.235V42.1648H169.12V37.6451H168.484L166.487 42.1648H164.121L166.33 37.5115ZM169.136 32.4416H167.65C167.383 32.4416 167.147 32.4967 166.951 32.6067C166.754 32.7168 166.605 32.8818 166.503 33.1019C166.4 33.3141 166.345 33.5735 166.345 33.8565V34.1866C166.345 34.4775 166.4 34.729 166.51 34.9491C166.62 35.1613 166.77 35.3264 166.958 35.4364C167.155 35.5465 167.383 35.6093 167.65 35.6093H169.136V32.4416ZM176.541 35.3185L178.428 30.4294H180.732L178.334 36.2381L181.219 42.1648H178.782L176.526 37.3464H175.362V42.1648H173.255V30.4294H175.362V35.3185H176.541ZM184.945 30.4216H186.352L190 42.1569H187.815L187.304 40.3019H184.002L183.491 42.1569H181.313L184.945 30.4216ZM186.745 38.3054L185.645 34.3045L184.544 38.3054H186.745Z" fill="black"/>
</svg>
