<svg width="38" height="22" viewBox="0 0 38 22" fill="none" xmlns="http://www.w3.org/2000/svg">
<path fill-rule="evenodd" clip-rule="evenodd" d="M1.19598 16.6945C0.102171 17.7287 0.101 19.4069 1.19336 20.4427C2.28572 21.4785 4.05796 21.4798 5.15177 20.4455L19.0206 7.33146L32.8685 20.4629C33.9616 21.4994 35.7351 21.5007 36.8296 20.4657C37.9242 19.4306 37.9254 17.7513 36.8323 16.7147L21.0691 1.76708C21.049 1.74679 21.0285 1.72672 21.0076 1.70689C20.1826 0.924647 18.9699 0.732441 17.9545 1.13069C17.6242 1.25989 17.3146 1.45149 17.046 1.70553C17.0265 1.72398 17.0073 1.74263 16.9885 1.76149L1.19598 16.6945Z" fill="white"/>
</svg>
