<?xml version="1.0" encoding="UTF-8" standalone="no"?>
<svg
   xmlns:dc="http://purl.org/dc/elements/1.1/"
   xmlns:cc="http://creativecommons.org/ns#"
   xmlns:rdf="http://www.w3.org/1999/02/22-rdf-syntax-ns#"
   xmlns:svg="http://www.w3.org/2000/svg"
   xmlns="http://www.w3.org/2000/svg"
   viewBox="0 0 234.29868 120.38187"
   height="120.38187"
   width="234.29868"
   xml:space="preserve"
   id="svg2"
   version="1.1"><metadata
     id="metadata8"><rdf:RDF><cc:Work
         rdf:about=""><dc:format>image/svg+xml</dc:format><dc:type
           rdf:resource="http://purl.org/dc/dcmitype/StillImage" /></cc:Work></rdf:RDF></metadata><defs
     id="defs6"><clipPath
       id="clipPath18"
       clipPathUnits="userSpaceOnUse"><path
         id="path16"
         d="M 0,90.286 H 175.724 V 0 H 0 Z" /></clipPath></defs><g
     transform="matrix(1.3333333,0,0,-1.3333333,0,120.38187)"
     id="g10"><g
       id="g12"><g
         clip-path="url(#clipPath18)"
         id="g14"><g
           transform="translate(110.4515,30.4398)"
           id="g20"><path
             id="path22"
             style="fill:#231f20;fill-opacity:1;fill-rule:nonzero;stroke:none"
             d="m 0,0 c 0.208,-0.439 0.009,-0.36 -0.301,-0.355 -3.397,0.094 -6.742,-0.131 -10.089,-0.486 -3.352,-0.347 -6.676,-0.926 -9.976,-1.626 -3.301,-0.707 -6.571,-1.561 -9.78,-2.564 -1.601,-0.514 -3.19,-1.06 -4.748,-1.658 -0.708,-0.265 -1.391,-0.562 -2.086,-0.846 -0.277,-0.106 -0.541,-0.21 -0.786,-0.321 -0.032,-0.006 -0.058,-0.019 -0.084,-0.032 -0.025,-0.012 -0.051,-0.024 -0.077,-0.037 -0.116,-0.055 -0.225,-0.105 -0.329,-0.161 -0.038,-0.019 -0.083,-0.044 -0.122,-0.062 -0.033,-0.019 -0.059,-0.039 -0.091,-0.057 -0.012,-0.006 -0.032,-0.012 -0.045,-0.024 -0.032,-0.02 -0.071,-0.039 -0.103,-0.057 -0.032,-0.019 -0.077,-0.037 -0.11,-0.063 -0.316,-0.187 -0.646,-0.413 -0.855,-0.704 -0.17,-0.227 -0.471,-0.223 -0.699,-0.111 -0.305,0.139 -0.512,0.442 -0.591,0.77 l 10e-4,0.026 c -0.042,0.206 -0.065,0.417 -0.081,0.641 -0.037,0.513 -0.003,1.05 0.145,1.54 0.054,0.166 0.113,0.319 0.186,0.471 0.099,0.178 0.216,0.343 0.366,0.507 0.052,0.057 0.104,0.107 0.162,0.158 0.091,0.075 0.195,0.151 0.304,0.22 0.393,0.167 0.793,0.359 1.192,0.507 0.817,0.314 1.635,0.654 2.465,0.943 1.654,0.597 3.319,1.129 4.991,1.623 l 2.526,0.705 2.531,0.628 2.555,0.545 2.574,0.475 c 3.433,0.583 6.901,0.961 10.392,1.095 1.926,0.075 3.874,0.031 5.787,-0.223 C -4.086,1.376 -3.4,1.25 -2.72,1.106 -2.085,0.973 -1.412,0.88 -0.806,0.643 -0.573,0.551 -0.339,0.396 -0.155,0.226 -0.086,0.161 -0.037,0.078 0,0 m -58.983,9.956 c 0.167,0.468 0.352,0.928 0.55,1.383 -0.204,-0.468 -0.383,-0.935 -0.55,-1.383 m 24.109,20.525 c 0,-0.269 -0.019,-0.531 -0.051,-0.794 -0.007,-0.051 -0.007,-0.096 -0.013,-0.141 -0.032,-0.249 -0.077,-0.499 -0.134,-0.742 -0.007,-0.045 -0.02,-0.096 -0.032,-0.14 -0.064,-0.25 -0.135,-0.494 -0.218,-0.737 -0.007,-0.012 -0.013,-0.025 -0.013,-0.038 -0.089,-0.237 -0.186,-0.473 -0.288,-0.704 -0.019,-0.039 -0.038,-0.077 -0.057,-0.115 -0.109,-0.231 -0.231,-0.455 -0.359,-0.678 -0.025,-0.045 -0.051,-0.09 -0.077,-0.135 -0.134,-0.224 -0.275,-0.448 -0.428,-0.666 -0.019,-0.019 -0.033,-0.038 -0.045,-0.057 -0.147,-0.211 -0.307,-0.423 -0.474,-0.627 -0.025,-0.032 -0.051,-0.064 -0.077,-0.096 -0.173,-0.211 -0.352,-0.416 -0.537,-0.621 -0.039,-0.039 -0.077,-0.084 -0.115,-0.122 -0.192,-0.205 -0.384,-0.403 -0.589,-0.601 -0.026,-0.026 -0.052,-0.051 -0.077,-0.071 -0.198,-0.192 -0.397,-0.377 -0.602,-0.563 -0.032,-0.025 -0.064,-0.051 -0.089,-0.077 -0.218,-0.192 -0.442,-0.378 -0.672,-0.563 -0.045,-0.038 -0.09,-0.077 -0.141,-0.115 -0.224,-0.18 -0.455,-0.359 -0.691,-0.538 -0.038,-0.025 -0.077,-0.051 -0.109,-0.083 -0.231,-0.166 -0.461,-0.333 -0.697,-0.499 -0.026,-0.02 -0.058,-0.045 -0.084,-0.064 -0.249,-0.173 -0.499,-0.339 -0.755,-0.512 -0.051,-0.032 -0.096,-0.064 -0.147,-0.096 -0.25,-0.166 -0.506,-0.327 -0.755,-0.487 -0.045,-0.031 -0.09,-0.057 -0.135,-0.083 -0.249,-0.16 -0.499,-0.307 -0.748,-0.461 -0.91,-0.544 -1.825,-1.062 -2.714,-1.548 0.012,-0.013 0.051,-0.02 0.115,-0.032 0.019,-0.007 0.045,-0.013 0.07,-0.02 0.039,-0.006 0.071,-0.012 0.109,-0.025 0.538,-0.115 1.709,-0.422 2.791,-1.427 2.56,-2.388 3.238,-5.031 3.507,-7.558 0.301,-2.874 -0.032,-5.774 -1.178,-8.423 -1.344,-3.104 -3.558,-5.805 -6.182,-7.923 -2.759,-2.228 -5.991,-3.84 -9.395,-4.8 -3.098,-0.871 -6.497,-1.363 -9.703,-0.884 -2.899,0.442 -6.33,2.202 -6.285,5.587 0.039,2.919 2.784,4.814 5.223,6.029 0.301,0.154 0.595,0.294 0.883,0.429 3.149,1.441 6.969,2.662 10.279,3.674 1.657,0.506 5.298,1.702 7.206,2.022 0.192,0.033 0.915,0.109 1.267,0.026 0.173,-0.045 0.262,-0.122 0.153,-0.263 -0.294,-0.153 -0.62,-0.306 -0.953,-0.467 -2.061,-0.979 -4.672,-1.997 -6.573,-2.822 -2.4,-1.044 -4.793,-2.087 -7.11,-3.309 -0.231,-0.122 -0.487,-0.25 -0.749,-0.377 -1.241,-0.622 -2.675,-1.338 -3.443,-2.414 -1.626,-2.258 2.496,-2.937 3.763,-2.86 8.365,0.512 13.543,5.164 15.584,7.584 2.419,2.873 4.762,7.507 3.687,11.744 -0.321,1.254 -0.935,2.47 -1.946,3.596 -0.903,1.018 -2.24,1.185 -3.584,1.204 -0.198,0.013 -0.41,0.025 -0.634,0.025 -0.243,0 -0.505,-0.012 -0.787,-0.032 -0.231,0 -0.512,-0.044 -0.839,-0.115 -0.006,0 -0.019,-0.006 -0.031,-0.006 -0.557,-0.122 -1.242,-0.333 -1.952,-0.538 -0.218,-0.058 -0.435,-0.122 -0.653,-0.179 -0.218,-0.064 -0.442,-0.122 -0.659,-0.173 -0.218,-0.051 -0.435,-0.102 -0.647,-0.141 -0.358,-0.07 -0.704,-0.128 -1.03,-0.147 -0.128,-0.013 -0.256,-0.019 -0.378,-0.019 -0.006,0 -0.032,-0.051 -0.032,-0.051 l -0.019,-0.039 c -0.224,-0.454 -0.448,-0.902 -0.659,-1.344 -0.058,-0.128 -0.122,-0.256 -0.179,-0.384 -0.173,-0.365 -0.333,-0.729 -0.493,-1.087 -0.064,-0.141 -0.122,-0.283 -0.18,-0.429 -0.198,-0.455 -0.383,-0.915 -0.55,-1.383 -0.013,-0.032 -0.019,-0.058 -0.032,-0.083 -0.179,-0.493 -0.339,-0.973 -0.467,-1.434 -0.019,-0.05 -0.039,-0.102 -0.051,-0.147 -0.013,-0.051 -0.026,-0.103 -0.039,-0.153 -0.057,-0.218 -0.108,-0.423 -0.153,-0.627 -0.02,-0.084 -0.039,-0.16 -0.051,-0.243 -0.033,-0.161 -0.064,-0.321 -0.09,-0.481 -0.013,-0.07 -0.032,-0.147 -0.038,-0.218 -0.109,-0.652 -0.186,-1.356 -0.026,-1.977 0.121,-0.487 -0.231,-0.89 -0.647,-1.081 -0.544,-0.25 -1.196,-0.186 -1.721,0.083 -0.013,0.012 -0.026,0.019 -0.038,0.025 -1.069,0.614 -2.189,1.504 -2.906,2.592 -0.16,0.256 -0.301,0.518 -0.416,0.794 -0.134,0.333 -0.23,0.684 -0.275,1.05 0,0.006 -0.006,0.018 -0.006,0.025 -0.014,0.135 -0.026,0.269 -0.026,0.403 0,0.211 0.019,0.435 0.045,0.665 0.006,0.078 0.025,0.161 0.038,0.244 0.019,0.154 0.038,0.307 0.077,0.467 0.019,0.103 0.045,0.205 0.07,0.307 0.039,0.147 0.07,0.295 0.115,0.448 0.033,0.115 0.071,0.231 0.103,0.34 0.044,0.153 0.096,0.301 0.147,0.454 0.045,0.121 0.09,0.243 0.134,0.371 0.058,0.148 0.115,0.301 0.179,0.454 0.052,0.128 0.109,0.263 0.167,0.391 0.064,0.153 0.134,0.308 0.205,0.467 0.058,0.135 0.128,0.269 0.192,0.403 l 0.23,0.481 c 0.071,0.14 0.147,0.281 0.218,0.416 0.083,0.166 0.166,0.326 0.256,0.486 0.077,0.147 0.16,0.288 0.237,0.435 0.095,0.16 0.185,0.327 0.281,0.493 0.083,0.141 0.173,0.288 0.256,0.435 0.102,0.166 0.199,0.333 0.301,0.499 0.089,0.147 0.186,0.295 0.275,0.448 0.109,0.166 0.211,0.333 0.32,0.499 0.096,0.147 0.192,0.301 0.295,0.448 0.108,0.173 0.217,0.34 0.332,0.506 0.096,0.153 0.199,0.301 0.301,0.454 l 0.346,0.5 c 0.109,0.153 0.211,0.307 0.32,0.454 0.115,0.166 0.236,0.333 0.352,0.499 0.115,0.154 0.224,0.307 0.333,0.461 0.121,0.16 0.243,0.326 0.364,0.487 0.109,0.153 0.225,0.307 0.333,0.454 0.122,0.166 0.25,0.326 0.372,0.492 0.115,0.148 0.23,0.295 0.338,0.442 0.129,0.16 0.25,0.32 0.378,0.48 0.116,0.147 0.231,0.295 0.346,0.442 0.122,0.153 0.25,0.314 0.377,0.467 0.116,0.147 0.231,0.288 0.346,0.429 0.122,0.153 0.25,0.307 0.378,0.461 0.115,0.14 0.224,0.281 0.339,0.416 0.128,0.153 0.249,0.3 0.377,0.447 0.116,0.135 0.225,0.269 0.34,0.404 0.128,0.147 0.249,0.294 0.377,0.442 0.109,0.128 0.218,0.249 0.326,0.377 0.129,0.147 0.257,0.288 0.385,0.435 0.102,0.115 0.204,0.231 0.307,0.346 0.128,0.147 0.262,0.294 0.39,0.435 0.09,0.102 0.186,0.211 0.275,0.307 0.141,0.154 0.276,0.301 0.416,0.448 0.077,0.083 0.16,0.179 0.237,0.262 0.212,0.225 0.416,0.442 0.614,0.647 0.071,0.077 0.135,0.141 0.205,0.211 0.128,0.135 0.263,0.269 0.384,0.397 0.084,0.083 0.16,0.154 0.237,0.23 0.109,0.109 0.211,0.218 0.314,0.321 0.083,0.076 0.16,0.147 0.236,0.223 0.097,0.09 0.186,0.179 0.276,0.269 0.076,0.071 0.147,0.135 0.224,0.199 0.083,0.076 0.166,0.16 0.243,0.23 0.07,0.058 0.134,0.115 0.198,0.173 0.077,0.064 0.154,0.128 0.224,0.192 0.058,0.051 0.116,0.096 0.173,0.141 0.058,0.044 0.115,0.089 0.167,0.134 0.217,0.16 0.467,0.262 0.736,0.288 0.045,0 0.096,0.007 0.147,0.007 0.077,0 0.153,-0.007 0.23,-0.007 0.096,-0.006 0.186,-0.006 0.275,-0.019 0.077,-0.007 0.147,-0.019 0.218,-0.026 0.083,-0.012 0.166,-0.026 0.243,-0.045 0.064,-0.012 0.128,-0.031 0.192,-0.051 0.077,-0.019 0.147,-0.038 0.218,-0.064 0.057,-0.019 0.115,-0.045 0.172,-0.064 0.064,-0.032 0.135,-0.057 0.193,-0.089 0.051,-0.026 0.102,-0.051 0.153,-0.077 0.058,-0.032 0.115,-0.064 0.167,-0.102 0.051,-0.026 0.089,-0.058 0.134,-0.09 0.051,-0.032 0.102,-0.071 0.147,-0.109 0.038,-0.032 0.077,-0.064 0.116,-0.096 0.038,-0.045 0.083,-0.083 0.121,-0.121 0.032,-0.033 0.064,-0.064 0.096,-0.103 0.032,-0.039 0.064,-0.083 0.096,-0.122 0.025,-0.032 0.058,-0.07 0.077,-0.102 0.032,-0.039 0.057,-0.083 0.083,-0.122 0.019,-0.031 0.038,-0.064 0.057,-0.102 0.026,-0.038 0.045,-0.077 0.065,-0.115 0.012,-0.032 0.025,-0.064 0.038,-0.096 0.019,-0.039 0.032,-0.077 0.045,-0.109 0.006,-0.032 0.019,-0.058 0.025,-0.083 0.013,-0.039 0.02,-0.071 0.02,-0.103 0.006,-0.025 0.012,-0.051 0.012,-0.07 0.007,-0.038 0.007,-0.064 0.007,-0.09 V 30.91 c -0.007,-0.026 -0.013,-0.052 -0.019,-0.071 -0.007,-0.012 -0.007,-0.025 -0.013,-0.031 -0.013,-0.033 -0.032,-0.052 -0.058,-0.065 -0.141,-0.115 -0.294,-0.243 -0.448,-0.384 -0.045,-0.045 -0.096,-0.089 -0.14,-0.128 -0.116,-0.108 -0.237,-0.224 -0.365,-0.352 -0.051,-0.045 -0.096,-0.096 -0.154,-0.147 -0.16,-0.166 -0.327,-0.339 -0.493,-0.518 l -0.032,-0.032 c -0.185,-0.199 -0.371,-0.41 -0.563,-0.627 -0.058,-0.064 -0.115,-0.135 -0.173,-0.199 -0.141,-0.166 -0.288,-0.333 -0.435,-0.512 -0.057,-0.07 -0.122,-0.147 -0.179,-0.224 -0.179,-0.211 -0.365,-0.435 -0.544,-0.665 -0.026,-0.032 -0.051,-0.058 -0.077,-0.09 -0.205,-0.262 -0.416,-0.537 -0.633,-0.813 -0.058,-0.076 -0.122,-0.16 -0.18,-0.237 -0.16,-0.211 -0.32,-0.428 -0.486,-0.646 -0.039,-0.051 -0.077,-0.096 -0.109,-0.147 -0.007,-0.006 -0.007,-0.013 -0.013,-0.013 -0.985,-1.338 -2.009,-2.81 -3.008,-4.339 1.28,0.301 3.072,1.03 4.966,2.029 0.007,0 0.013,0.006 0.013,0.006 0.045,0.019 0.084,0.045 0.128,0.07 0.205,0.109 0.416,0.218 0.621,0.34 0.064,0.031 0.128,0.07 0.192,0.102 0.263,0.147 0.525,0.301 0.781,0.454 0.051,0.026 0.096,0.058 0.141,0.083 0.217,0.135 0.435,0.269 0.653,0.404 0.076,0.045 0.147,0.09 0.217,0.141 0.25,0.159 0.5,0.32 0.749,0.486 0.006,0.007 0.019,0.013 0.026,0.019 0.255,0.173 0.505,0.352 0.755,0.531 0.07,0.052 0.134,0.097 0.198,0.147 0.205,0.148 0.403,0.295 0.602,0.449 0.051,0.038 0.102,0.076 0.147,0.115 0.237,0.185 0.467,0.371 0.691,0.563 0.058,0.045 0.103,0.083 0.16,0.128 0.179,0.154 0.352,0.314 0.525,0.467 0.058,0.051 0.115,0.103 0.166,0.154 0.212,0.198 0.416,0.39 0.609,0.589 0.025,0.025 0.044,0.044 0.064,0.07 0.172,0.179 0.338,0.352 0.492,0.531 0.051,0.058 0.096,0.109 0.147,0.167 0.148,0.172 0.288,0.351 0.423,0.524 0.025,0.032 0.044,0.058 0.07,0.084 0.147,0.198 0.282,0.403 0.41,0.601 0.032,0.052 0.064,0.102 0.096,0.154 0.096,0.166 0.185,0.326 0.269,0.486 0.025,0.045 0.051,0.096 0.076,0.141 0.097,0.205 0.18,0.403 0.25,0.595 0.013,0.038 0.019,0.077 0.032,0.122 0.058,0.16 0.096,0.326 0.128,0.486 0.013,0.051 0.025,0.109 0.032,0.16 0.032,0.199 0.057,0.39 0.057,0.589 0,0.135 -0.006,0.262 -0.025,0.39 -0.026,0.25 -0.083,0.474 -0.16,0.679 -0.045,0.108 -0.089,0.205 -0.141,0.3 -0.134,0.237 -0.313,0.436 -0.518,0.615 -0.147,0.122 -0.307,0.237 -0.487,0.333 -0.134,0.07 -0.281,0.141 -0.435,0.198 -0.064,0.026 -0.134,0.045 -0.198,0.071 -0.173,0.057 -0.352,0.102 -0.538,0.14 -0.538,0.116 -1.139,0.167 -1.779,0.167 -1.312,0 -2.637,-0.115 -3.962,-0.326 -0.659,-0.103 -1.318,-0.231 -1.977,-0.385 -0.986,-0.224 -1.965,-0.499 -2.931,-0.813 -1.933,-0.627 -3.802,-1.407 -5.549,-2.284 -0.583,-0.295 -1.152,-0.596 -1.702,-0.903 -1.658,-0.934 -3.169,-1.926 -4.474,-2.931 -0.436,-0.333 -0.845,-0.665 -1.229,-0.992 -0.391,-0.333 -0.749,-0.666 -1.082,-0.985 -0.492,-0.487 -0.928,-0.96 -1.293,-1.415 -0.243,-0.307 -0.454,-0.601 -0.633,-0.883 -1.12,-1.888 -0.358,-2.144 0.761,-1.799 0.135,0.039 0.269,0.09 0.41,0.148 0.282,0.109 0.57,0.243 0.852,0.396 0.14,0.078 0.281,0.154 0.416,0.231 0.466,0.282 0.876,0.582 1.119,0.826 0.032,0.032 0.064,0.064 0.103,0.096 0.102,0.083 0.204,0.147 0.294,0.14 0.026,0 0.051,-0.012 0.077,-0.031 0.07,-0.058 0.121,-0.199 0.121,-0.468 0,-0.806 -0.428,-1.869 -1.145,-2.777 -0.103,-0.128 -0.211,-0.256 -0.32,-0.378 -0.23,-0.243 -0.48,-0.474 -0.743,-0.672 -0.531,-0.403 -1.139,-0.704 -1.792,-0.819 -0.326,-0.058 -0.659,-0.07 -1.011,-0.032 -0.934,0.077 -1.856,0.787 -2.636,1.747 -1.306,1.593 -2.234,3.859 -2.234,4.973 0,7.372 17.914,15.539 29.44,14.221 0.877,-0.103 1.683,-0.282 2.413,-0.519 0.723,-0.23 1.382,-0.524 1.971,-0.857 0.294,-0.167 0.57,-0.346 0.832,-0.532 0.518,-0.377 0.979,-0.787 1.376,-1.215 0.205,-0.218 0.39,-0.436 0.563,-0.66 0.339,-0.448 0.627,-0.915 0.87,-1.376 0.237,-0.461 0.429,-0.928 0.577,-1.376 0.224,-0.678 0.345,-1.318 0.397,-1.881 0.012,-0.192 0.025,-0.372 0.025,-0.538 m -1.243,-4.223 c 0.026,0.044 0.053,0.088 0.078,0.133 -0.025,-0.045 -0.051,-0.089 -0.078,-0.133 m -9.251,5.165 c 0.017,-0.039 0.029,-0.076 0.041,-0.113 -0.012,0.037 -0.024,0.074 -0.041,0.113 m 0.069,-0.196 c 0.01,-0.037 0.015,-0.069 0.022,-0.102 -0.007,0.033 -0.012,0.065 -0.022,0.102 m -0.389,0.733 c -0.032,0.041 -0.064,0.082 -0.1,0.122 0.036,-0.041 0.068,-0.081 0.1,-0.122 m 9.098,-6.428 c 0.014,0.019 0.029,0.039 0.043,0.059 -0.014,-0.02 -0.029,-0.04 -0.043,-0.059 m -8.94,6.202 c -0.026,0.041 -0.052,0.082 -0.081,0.124 0.029,-0.042 0.055,-0.083 0.081,-0.124 m 0.12,-0.219 c -0.019,0.04 -0.038,0.08 -0.061,0.121 0.023,-0.041 0.042,-0.081 0.061,-0.121 m 0.129,-0.676 c 0.008,0.022 0.016,0.044 0.019,0.072 -0.003,-0.028 -0.011,-0.05 -0.019,-0.072 m -1.703,-1.66 c -0.183,-0.197 -0.37,-0.408 -0.562,-0.626 0.191,0.218 0.379,0.429 0.562,0.626 m 1.719,1.875 c 0.004,-0.033 0.003,-0.06 0.003,-0.089 0,0.029 10e-4,0.056 -0.003,0.089 m -2.887,-3.209 c 0.147,0.176 0.292,0.345 0.435,0.51 -0.143,-0.165 -0.288,-0.334 -0.435,-0.51 m 13.048,0.819 c 0.011,0.046 0.023,0.093 0.034,0.141 -0.011,-0.048 -0.023,-0.095 -0.034,-0.141 m -0.576,-1.596 c 0.019,0.039 0.036,0.08 0.055,0.12 -0.019,-0.04 -0.036,-0.081 -0.055,-0.12 m 0.343,0.819 c 0.004,0.012 0.01,0.025 0.015,0.038 -0.005,-0.013 -0.011,-0.026 -0.015,-0.038 m -12.999,-0.264 c -0.179,-0.216 -0.36,-0.438 -0.544,-0.669 0.184,0.231 0.365,0.453 0.544,0.669 m 11.273,-2.715 c -0.026,-0.033 -0.051,-0.066 -0.078,-0.098 0.027,0.032 0.052,0.065 0.078,0.098 m -9.239,4.974 c 0.124,0.123 0.244,0.238 0.362,0.347 -0.118,-0.109 -0.238,-0.225 -0.362,-0.347 m 6.961,4.756 c 0.206,-0.176 0.383,-0.377 0.516,-0.614 -0.133,0.237 -0.31,0.438 -0.516,0.614 m -9.121,-1.496 c -0.048,0 -0.1,-0.006 -0.149,-0.008 0.029,0.003 0.058,0.009 0.088,0.01 0.021,0.001 0.04,-0.002 0.061,-0.002 m 9.963,-0.488 c 0,-0.193 -0.022,-0.388 -0.054,-0.585 0.032,0.197 0.054,0.392 0.054,0.585 m -7.385,-0.47 c -0.039,0.04 -0.079,0.079 -0.122,0.118 0.043,-0.039 0.083,-0.078 0.122,-0.118 m -4.021,0.197 c 0.074,0.065 0.15,0.132 0.219,0.19 -0.069,-0.059 -0.145,-0.125 -0.219,-0.19 m 8.256,-5.022 c 0.209,0.194 0.412,0.39 0.605,0.587 -0.193,-0.197 -0.396,-0.393 -0.605,-0.587 m -8.702,4.621 c 0.083,0.077 0.168,0.156 0.247,0.227 -0.079,-0.071 -0.164,-0.15 -0.247,-0.227 m 1.009,0.868 c -0.054,-0.041 -0.112,-0.088 -0.169,-0.135 0.049,0.039 0.102,0.085 0.148,0.121 0.007,0.005 0.014,0.009 0.021,0.014 m 11.664,-8.657 c -0.038,-0.041 -0.076,-0.082 -0.114,-0.123 0.038,0.041 0.076,0.082 0.114,0.123 m -8.587,8.32 c 0.051,-0.036 0.098,-0.073 0.145,-0.111 -0.047,0.038 -0.094,0.075 -0.145,0.111 m -0.133,0.091 c -0.054,0.034 -0.11,0.067 -0.167,0.099 0.057,-0.032 0.113,-0.065 0.167,-0.099 m -1.831,0.533 c 0.092,-0.004 0.186,-0.007 0.274,-0.015 -0.088,0.008 -0.182,0.011 -0.274,0.015 m 0.733,-0.088 c -0.079,0.017 -0.162,0.03 -0.245,0.043 0.083,-0.013 0.166,-0.026 0.245,-0.043 m 0.194,-0.049 c 0.074,-0.02 0.147,-0.041 0.217,-0.065 -0.07,0.024 -0.143,0.045 -0.217,0.065 m 0.391,-0.132 c 0.066,-0.027 0.13,-0.054 0.191,-0.084 -0.061,0.03 -0.125,0.057 -0.191,0.084 m 4.131,2.686 v 0 c -1.309,0 -2.634,-0.115 -3.957,-0.326 1.323,0.211 2.648,0.326 3.957,0.326 m 4.068,-4.133 c 0.053,0.164 0.096,0.326 0.129,0.488 -0.033,-0.162 -0.076,-0.324 -0.129,-0.488 m -28.266,-6.905 c -0.242,-0.304 -0.453,-0.598 -0.63,-0.883 0.177,0.285 0.388,0.579 0.63,0.883 m 27.907,6.048 c -0.082,-0.16 -0.172,-0.32 -0.269,-0.481 0.097,0.161 0.187,0.321 0.269,0.481 m 0.075,0.146 c 0.096,0.199 0.18,0.397 0.248,0.595 -0.068,-0.198 -0.152,-0.396 -0.248,-0.595 m -24.581,-7.066 c -0.024,0.019 -0.051,0.028 -0.08,0.031 0.029,-0.003 0.056,-0.012 0.08,-0.031 m 23.661,5.598 c -0.134,-0.176 -0.277,-0.351 -0.426,-0.526 0.149,0.175 0.292,0.35 0.426,0.526 m 0.066,0.084 c 0.15,0.2 0.287,0.4 0.414,0.6 -0.127,-0.2 -0.264,-0.4 -0.414,-0.6 m -27.128,-4.81 c 0.364,0.456 0.799,0.93 1.297,1.416 -0.498,-0.486 -0.933,-0.96 -1.297,-1.416 m 26.514,10.728 c -0.169,0.055 -0.346,0.103 -0.532,0.143 0.186,-0.04 0.363,-0.088 0.532,-0.143 m -0.513,-7.225 c 0.171,0.176 0.334,0.353 0.491,0.53 -0.157,-0.177 -0.32,-0.354 -0.491,-0.53 m -16.219,3.724 c 1.747,0.876 3.618,1.661 5.548,2.288 -1.93,-0.627 -3.801,-1.412 -5.548,-2.288 m 8.479,3.1 c -0.987,-0.225 -1.966,-0.499 -2.931,-0.812 0.965,0.313 1.944,0.587 2.931,0.812 m -15.887,-7.928 c -0.386,-0.33 -0.746,-0.659 -1.077,-0.983 0.331,0.324 0.691,0.653 1.077,0.983 m 1.231,0.998 c -0.434,-0.333 -0.845,-0.667 -1.231,-0.998 0.386,0.331 0.797,0.665 1.231,0.998 m 23.544,7.061 c -0.135,0.073 -0.279,0.139 -0.431,0.198 0.152,-0.059 0.296,-0.125 0.431,-0.198 m -19.07,-4.135 c -1.658,-0.929 -3.17,-1.927 -4.474,-2.926 1.304,0.999 2.816,1.997 4.474,2.926 m 20.215,6.688 c 0.522,-0.374 0.981,-0.783 1.381,-1.214 -0.4,0.431 -0.859,0.84 -1.381,1.214 m -8.778,-14.306 c 0.26,0.146 0.521,0.297 0.781,0.452 -0.26,-0.155 -0.521,-0.306 -0.781,-0.452 m 12.167,9.68 c 0.221,-0.674 0.346,-1.318 0.395,-1.882 -0.049,0.564 -0.174,1.208 -0.395,1.882 m -0.579,1.377 c 0.24,-0.463 0.431,-0.927 0.579,-1.377 -0.148,0.45 -0.339,0.914 -0.579,1.377 M -45.886,24.16 c -0.218,-0.138 -0.436,-0.272 -0.655,-0.404 0.219,0.132 0.437,0.266 0.655,0.404 m -2.39,-1.387 c 0.207,0.11 0.414,0.223 0.622,0.339 -0.208,-0.116 -0.416,-0.229 -0.622,-0.339 m -2.572,8.738 c 0.093,0.09 0.188,0.182 0.278,0.266 -0.09,-0.084 -0.185,-0.176 -0.278,-0.266 m 1.08,-5.697 c -0.16,-0.21 -0.321,-0.425 -0.483,-0.643 0.162,0.218 0.323,0.433 0.483,0.643 m 0.815,1.05 c -0.208,-0.262 -0.42,-0.534 -0.633,-0.812 0.213,0.278 0.425,0.55 0.633,0.812 m 5.762,-0.818 c 0.235,0.185 0.466,0.372 0.691,0.561 -0.225,-0.189 -0.456,-0.376 -0.691,-0.561 m 0.845,0.693 c 0.18,0.154 0.355,0.309 0.527,0.465 -0.172,-0.156 -0.347,-0.311 -0.527,-0.465 m -1.593,-1.258 c 0.202,0.148 0.4,0.298 0.597,0.45 -0.196,-0.152 -0.396,-0.302 -0.597,-0.45 m -0.983,-0.693 c -0.247,-0.168 -0.497,-0.331 -0.748,-0.492 0.251,0.161 0.501,0.324 0.748,0.492 m 9.048,9.488 c -0.239,0.463 -0.527,0.926 -0.871,1.375 0.343,-0.449 0.632,-0.912 0.871,-1.375 m 0.951,-4.592 c -0.005,-0.046 -0.009,-0.092 -0.015,-0.138 0.006,0.046 0.01,0.092 0.015,0.138 m -9.217,-4.349 c -0.248,-0.179 -0.499,-0.356 -0.754,-0.528 0.255,0.172 0.506,0.35 0.754,0.528 m -12.47,-0.169 c -0.126,-0.154 -0.253,-0.308 -0.379,-0.463 0.127,0.156 0.253,0.309 0.379,0.463 m -2.373,-15.21 c 0.167,0.468 0.352,0.928 0.55,1.383 -0.204,-0.468 -0.383,-0.935 -0.55,-1.383 m 18.22,11.504 c 0.035,0.026 0.072,0.053 0.107,0.08 -0.035,-0.027 -0.072,-0.054 -0.107,-0.08 M -59.84,21.006 c 0.12,0.165 0.241,0.328 0.362,0.493 -0.121,-0.165 -0.242,-0.328 -0.362,-0.493 m 18.297,-0.11 c 0.028,0.02 0.056,0.04 0.084,0.06 -0.028,-0.02 -0.056,-0.04 -0.084,-0.06 m 3.162,2.57 c -0.025,-0.024 -0.051,-0.048 -0.076,-0.072 0.025,0.024 0.051,0.048 0.076,0.072 M -39.96,22.08 c 0.047,0.038 0.094,0.076 0.14,0.114 -0.046,-0.038 -0.093,-0.076 -0.14,-0.114 m 0.897,0.756 c -0.03,-0.027 -0.059,-0.054 -0.089,-0.081 0.03,0.027 0.059,0.054 0.089,0.081 m -10.198,-6.838 c -0.48,0.006 -0.96,-0.007 -1.421,-0.007 0.282,0.02 0.544,0.032 0.787,0.032 0.224,0 0.436,-0.012 0.634,-0.025 m 6.966,4.386 c -0.051,-0.033 -0.102,-0.067 -0.153,-0.101 0.051,0.034 0.101,0.068 0.153,0.101 m -4.659,8.827 c 0.171,0.184 0.337,0.355 0.498,0.519 -0.161,-0.164 -0.327,-0.335 -0.498,-0.519 m 1.606,1.533 c 0.024,0.012 0.043,0.034 0.057,0.062 -0.014,-0.028 -0.033,-0.05 -0.057,-0.062 -0.143,-0.113 -0.295,-0.244 -0.451,-0.385 0.156,0.141 0.308,0.272 0.451,0.385 m -12.362,-6.94 c 0.125,0.158 0.251,0.315 0.377,0.472 -0.126,-0.157 -0.251,-0.314 -0.377,-0.472 m 1.441,1.776 c 0.127,0.151 0.252,0.3 0.378,0.45 -0.126,-0.15 -0.251,-0.299 -0.378,-0.45 m 2.502,2.887 c -0.13,-0.144 -0.26,-0.287 -0.393,-0.436 0.133,0.149 0.263,0.292 0.393,0.436 m -3.429,3.274 c -0.582,-0.292 -1.151,-0.594 -1.703,-0.904 0.552,0.31 1.121,0.612 1.703,0.904 m 2.022,-4.869 c -0.126,-0.147 -0.252,-0.293 -0.38,-0.442 0.128,0.149 0.254,0.295 0.38,0.442 m -3.968,-4.923 c 0.124,0.165 0.248,0.328 0.372,0.491 -0.124,-0.163 -0.248,-0.326 -0.372,-0.491 m 6.303,7.531 c 0.21,0.225 0.415,0.441 0.615,0.65 -0.2,-0.209 -0.405,-0.425 -0.615,-0.65 m -0.65,-0.705 c 0.139,0.153 0.274,0.298 0.41,0.445 -0.136,-0.147 -0.271,-0.292 -0.41,-0.445 m 2.406,2.51 c -0.102,-0.1 -0.209,-0.208 -0.316,-0.315 0.107,0.107 0.214,0.215 0.316,0.315 m -3.768,-4.039 c 0.129,0.149 0.257,0.292 0.384,0.437 -0.127,-0.145 -0.254,-0.288 -0.384,-0.437 m -3.578,-4.361 c 0.124,0.161 0.249,0.321 0.374,0.48 -0.125,-0.159 -0.25,-0.319 -0.374,-0.48 m 6.41,7.455 c 0.129,0.134 0.26,0.269 0.384,0.395 -0.124,-0.126 -0.255,-0.261 -0.384,-0.395 M -62.336,3.62 c -1.082,0.576 -2.208,1.485 -2.906,2.592 0.717,-1.088 1.837,-1.978 2.906,-2.592 m 16.034,26.262 c -0.051,-0.05 -0.101,-0.1 -0.154,-0.152 0.053,0.053 0.103,0.102 0.154,0.152 m 3.522,5.67 c 0.645,0 1.246,-0.052 1.784,-0.167 -0.538,0.115 -1.139,0.167 -1.784,0.167 M -63.951,23.528 c 0.103,0.088 0.208,0.151 0.294,0.145 -0.086,0.006 -0.191,-0.057 -0.294,-0.145 m 15.55,-0.822 c -0.005,-0.003 -0.01,-0.004 -0.015,-0.007 0.046,0.025 0.093,0.05 0.14,0.074 -0.042,-0.022 -0.084,-0.046 -0.125,-0.067 m 7.424,5.311 c -0.023,-0.023 -0.044,-0.047 -0.067,-0.071 0.023,0.024 0.044,0.048 0.067,0.071 m -9.388,-2.997 c 0.038,0.052 0.075,0.1 0.114,0.151 -0.041,-0.055 -0.082,-0.109 -0.123,-0.164 0.004,0.004 0.006,0.009 0.009,0.013 m 12.573,-0.952 c -0.19,-0.203 -0.386,-0.404 -0.589,-0.602 0.203,0.198 0.399,0.399 0.589,0.602 m -28.645,-2.089 c -0.14,-0.056 -0.277,-0.104 -0.409,-0.146 0.132,0.042 0.269,0.09 0.409,0.146 m 0.852,0.398 c 0.14,0.076 0.279,0.154 0.412,0.234 -0.133,-0.08 -0.272,-0.158 -0.412,-0.234 m 27.086,10.277 v 0 c 0,0.136 -0.007,0.266 -0.021,0.391 0.014,-0.125 0.021,-0.255 0.021,-0.391 M -59.482,8.439 c -0.032,-0.102 -0.064,-0.205 -0.09,-0.3 0.013,0.05 0.026,0.102 0.039,0.153 0.012,0.045 0.032,0.097 0.051,0.147 m 22.892,17.093 c -0.149,-0.211 -0.307,-0.419 -0.473,-0.624 0.166,0.205 0.324,0.413 0.473,0.624 m 1.652,4.014 c -0.032,-0.251 -0.076,-0.498 -0.132,-0.741 0.056,0.243 0.1,0.49 0.132,0.741 m -0.166,-0.882 c -0.062,-0.249 -0.133,-0.497 -0.218,-0.739 0.085,0.242 0.156,0.49 0.218,0.739 m -0.935,-2.273 c 0.129,0.222 0.249,0.448 0.359,0.677 -0.11,-0.229 -0.23,-0.455 -0.359,-0.677 m -0.078,-0.133 c -0.135,-0.225 -0.277,-0.448 -0.43,-0.667 0.153,0.219 0.295,0.442 0.43,0.667 m 0.78,1.629 c -0.085,-0.237 -0.183,-0.469 -0.288,-0.699 0.105,0.23 0.203,0.462 0.288,0.699 m -28.715,-4.453 c -0.245,-0.245 -0.654,-0.543 -1.121,-0.823 0.467,0.28 0.876,0.578 1.121,0.823 0.033,0.033 0.067,0.065 0.101,0.094 -0.034,-0.029 -0.068,-0.061 -0.101,-0.094 m 29.129,6.25 c 0.027,0.263 0.047,0.527 0.047,0.797 0,-0.27 -0.02,-0.534 -0.047,-0.797 m -2.755,-5.493 c 0.186,0.204 0.366,0.409 0.537,0.619 -0.171,-0.21 -0.351,-0.415 -0.537,-0.619 m -4.617,-3.807 c 0.253,0.169 0.504,0.339 0.752,0.512 -0.248,-0.173 -0.499,-0.343 -0.752,-0.512 m -15.415,3.42 c -0.116,-0.146 -0.23,-0.292 -0.345,-0.439 0.115,0.147 0.229,0.293 0.345,0.439 m 0.721,0.899 c -0.115,-0.141 -0.229,-0.285 -0.344,-0.427 0.115,0.142 0.229,0.286 0.344,0.427 m 0.72,0.877 c -0.113,-0.137 -0.227,-0.276 -0.341,-0.414 0.114,0.138 0.228,0.277 0.341,0.414 m -2.501,-3.14 c 0.113,0.148 0.227,0.297 0.341,0.445 -0.114,-0.148 -0.228,-0.297 -0.341,-0.445 m 2.879,3.59 c 0.113,0.133 0.225,0.268 0.337,0.4 -0.112,-0.132 -0.224,-0.267 -0.337,-0.4 m -3.949,-5.024 c -0.111,-0.152 -0.221,-0.305 -0.33,-0.458 0.109,0.153 0.219,0.306 0.33,0.458 m 0.698,0.943 c -0.112,-0.149 -0.224,-0.3 -0.336,-0.45 0.112,0.15 0.224,0.3 0.336,0.45 m 5.375,6.518 c 0.092,0.102 0.186,0.208 0.278,0.308 -0.092,-0.1 -0.186,-0.206 -0.278,-0.308 m 2.919,3.044 c -0.078,-0.075 -0.153,-0.147 -0.235,-0.226 0.082,0.079 0.157,0.151 0.235,0.226 m 0.278,0.266 c 0.075,0.072 0.146,0.136 0.219,0.203 -0.073,-0.067 -0.143,-0.131 -0.219,-0.203 m 0.466,0.43 c 0.07,0.062 0.133,0.117 0.199,0.174 -0.066,-0.057 -0.129,-0.111 -0.199,-0.174 m -1.531,-1.472 c 0.081,0.082 0.157,0.157 0.236,0.235 -0.079,-0.078 -0.155,-0.153 -0.236,-0.235 m -3.539,-3.863 c 0.108,0.125 0.216,0.252 0.323,0.374 -0.107,-0.122 -0.215,-0.249 -0.323,-0.374 m 1.014,1.159 c -0.101,-0.114 -0.204,-0.232 -0.307,-0.348 0.103,0.116 0.206,0.234 0.307,0.348 m 2.141,2.309 c -0.069,-0.071 -0.135,-0.137 -0.205,-0.21 0.07,0.073 0.136,0.139 0.205,0.21 m -1.06,-1.12 c 0.08,0.086 0.162,0.176 0.24,0.26 -0.078,-0.084 -0.16,-0.174 -0.24,-0.26 m 13.927,-6.465 c -0.218,-0.19 -0.44,-0.377 -0.668,-0.561 0.228,0.184 0.45,0.371 0.668,0.561 m -2.307,-1.799 c 0.235,0.166 0.467,0.334 0.696,0.504 -0.229,-0.17 -0.461,-0.338 -0.696,-0.504 m 2.396,1.88 c 0.208,0.184 0.41,0.37 0.606,0.558 -0.196,-0.188 -0.398,-0.374 -0.606,-0.558 M -39.96,22.08 c -0.228,-0.183 -0.459,-0.363 -0.696,-0.54 0.237,0.177 0.468,0.357 0.696,0.54 m -9.551,10.633 c -0.057,-0.046 -0.113,-0.09 -0.175,-0.142 0.062,0.052 0.118,0.096 0.175,0.142 m 2.015,0.334 c 0.067,-0.014 0.13,-0.032 0.194,-0.049 -0.064,0.017 -0.127,0.035 -0.194,0.049 m 2.574,-8.259 c 0.009,0.006 0.019,0.012 0.028,0.019 -0.009,-0.007 -0.019,-0.013 -0.028,-0.019 m -3.958,2.166 c -0.024,-0.03 -0.048,-0.059 -0.073,-0.09 0.025,0.031 0.049,0.06 0.073,0.09 m 5.689,-0.908 c -0.05,-0.039 -0.101,-0.077 -0.151,-0.115 0.05,0.038 0.101,0.076 0.151,0.115 m 0.845,0.693 c -0.051,-0.044 -0.102,-0.088 -0.154,-0.132 0.052,0.044 0.103,0.088 0.154,0.132 m -3.54,-2.579 c 0.072,0.045 0.144,0.09 0.216,0.136 -0.072,-0.046 -0.144,-0.091 -0.216,-0.136 m -3.882,1.654 c 0.061,0.08 0.122,0.16 0.182,0.238 -0.06,-0.078 -0.122,-0.159 -0.182,-0.238 m 3.227,-2.058 c -0.046,-0.028 -0.093,-0.057 -0.14,-0.085 0.047,0.028 0.094,0.057 0.14,0.085 m -0.921,-0.537 c -0.064,-0.036 -0.128,-0.072 -0.192,-0.107 0.064,0.035 0.128,0.071 0.192,0.107 m 3.322,2.116 c 0.068,0.049 0.134,0.098 0.201,0.146 -0.067,-0.048 -0.134,-0.097 -0.201,-0.146 m 5.587,6.734 c -0.009,-0.054 -0.019,-0.108 -0.03,-0.162 0.011,0.054 0.021,0.108 0.03,0.162 m -1.276,2.903 c 0.179,-0.097 0.342,-0.208 0.488,-0.334 -0.146,0.126 -0.309,0.237 -0.488,0.334 m 1.117,-3.553 c -0.012,-0.039 -0.022,-0.077 -0.036,-0.116 0.014,0.038 0.024,0.077 0.036,0.116 m -9.899,1.715 c -0.265,-0.024 -0.518,-0.126 -0.731,-0.286 0.137,0.106 0.264,0.199 0.372,0.267 0.125,0.013 0.241,0.015 0.359,0.019 m 8.269,-4.42 c -0.048,-0.056 -0.096,-0.111 -0.144,-0.167 0.048,0.056 0.096,0.111 0.144,0.167 m 1.346,1.994 c -0.023,-0.049 -0.05,-0.097 -0.075,-0.146 0.025,0.049 0.052,0.097 0.075,0.146 m -2.823,-3.504 c 0.056,0.051 0.114,0.103 0.17,0.155 -0.056,-0.052 -0.114,-0.104 -0.17,-0.155 m 1.969,2.12 c -0.021,-0.028 -0.044,-0.056 -0.066,-0.084 0.022,0.028 0.045,0.056 0.066,0.084 m 0.414,0.6 c 0.033,0.052 0.064,0.104 0.096,0.157 -0.032,-0.053 -0.063,-0.105 -0.096,-0.157 m 0.751,3.805 c 0.081,-0.208 0.137,-0.435 0.165,-0.684 -0.028,0.249 -0.084,0.476 -0.165,0.684 m -8.035,-0.947 c 0.053,-0.026 0.104,-0.053 0.155,-0.081 -0.051,0.028 -0.102,0.055 -0.155,0.081 m 1.109,-0.924 c -0.024,0.034 -0.051,0.068 -0.077,0.102 0.027,-0.034 0.053,-0.068 0.077,-0.102 M -46.12,32.4 c 0.039,-0.032 0.078,-0.065 0.114,-0.098 -0.036,0.033 -0.075,0.066 -0.114,0.098 m 0.236,-0.216 c 0.033,-0.034 0.066,-0.068 0.096,-0.102 -0.03,0.034 -0.063,0.068 -0.096,0.102 m -0.381,0.327 c -0.043,0.031 -0.087,0.061 -0.133,0.091 0.046,-0.03 0.09,-0.06 0.133,-0.091 m -2.197,0.631 c 0.08,10e-4 0.155,-0.004 0.233,-0.007 -0.078,0.003 -0.153,0.008 -0.233,0.007 m 7.998,2.1 c 0.069,-0.023 0.137,-0.047 0.204,-0.072 -0.067,0.025 -0.135,0.049 -0.204,0.072 m -7.277,-2.152 c -0.071,0.011 -0.14,0.022 -0.214,0.03 0.074,-0.008 0.143,-0.019 0.214,-0.03 m 0.83,-0.224 c -0.057,0.023 -0.114,0.046 -0.174,0.067 0.06,-0.021 0.117,-0.044 0.174,-0.067 m 1.112,-2.507 c -0.046,-0.041 -0.094,-0.087 -0.141,-0.13 0.047,0.043 0.095,0.089 0.141,0.13 m -2.353,-2.514 c -0.061,-0.074 -0.122,-0.147 -0.184,-0.222 0.062,0.075 0.123,0.148 0.184,0.222 m 2.622,3.889 c 0.02,-0.033 0.041,-0.066 0.059,-0.098 -0.018,0.032 -0.039,0.065 -0.059,0.098 m 0.249,-0.895 c -0.003,-0.01 -0.005,-0.024 -0.01,-0.033 0.005,0.009 0.007,0.023 0.01,0.033 m -2.436,-2.484 c 0.057,0.066 0.114,0.134 0.171,0.198 -0.057,-0.064 -0.114,-0.132 -0.171,-0.198 m 0.733,0.824 c 0.01,0.011 0.02,0.021 0.03,0.032 -0.01,-0.011 -0.02,-0.021 -0.03,-0.032 m 1.722,1.786 c 0,-0.017 0.002,-0.038 0,-0.054 0.002,0.016 0,0.036 0,0.054 m -0.037,0.262 c -0.008,0.026 -0.018,0.055 -0.028,0.083 0.01,-0.028 0.02,-0.057 0.028,-0.083 m 0.022,-0.102 c 0.004,-0.024 0.01,-0.049 0.012,-0.071 -0.002,0.022 -0.008,0.047 -0.012,0.071 m -0.133,0.39 c 0.014,-0.031 0.03,-0.062 0.042,-0.092 -0.012,0.03 -0.028,0.061 -0.042,0.092 M 18.187,13.763 c 2.805,-1.195 6.96,6.077 5.662,6.077 -1.559,-0.155 -5.246,-4.83 -5.662,-6.077 M 26.542,7.784 C 24.998,6.181 23.809,4.952 21.549,4.485 20.179,4.202 19.028,4.16 17.687,4.634 16.636,5.005 15.664,5.668 14.83,6.396 c -1.214,1.061 -2.409,2.556 -2.409,4.25 0,5.506 5.714,12 9.401,12.415 2.286,0.312 5.922,-2.701 5.767,-5.039 -0.156,-2.025 -2.858,-7.064 -6.701,-7.324 -1.247,-0.155 -2.961,1.143 -3.325,1.767 -0.467,-1.455 -0.727,-3.221 0.675,-4.208 3.066,-2.078 5.521,-0.47 8.228,1.321 2.54,1.68 1.265,-0.558 0.076,-1.794 M -18.15,9.161 c -2.08,0 4.83,11.17 9.559,10.13 -0.21,-0.21 -8.159,-10.13 -9.559,-10.13 m -1.401,22.2 c 2.321,-0.13 -7.63,-12.82 -12.309,-16.61 2.6,5.5 11.059,16.68 12.309,16.61 M 5.17,9.031 c 5.609,4.21 8.26,7.79 8,8.47 -0.261,1.92 -1.4,4.41 -3.271,4.83 -0.939,-0.16 -4.729,-1.82 -6.389,-1.98 0.469,0.47 -1.2,3.02 -1.971,2.86 -0.519,0 -2.6,-1.25 -2.859,-3.06 -0.16,-0.83 0.729,-2.03 1.09,-2.39 C -0.687,17.13 -1.169,16.52 -1.657,15.915 -3.255,13.934 -5.04,12.111 -6.977,10.46 -7.479,10.032 -7.991,9.605 -8.54,9.236 -8.678,9.144 -9.129,8.779 -9.32,8.901 c -0.83,0.42 4,7.69 5.25,9.35 0.41,0.57 -1.25,1.92 -3.17,2.34 -0.42,0.98 -2.191,2.18 -3.54,2.18 -4.08,0 -8.295,-3.724 -10.775,-7.598 -0.388,-0.607 -0.826,-1.18 -1.332,-1.694 -0.175,-0.176 -0.365,-0.381 -0.573,-0.618 -2.5,-2.91 -7.511,-7.54 -9.3,-6.34 -1.821,1.23 -1.341,3.23 0.179,6.27 4.831,2.49 15.891,13.37 16.57,18.35 0.151,1.25 -2.46,4.03 -4.729,3.69 -4.35,-0.65 -18.6,-19.45 -17.99,-25.87 0.299,-3.199 4.459,-6.279 6.33,-6.279 2.37,0.109 6.129,3.899 8.66,6.939 -0.031,-0.21 -0.031,-0.42 -0.02,-0.62 0.15,-2.23 3.369,-4.98 4.989,-4.67 1.55,0.15 3.42,3.481 4.1,4.311 0.15,-2.031 2.08,-4.21 3.95,-4.361 0.476,-0.04 0.954,0.198 1.352,0.431 0.604,0.354 1.151,0.806 1.672,1.271 1.286,1.152 2.44,2.454 3.543,3.779 1.793,2.153 3.439,4.454 5.331,6.543 0.109,0.126 0.219,0.253 0.327,0.381 0.036,0.043 0.239,0.348 0.285,0.345 2.811,-0.16 5.15,1.3 6.65,1.56 -3.32,-4 -6.589,-7.529 -8.769,-8.88 -2.811,-0.26 -2.91,-1.41 -3.07,-2.19 -0.26,-2.07 0.259,-3.48 0.83,-3.22 0.78,0.37 2.179,1.2 2.859,1.61 3.891,-0.26 8.57,-1.04 9.711,-2.28 1.51,-1.51 1.399,0.78 -0.521,3.79 -0.78,1.091 -2.389,1.45 -4.309,1.61" /></g></g></g></g></svg>