<svg width="30" height="30" viewBox="0 0 30 30" fill="none" xmlns="http://www.w3.org/2000/svg">
<path d="M23.0767 8.07692C22.4409 8.07692 21.9229 7.55885 21.9229 6.92308V4.61538C21.9229 3.97962 22.4409 3.46154 23.0767 3.46154H25.3844C26.0202 3.46154 26.5382 3.97962 26.5382 4.61538V6.92308C26.5382 7.55885 26.0202 8.07692 25.3844 8.07692H23.0767Z" fill="black"/>
<path d="M15 10.6015C14.1623 10.6015 13.3893 10.8473 12.7235 11.2512C12.9312 11.1865 13.1469 11.1438 13.3743 11.1438C14.6066 11.1438 15.6046 12.1419 15.6046 13.3754C15.6046 14.6054 14.6066 15.6058 13.3743 15.6058C12.1419 15.6058 11.1439 14.6065 11.1439 13.3754C11.1439 13.1458 11.1889 12.93 11.2523 12.7235C10.8462 13.3892 10.6016 14.1623 10.6016 15C10.6016 17.4312 12.5689 19.3996 15.0012 19.3996C17.43 19.3996 19.4008 17.4323 19.4008 15C19.4008 12.5677 17.4289 10.6015 15 10.6015Z" fill="black"/>
<path d="M15.0002 8.07692C18.8229 8.07692 21.9233 11.1762 21.9233 15C21.9233 18.8239 18.8218 21.9231 15.0002 21.9231C11.1776 21.9231 8.07721 18.8239 8.07721 15C8.07721 11.1762 11.1776 8.07692 15.0002 8.07692ZM15.0002 5.76923C9.91066 5.76923 5.76953 9.91039 5.76953 15C5.76953 20.0896 9.91066 24.2308 15.0002 24.2308C20.0898 24.2308 24.231 20.0896 24.231 15C24.231 9.91039 20.0898 5.76923 15.0002 5.76923Z" fill="black"/>
<path d="M24.375 0H5.625C2.51769 0 0 2.51769 0 5.625V24.375C0 27.4823 2.51769 30 5.625 30H24.375C27.4823 30 30 27.4823 30 24.375V5.625C30 2.51769 27.4823 0 24.375 0ZM27.6923 10.3846H20.1496C21.2492 11.6112 21.9231 13.2242 21.9231 15C21.9231 18.8238 18.8215 21.9231 15 21.9231C11.1773 21.9231 8.07692 18.8238 8.07692 15C8.07692 13.2242 8.75077 11.61 9.85038 10.3846H2.30769V5.625C2.30769 3.79615 3.79615 2.30769 5.625 2.30769H24.375C26.205 2.30769 27.6923 3.79615 27.6923 5.625V10.3846Z" fill="black"/>
</svg>
