<?xml version="1.0" encoding="UTF-8"?>
<!DOCTYPE svg PUBLIC "-//W3C//DTD SVG 1.1//EN" "http://www.w3.org/Graphics/SVG/1.1/DTD/svg11.dtd">
<!-- Creator: CorelDRAW X7 -->
<svg xmlns="http://www.w3.org/2000/svg" xml:space="preserve" width="22.1826mm" height="5.08mm" version="1.1" style="shape-rendering:geometricPrecision; text-rendering:geometricPrecision; image-rendering:optimizeQuality; fill-rule:evenodd; clip-rule:evenodd"
viewBox="0 0 2218 508"
 xmlns:xlink="http://www.w3.org/1999/xlink">
 <defs>
  <style type="text/css">
   <![CDATA[
    .str0 {stroke:#2F2114;stroke-width:7.62}
    .fil3 {fill:none;fill-rule:nonzero}
    .fil1 {fill:#2F2114}
    .fil0 {fill:#5F9012}
    .fil2 {fill:#2F2114;fill-rule:nonzero}
   ]]>
  </style>
 </defs>
 <g id="Layer_x0020_1">
  <metadata id="CorelCorpID_0Corel-Layer"/>
  <path class="fil0" d="M293 103l-6 0c0,-11 1,-19 4,-29 3,-7 6,-12 11,-17 1,-2 5,-5 7,-7 9,-5 21,-9 32,-9 0,13 0,17 -4,30 -1,5 -3,8 -6,13 0,1 -1,1 -1,2 -1,1 -1,1 -2,2 -8,10 -22,15 -35,15zm-231 118l-5 0c0,-1 2,-4 3,-5 6,-8 18,-9 25,-5 -2,3 -6,6 -9,8 -4,1 -11,3 -14,2zm369 -65c-11,0 -7,-1 -14,-3 0,-1 1,-1 2,-2 5,-3 12,-5 18,-2 1,1 3,3 4,4 -2,2 -6,3 -10,3zm-408 -27c0,2 3,4 5,6 1,2 4,4 6,6 8,4 16,6 25,4 2,0 4,0 4,-3 0,-8 -7,-16 -15,-19 -10,-3 -25,1 -25,6zm298 131c0,-2 0,-3 0,-5 0,-1 1,-3 1,-4 2,1 5,3 7,4 3,2 4,3 6,6 2,2 3,5 4,8 0,7 -1,7 -1,11 -4,0 -10,-4 -12,-7 -3,-3 -5,-7 -5,-13zm-273 64c-1,-3 -1,-4 -1,-8 0,-5 2,-12 4,-15 1,-1 3,-3 5,-4 1,-1 4,-3 6,-3 0,11 0,18 -8,25 -2,1 -4,3 -6,5zm-51 -118c0,2 2,3 4,3 12,6 23,8 36,3l7 -4c6,-4 -5,-11 -7,-13 -9,-5 -22,-5 -30,0 -3,2 -10,7 -10,11zm431 43l8 0c7,0 13,3 16,6 2,2 4,4 6,7 2,4 2,4 -1,4 -8,1 -12,-1 -18,-5 -3,-2 -4,-3 -6,-5 -2,-3 -3,-4 -5,-7zm-69 -159c-3,0 -5,1 -1,-7 5,-7 12,-13 20,-13l6 0c1,0 1,0 3,0 -3,12 -15,20 -28,20zm-207 -50c0,-14 7,-23 8,-25 1,0 4,3 5,4 1,1 1,1 2,2 1,0 1,1 1,1 1,1 1,2 2,2 1,1 2,3 3,4 5,8 6,15 6,26 0,6 -1,12 -2,17 -2,0 -8,-4 -9,-5 -3,-1 -6,-3 -8,-6 -3,-3 -6,-9 -7,-14 0,-1 -1,-4 -1,-6zm-62 248c-3,0 -2,0 -4,0 0,-2 0,-2 0,-4 0,-13 3,-24 11,-33 7,-8 19,-12 30,-12 0,9 -1,15 -3,22 -5,17 -15,27 -34,27zm284 -141l-6 0c-3,0 -5,-1 -8,-1 0,-3 4,-11 5,-13 3,-6 6,-11 11,-15 10,-8 21,-7 33,-4 -1,1 -1,2 -1,3 -2,6 -7,15 -11,19 -6,7 -14,11 -23,11zm-316 -60c3,0 4,0 6,0 12,0 23,4 31,11 6,6 13,19 13,31 0,9 1,9 -11,6 -10,-2 -21,-7 -28,-15 -7,-8 -11,-22 -11,-33zm-57 201c2,-6 3,-11 5,-16 4,-9 11,-18 19,-23 9,-5 18,-6 29,-3 2,1 6,3 7,4 -1,5 -7,12 -9,15 -2,3 -10,10 -13,12 -5,4 -10,7 -16,9 -7,1 -14,2 -22,2zm367 -10l0 -4c11,0 17,0 27,5 8,4 14,10 19,18 3,5 5,11 7,18l1 8c0,3 0,2 -8,2 -6,0 -14,-2 -19,-4 -4,-1 -7,-3 -11,-6 -10,-8 -16,-23 -16,-37zm-322 -105c0,0 1,-1 2,-2 2,-2 7,-5 9,-6 11,-6 22,-6 33,1 3,2 9,7 11,11 -2,1 -4,3 -6,4 -2,1 -5,3 -7,4 -10,5 -23,6 -33,-1l-7 -7 -2 -4zm61 -114c0,-11 3,-14 6,-21 3,2 5,6 6,9 4,8 4,17 1,25 -1,3 -2,6 -4,9 -4,-3 -9,-14 -9,-22zm268 127c0,-1 4,-4 5,-5 19,-12 42,-10 59,5 2,2 4,4 6,6 4,5 11,17 12,22 -13,4 -30,4 -44,0 -7,-2 -18,-9 -24,-14 -3,-1 -14,-11 -14,-14zm-63 -33c-2,0 -3,0 -5,0 -1,0 -2,0 -3,-1 -1,0 -1,0 -3,0 1,-2 2,-4 2,-6 5,-15 15,-27 33,-24 2,1 3,1 5,2 -1,6 -1,6 -3,11l-4 7c-5,7 -12,11 -22,11zm-101 -65c-5,-10 -9,-22 -9,-34 0,-9 0,-13 3,-21 3,-8 9,-16 15,-22 2,-2 9,-7 11,-8l2 6c6,13 8,31 4,45 -5,14 -15,26 -26,34zm55 -36c0,-2 0,-2 0,-5 0,-14 6,-31 19,-33 4,-1 5,-1 7,-1 0,14 -5,27 -15,34 -3,1 -8,4 -11,5zm83 171c1,0 3,-2 6,-3 11,-3 21,1 28,8 2,2 4,5 6,9 1,2 4,8 4,10l-8 1c-6,0 -13,-2 -18,-4 -6,-4 -11,-10 -15,-16 -1,-1 -3,-3 -3,-5zm-205 -124c0,-2 0,-4 0,-6 1,-2 1,-4 1,-6 3,0 10,4 12,6 11,8 16,21 16,38 0,3 0,4 0,7 -10,-3 -22,-13 -26,-24 -2,-4 -3,-9 -3,-15z"/>
  <path class="fil1 str0" d="M62 221l-5 0c0,-1 2,-4 3,-5 6,-8 18,-9 25,-5 -2,3 -6,6 -9,8 -4,1 -11,3 -14,2zm369 -65c-11,0 -7,-1 -14,-3 0,-1 1,-1 2,-2 5,-3 12,-5 18,-2 1,1 3,3 4,4 -2,2 -6,3 -10,3zm-21 -2c0,2 2,3 3,3 9,4 17,6 27,2 3,-1 7,-3 7,-6 0,-3 -13,-17 -30,-7 -2,1 -7,5 -7,8zm-111 301c0,1 2,6 6,0 1,-1 2,-2 2,-3 9,-13 19,-30 35,-33 2,0 3,0 5,0 4,-1 4,-7 0,-7 -10,0 -20,6 -26,13 -1,1 -2,2 -3,3 -4,4 -7,8 -10,13 -2,2 -3,4 -5,7 -1,1 -4,5 -4,7zm-270 -325c10,-6 26,-2 29,10 -6,2 -13,0 -17,-2 -3,-1 -10,-5 -12,-8zm-6 -1c0,2 3,4 5,6 1,2 4,4 6,6 8,4 16,6 25,4 2,0 4,0 4,-3 0,-8 -7,-16 -15,-19 -10,-3 -25,1 -25,6zm298 131c0,-2 0,-3 0,-5 0,-1 1,-3 1,-4 2,1 5,3 7,4 3,2 4,3 6,6 2,2 3,5 4,8 0,7 -1,7 -1,11 -4,0 -10,-4 -12,-7 -3,-3 -5,-7 -5,-13zm18 26c2,0 2,-2 3,-6 3,-6 2,-13 -1,-20 -2,-5 -7,-9 -12,-12 -2,-1 -7,-3 -9,-3 -2,0 -3,4 -3,6 -3,12 0,23 10,30 2,2 8,5 12,5zm-291 38c-1,-3 -1,-4 -1,-8 0,-5 2,-12 4,-15 1,-1 3,-3 5,-4 1,-1 4,-3 6,-3 0,11 0,18 -8,25 -2,1 -4,3 -6,5zm-7 -9c0,4 1,6 2,10 3,9 6,5 12,0 9,-7 13,-14 13,-28 0,-12 -4,-11 -13,-6 -8,4 -14,12 -14,24zm-21 -119c7,0 11,1 17,6 1,0 2,1 3,3 -4,1 -12,8 -28,3 -4,-1 -7,-3 -9,-3 1,-2 5,-5 7,-6 3,-1 7,-3 10,-3zm-23 10c0,2 2,3 4,3 12,6 23,8 36,3l7 -4c6,-4 -5,-11 -7,-13 -9,-5 -22,-5 -30,0 -3,2 -10,7 -10,11zm431 43l8 0c7,0 13,3 16,6 2,2 4,4 6,7 2,4 2,4 -1,4 -8,1 -12,-1 -18,-5 -3,-2 -4,-3 -6,-5 -2,-3 -3,-4 -5,-7zm-7 -2c0,3 4,8 5,10 17,22 40,15 40,11 0,-6 -6,-14 -10,-17 -9,-8 -20,-10 -30,-7 -3,0 -5,1 -5,3zm-62 -157c-3,0 -5,1 -1,-7 5,-7 12,-13 20,-13l6 0c1,0 1,0 3,0 -3,12 -15,20 -28,20zm-10 3c0,3 4,3 6,3 9,0 15,0 23,-5 3,-2 7,-5 9,-9 2,-2 3,-4 4,-6 2,-7 4,-10 -2,-12 -12,-3 -21,0 -30,9 -2,1 -5,6 -6,8 -1,3 -4,9 -4,12zm-197 -53c0,-14 7,-23 8,-25 1,0 4,3 5,4 1,1 1,1 2,2 1,0 1,1 1,1 1,1 1,2 2,2 1,1 2,3 3,4 5,8 6,15 6,26 0,6 -1,12 -2,17 -2,0 -8,-4 -9,-5 -3,-1 -6,-3 -8,-6 -3,-3 -6,-9 -7,-14 0,-1 -1,-4 -1,-6zm-5 -2c0,8 1,14 5,20 5,9 14,15 23,19 6,3 6,1 8,-10 1,-3 1,-7 2,-10 3,-32 -24,-49 -25,-49 -2,0 -2,0 -3,2 -1,1 -1,2 -2,3 -4,7 -8,17 -8,25zm-57 250c-3,0 -2,0 -4,0 0,-2 0,-2 0,-4 0,-13 3,-24 11,-33 7,-8 19,-12 30,-12 0,9 -1,15 -3,22 -5,17 -15,27 -34,27zm-10 -6c0,13 1,12 13,12 9,0 17,-4 23,-9 3,-2 4,-3 6,-6 6,-9 10,-23 10,-35 0,-12 1,-10 -8,-10 -6,0 -13,2 -18,4 -17,7 -26,25 -26,44zm294 -135l-6 0c-3,0 -5,-1 -8,-1 0,-3 4,-11 5,-13 3,-6 6,-11 11,-15 10,-8 21,-7 33,-4 -1,1 -1,2 -1,3 -2,6 -7,15 -11,19 -6,7 -14,11 -23,11zm-6 6c10,0 18,0 27,-6 7,-6 13,-14 17,-24 1,-2 3,-8 3,-11 0,-4 -4,-4 -8,-5 -19,-5 -35,2 -44,17 -2,3 -3,6 -4,9 -1,1 -1,1 -1,2 -1,3 -4,10 -4,13 0,2 1,3 3,3 3,1 7,2 11,2zm-310 -66c3,0 4,0 6,0 12,0 23,4 31,11 6,6 13,19 13,31 0,9 1,9 -11,6 -10,-2 -21,-7 -28,-15 -7,-8 -11,-22 -11,-33zm56 43c0,-8 -3,-19 -6,-24 -5,-8 -8,-11 -15,-17 -10,-7 -25,-9 -37,-7 -4,0 -4,1 -3,5 1,11 1,19 7,30 3,5 5,7 9,11 10,9 25,13 39,15 4,0 4,0 5,-4 0,-2 1,-6 1,-9zm-113 158c2,-6 3,-11 5,-16 4,-9 11,-18 19,-23 9,-5 18,-6 29,-3 2,1 6,3 7,4 -1,5 -7,12 -9,15 -2,3 -10,10 -13,12 -5,4 -10,7 -16,9 -7,1 -14,2 -22,2zm-5 3c0,4 3,3 7,3 20,0 35,-6 47,-19 7,-7 13,-14 17,-23 0,-1 0,1 0,-2 0,-2 -3,-4 -4,-5 -4,-4 -12,-6 -18,-6 -2,0 -2,-1 -4,-1 -1,0 -2,1 -4,1 -7,0 -15,4 -20,9 -10,8 -14,17 -18,28 -1,3 -3,11 -3,15zm372 -13l0 -4c11,0 17,0 27,5 8,4 14,10 19,18 3,5 5,11 7,18l1 8c0,3 0,2 -8,2 -6,0 -14,-2 -19,-4 -4,-1 -7,-3 -11,-6 -10,-8 -16,-23 -16,-37zm-6 -6c0,24 8,45 29,54 10,4 23,6 34,4 2,0 3,0 3,-2 0,-14 -6,-33 -16,-43 -11,-13 -28,-19 -46,-17 -1,1 -4,1 -4,4zm-316 -99c0,0 1,-1 2,-2 2,-2 7,-5 9,-6 11,-6 22,-6 33,1 3,2 9,7 11,11 -2,1 -4,3 -6,4 -2,1 -5,3 -7,4 -10,5 -23,6 -33,-1l-7 -7 -2 -4zm61 -114c0,-11 3,-14 6,-21 3,2 5,6 6,9 4,8 4,17 1,25 -1,3 -2,6 -4,9 -4,-3 -9,-14 -9,-22zm-6 -1c0,10 3,18 8,24 1,2 1,2 3,4 2,1 1,2 2,6 3,11 5,18 8,28 7,16 15,32 24,46l10 14c1,3 3,5 5,7l-6 -2c-19,-8 -31,-11 -50,-11 -3,-5 -8,-9 -13,-12 -5,-4 -12,-6 -20,-6 -7,0 -14,3 -19,6 -3,1 -5,3 -7,5 -8,6 -8,6 -1,14 6,8 16,14 26,14 6,0 13,-3 19,-6 3,-1 9,-4 12,-7 4,-3 2,-2 11,-2 5,0 12,1 17,2 2,1 5,1 7,2 3,1 5,2 8,3 2,1 4,1 7,3l13 6c0,1 5,4 6,4 2,0 3,-2 3,-4 0,-1 -7,-9 -8,-11 -3,-5 -7,-10 -10,-15 -4,-6 -6,-9 -10,-16 -1,-1 -2,-2 -3,-4l-8 -17c-6,-12 -9,-19 -13,-32 -1,-4 -2,-8 -2,-11 -1,-3 -1,-3 0,-5 7,-10 10,-23 7,-35 -1,-4 -2,-5 -3,-8 -2,-3 -7,-11 -11,-11 -3,0 -12,15 -12,27zm274 128c0,-1 4,-4 5,-5 19,-12 42,-10 59,5 2,2 4,4 6,6 4,5 11,17 12,22 -13,4 -30,4 -44,0 -7,-2 -18,-9 -24,-14 -3,-1 -14,-11 -14,-14zm-63 -33c-2,0 -3,0 -5,0 -1,0 -2,0 -3,-1 -1,0 -1,0 -3,0 1,-2 2,-4 2,-6 5,-15 15,-27 33,-24 2,1 3,1 5,2 -1,6 -1,6 -3,11l-4 7c-5,7 -12,11 -22,11zm-29 50c1,0 8,-5 11,-7 23,-12 49,-12 74,-6 2,0 3,1 4,3 3,4 10,10 13,12 11,8 28,18 47,18 13,0 15,0 28,-3 6,-1 6,-2 2,-10 -5,-10 -10,-20 -18,-27 -6,-5 -9,-8 -16,-11 -2,-1 -4,-2 -6,-3 -11,-3 -23,-3 -34,2 -4,1 -14,6 -17,10 -2,4 -1,3 -8,1 -18,-3 -36,-4 -54,2 -4,1 -8,2 -12,4l-10 5c0,-6 6,-23 8,-28 1,-1 2,-3 2,-4 1,-1 2,-3 2,-4 20,5 35,1 44,-21 2,-3 4,-9 4,-15 0,-2 -8,-4 -10,-4 -21,-4 -34,11 -39,30 -2,5 -2,5 -5,10 -2,4 -5,10 -7,14 -1,5 -7,26 -6,29 0,2 1,3 3,3zm-72 -115c-5,-10 -9,-22 -9,-34 0,-9 0,-13 3,-21 3,-8 9,-16 15,-22 2,-2 9,-7 11,-8l2 6c6,13 8,31 4,45 -5,14 -15,26 -26,34zm55 -36c0,-2 0,-2 0,-5 0,-14 6,-31 19,-33 4,-1 5,-1 7,-1 0,14 -5,27 -15,34 -3,1 -8,4 -11,5zm-70 -1c0,14 5,31 10,40 1,2 1,2 1,5 0,5 2,24 3,29 2,23 7,52 14,73l4 14c1,3 1,3 4,3 3,0 2,-4 2,-6 0,-3 0,-5 0,-8l1 -13c0,-2 0,-2 0,-4 0,-10 1,-21 3,-31 3,-22 8,-47 16,-68 3,-7 8,-18 12,-25 1,-2 0,-2 2,-2 9,-4 18,-9 23,-19 4,-7 7,-15 7,-27 0,-5 -3,-5 -10,-5 -4,0 -9,2 -12,4 -12,9 -17,25 -15,42 0,5 0,3 -2,8l-4 8c-11,23 -19,57 -23,83 -1,7 -2,14 -2,21l-1 10c0,4 0,7 0,11 0,0 0,0 0,0l-1 -1c0,-1 0,-1 0,-2 0,-1 -1,-1 -1,-2 -4,-14 -7,-27 -9,-42 -1,-4 -1,-9 -2,-13l-2 -26c-1,-1 0,-3 -1,-4l0 -10c3,-1 16,-14 19,-19l2 -3c14,-20 13,-46 3,-68 0,-2 -1,-3 -2,-4 -1,-3 -1,-4 -4,-4 -1,0 -11,8 -13,9 -12,11 -22,26 -22,46zm153 172c1,0 3,-2 6,-3 11,-3 21,1 28,8 2,2 4,5 6,9 1,2 4,8 4,10l-8 1c-6,0 -13,-2 -18,-4 -6,-4 -11,-10 -15,-16 -1,-1 -3,-3 -3,-5zm-4 -5c-2,0 -11,-3 -19,-3 -10,0 -18,1 -27,6 -25,13 -27,45 -25,74 2,29 2,69 26,86 13,10 36,15 53,16 6,1 15,2 20,3 8,3 13,11 13,20 0,8 -4,15 -8,20 -3,4 -8,10 -12,14 -3,3 -10,9 -14,11 -9,7 -22,15 -33,19 -20,9 -40,14 -63,14 -3,0 -9,-2 -9,3 0,2 1,3 3,3 15,1 27,0 41,-4 9,-2 11,-2 19,-5 1,0 1,0 2,-1 4,-1 6,-2 10,-4 7,-3 20,-10 26,-14 3,-2 5,-4 8,-6l11 -9c10,-9 24,-25 24,-39l0 -3c0,-9 -5,-18 -10,-22 -7,-5 -14,-5 -25,-6 -4,0 -9,-1 -13,-1 -13,-2 -30,-7 -40,-14 -15,-12 -20,-31 -21,-51 -1,-15 -3,-31 -3,-46 0,-13 2,-27 8,-38 10,-17 33,-23 53,-17 2,0 2,0 3,2 11,18 23,28 44,28 3,0 5,0 8,0 2,0 5,-1 5,-3 0,-3 -4,-12 -5,-14 -3,-9 -6,-11 -11,-17 -9,-8 -24,-9 -35,-4l-4 2zm-201 -119c0,-2 0,-4 0,-6 1,-2 1,-4 1,-6 3,0 10,4 12,6 11,8 16,21 16,38 0,3 0,4 0,7 -10,-3 -22,-13 -26,-24 -2,-4 -3,-9 -3,-15zm149 4l-6 0c0,-11 1,-19 4,-29 3,-7 6,-12 11,-17 1,-2 5,-5 7,-7 9,-5 21,-9 32,-9 0,13 0,17 -4,30 -1,5 -3,8 -6,13 0,1 -1,1 -1,2 -1,1 -1,1 -2,2 -8,10 -22,15 -35,15zm-12 -4c0,11 2,2 -4,15l-7 13c-8,19 -13,40 -16,62 -1,6 -3,19 -3,26 -1,13 -2,25 -3,38l0 14c0,2 -1,7 -1,9 1,12 -1,70 -5,79 -5,12 -26,13 -26,-13l-1 -8c0,-1 0,-3 0,-4 0,-2 0,-3 0,-5 0,-5 0,-12 -1,-18 -2,-48 -3,-86 -19,-132 -4,-8 -7,-17 -12,-24l-4 -7c-2,-5 0,-3 0,-15 0,-12 -4,-23 -10,-32 0,-1 0,-1 -1,-2 -1,0 -1,-1 -2,-2 -5,-6 -12,-10 -20,-13 -5,-1 -5,2 -6,7 -7,28 8,49 32,57 2,1 3,4 5,6 11,21 18,42 24,67 4,22 7,48 7,72 1,5 1,11 1,16l1 39c0,7 2,14 5,18 2,2 4,4 6,5 8,4 18,3 24,-5 9,-13 8,-119 11,-145 2,-19 3,-32 8,-51 5,-21 12,-41 22,-57 11,0 18,0 26,-3 5,-2 10,-4 14,-8 7,-6 12,-13 16,-23 4,-12 5,-21 5,-34 0,-6 -1,-7 -5,-7 -16,0 -33,6 -44,18 -5,5 -9,12 -12,19 -3,8 -5,17 -5,28zm-168 111c15,0 29,1 41,9 4,2 6,4 9,7 10,12 17,30 17,46 0,5 0,11 -1,16 0,2 0,3 0,4 0,2 0,2 0,4 0,13 -2,32 -4,45 -1,11 -3,16 -8,24 -2,2 -5,6 -7,8 -16,13 -36,16 -58,18 -14,2 -24,1 -32,15 -9,14 0,33 10,44 4,4 7,7 11,11 4,3 8,6 12,9 4,2 8,5 13,8 6,4 13,7 20,10 2,1 5,2 7,3 5,2 10,4 16,6 18,5 16,4 34,6 2,0 8,0 10,-1 14,-2 27,-4 40,-11 4,-3 9,-5 13,-7 15,-7 17,-5 25,-7 10,-2 3,-16 -10,-20 -7,-2 -20,0 -29,0 -5,0 -10,-2 -13,-4 -8,-2 -19,-6 -26,1 -4,5 -3,11 -3,15 -9,-2 -18,-5 -26,-10 -2,-1 -3,-2 -5,-3 -1,-1 -2,-2 -3,-2 -6,-5 -10,-11 -15,-17 -5,-5 -9,-10 -14,-14 -7,-5 -16,-11 -26,-11 -3,0 -3,5 -1,6 4,2 10,-1 23,9 2,2 3,3 5,5l10 12c5,5 10,11 16,16 11,7 23,13 36,16 1,0 3,0 4,0 4,-1 2,-6 2,-13 0,-4 3,-7 6,-7 7,0 11,2 17,4 16,5 27,0 39,3 4,0 11,3 12,7 -2,2 -3,2 -6,2 -2,0 -4,0 -6,0 -10,2 -18,8 -27,13 -13,5 -26,11 -41,11 -22,0 -27,-2 -48,-8 -6,-2 -12,-5 -17,-7 -14,-6 -32,-17 -43,-28 -2,-2 -6,-5 -8,-8 -1,-2 -3,-4 -5,-7 -2,-2 -4,-5 -5,-8 -2,-5 -3,-11 -1,-17 3,-11 14,-14 24,-15 29,-2 71,-9 81,-42 5,-17 7,-60 7,-78 0,-28 -9,-54 -31,-66 -8,-4 -18,-6 -28,-8 -8,-1 -23,0 -32,1 -4,1 -5,2 -9,0 -7,-3 -16,-2 -23,2 -3,2 -5,5 -7,8 -1,2 -2,4 -3,5 -1,2 -2,4 1,5 5,2 15,2 20,0 7,-2 11,-6 16,-12 1,-1 1,-1 3,-1 7,-1 13,-2 21,-2z"/>
  <path class="fil2" d="M694 354l0 -5 1 -2 1 -6 3 -8 2 -7 1 -2 1 -2 2 -5 1 -2 2 -2 1 0 -1 -4 3 -3 0 -3 2 -1 1 -3 3 -1 1 2 2 -1 -2 -1 -2 -3 2 -3 3 -1 -2 -1 0 -1 2 -2 1 -3 2 -1 1 0 1 0 0 -2 0 -3 3 -3 2 -3 3 -3 1 -2 2 -2 3 -2 1 1 2 1 -1 0 0 1 1 -1 0 0 1 -1 -1 -1 -1 -1 2 -3 3 -2 3 -3 3 -2 2 -2 2 0 1 1 0 0 0 -2 3 -3 5 -2 2 -1 5 -2 3 0 3 -1 2 1 2 0 2 2 3 2 1 3 1 3 0 0 0 5 0 4 -2 3 -1 5 -1 3 -1 5 -3 5 -11 18 -1 1 -2 2 0 2 -1 2 -1 2 -3 2 -3 1 -2 -1 -1 -1 -3 -3 0 -2 1 -3 1 -3 7 -5 1 -1 2 -1 1 -1 0 -3 3 -2 0 -1 1 -1 2 -1 1 -2 3 -6 0 -2 2 -1 0 -4 2 -2 0 -2 1 -2 1 -4 0 -3 0 -2 0 -1 -1 -1 -2 -1 -1 1 -6 2 -2 1 -2 -1 0 1 -1 2 -1 0 -2 2 -2 0 -1 3 -3 1 -1 3 -2 0 -2 3 -2 0 0 4 -3 2 -1 2 -2 0 0 3 -3 2 0 1 -1 2 -1 1 -2 1 0 1 -1 2 0 1 -1 0 -1 1 0 3 -2 3 -2 2 0 3 -2 2 -2 1 0 4 -2 2 -1 4 -2 3 0 2 -2 3 -2 6 -2 2 -1 3 0 2 -2 3 -1 4 -2 2 1 0 0 4 -2 3 -1 5 1 2 -1 7 1 2 -2 0 0 2 2 1 2 3 1 2 2 0 3 0 2 -1 3 -1 4 -1 2 -3 4 -1 4 -4 4 -3 2 -2 3 -1 1 -2 1 -1 2 -2 5 -4 1 -3 2 -1 1 0 1 -1 1 -2 2 -1 1 -2 3 -2 3 -3 2 0 1 -3 1 -1 1 -1 2 -3 2 -1 2 -3 3 -2 1 -1 1 0 1 1 2 1 0 2 0 2 -2 1 0 3 -2 1 -2 3 -1 2 -3 2 -2 3 -1 2 -2 0 0 2 -4 4 -1 2 -2 1 -2 2 -2 2 -1 2 -2 0 -1 2 -2 1 -2 3 -1 1 -1 2 -1 0 0 0 -1 0 0 0 0 -2 -2 2 1 1 -3 4 -1 1 -1 0 -2 1 -1 2 -2 1 -3 3 -3 0 -2 2 -2 0 -2 1 -1 1 -1 1 -1 0 -1 0 0 -1 0 -2 -1 3 0 1 -1 0 -1 1 0 0 -2 -1 -3 1 -7 -2 -2 0 -2 -1 -1 -1 -1 -3 -2 -1 -1 -2 -2 -2 0 -2 -1 -2 -1 -2 -1 -2 -1 -4 0 -8zm121 -16l0 3 2 -2 3 -2 4 -4 3 -1 3 -3 3 -3 4 -2 2 0 2 -2 0 0 2 0 1 0 1 1 2 2 2 1 1 3 0 1 0 1 0 4 1 4 -1 3 1 3 -1 6 1 1 2 -2 1 0 2 -2 1 -1 2 -2 1 -1 5 -6 5 -2 1 -2 1 -1 2 -1 2 0 1 -1 1 -1 2 0 3 1 4 4 1 2 0 0 -1 3 1 5 -1 2 2 4 -1 1 0 3 0 6 1 2 2 -1 2 -1 2 0 1 -3 0 0 2 -1 2 0 1 -2 2 -2 4 -4 2 -1 1 0 0 0 2 1 0 2 0 4 0 0 0 0 -2 2 -2 3 -4 5 -2 0 -2 3 -5 3 -3 4 -3 2 -2 2 -1 0 -6 -3 -3 -3 -2 -4 0 -2 0 0 1 -2 -2 -2 0 -1 -1 0 1 -6 0 -8 0 -2 0 -1 0 -1 -1 0 -2 2 -2 1 -1 2 -2 1 -1 2 -1 0 -1 1 -1 1 0 2 -2 2 -1 1 -2 3 -1 0 -1 2 -1 2 -1 1 -1 1 -1 0 -1 2 -3 4 -2 2 -1 0 -1 0 -3 -4 -3 -5 1 -6 -1 -3 1 -3 0 -4 0 -2 0 -8 0 -4 0 -1 -1 0 -1 0 0 0 -2 1 -4 3 -6 6 -2 3 0 2 -2 -1 -1 3 -1 2 -1 0 -2 0 -1 2 -1 4 -3 2 -1 1 -1 2 0 1 -2 1 -2 2 -4 6 -2 1 0 3 0 0 -1 1 -2 0 -2 0 -2 -3 -1 -4 -1 -5 1 -3 3 -6 6 -8 3 -6 2 -2 -1 -2 0 -1 -3 1 -2 1 -2 1 -1 2 -3 2 -2 3 -1 2 -1 0 -3 1 -2 -2 0 -3 1 -5 2 -3 8 -5 3 -4 4 -2 2 -1 1 0 6 -2 0 0 2 1 2 2 1 3 0 5zm113 7l0 3 1 0 1 -1 4 -2 5 -4 1 -1 3 -2 1 -1 1 -2 1 0 2 -2 1 -1 2 -2 0 -1 -1 0 -3 1 -3 0 -1 1 -4 2 -3 2 -3 2 -1 1 -1 1 -1 3 -2 3zm-2 -15l2 -1 4 -4 5 -2 3 -2 2 0 0 0 3 0 2 -1 4 0 2 0 2 0 4 1 2 1 2 3 1 2 -1 3 -2 4 -4 3 -2 1 -1 2 -2 1 -2 1 -3 1 0 0 -1 1 -1 2 -2 0 -2 2 -1 1 -2 1 -2 3 -2 1 -2 0 -1 1 0 2 -1 1 -2 1 -1 0 -2 2 -2 0 -1 2 -1 4 1 2 0 1 1 0 6 0 3 0 5 -2 2 0 2 0 2 -3 2 -1 3 -1 1 -1 0 -1 1 -1 3 -1 2 -2 3 -1 2 -3 3 0 2 -3 2 -2 1 -1 1 0 1 2 0 -3 3 -2 2 -2 1 -3 2 -1 2 0 0 0 1 0 0 0 0 1 0 0 0 3 0 3 -2 3 -1 4 -1 1 -3 2 -1 1 -3 4 -3 2 -1 2 -1 -2 -1 1 -1 2 0 1 0 0 -3 2 -2 1 -2 0 -2 3 -4 2 -6 4 -2 0 -7 3 -2 0 -1 0 -2 -1 -3 0 -3 1 -1 -1 -2 -1 -3 -2 -2 -3 -1 0 -3 -8 -2 -1 -1 -1 0 -1 1 -4 1 -2 2 -2 1 -6 1 -1 1 -2 1 -2 2 -3 1 -2 0 -1 2 -2 2 -1 0 -1 1 -2 0 -1 1 -1zm57 5l2 0 1 -2 2 -1 2 -3 2 -2 2 -1 3 1 2 0 4 5 1 2 1 2 0 2 -1 6 -1 3 1 1 0 1 1 0 0 -1 2 -1 2 -2 3 -3 3 -2 2 -1 1 -2 2 -1 2 -2 2 -1 7 -3 2 -1 4 -1 0 0 3 1 2 0 3 3 1 1 1 3 1 3 0 2 0 2 0 2 0 2 -1 4 0 6 -2 4 0 0 0 1 0 0 2 2 1 4 0 0 1 0 2 0 2 -1 1 -2 2 -1 1 -2 1 -1 2 0 1 -2 0 0 3 -4 3 -1 5 -4 1 -2 2 -2 1 0 0 0 1 0 0 0 1 1 -1 2 0 4 0 0 0 2 -3 3 -4 5 -3 3 0 1 -2 0 -2 3 -4 3 -1 2 -2 1 -2 2 -2 1 -3 2 -3 0 -2 0 -4 -2 -1 0 -1 -1 -3 -4 -2 -2 -1 -3 0 -1 1 -3 -1 -3 0 -2 -1 -1 1 -2 0 -1 0 -6 0 -3 0 -3 0 -1 -1 -1 -1 0 0 0 -7 4 -4 2 -2 2 -1 1 -10 9 -3 2 -2 1 0 1 -1 2 -1 1 -3 3 -1 -2 -1 1 -1 2 -1 2 -2 1 -1 2 -1 0 -2 1 -2 2 -2 2 -2 0 -3 -2 -1 -2 -1 -4 2 -10 1 -2 2 -1 0 -2 2 -2 2 -3 2 0 1 -3 3 -6 0 -3 -3 3 -2 0 -1 3 -2 0 -2 2 -4 2 -2 3 -3 2 -2 -1 0 -2 -1 -1 3 -8 1 -2 6 -3 1 -2 4 -2zm137 19l0 -1 4 -4 1 -2 2 -1 3 -4 2 -2 2 -3 -2 1 -2 0 -1 0 -7 -1 0 0 -2 1 -4 2 -6 3 -3 1 -1 2 -6 5 -1 2 -2 3 -1 2 -3 1 -1 3 -2 3 0 2 0 0 0 3 1 1 0 1 1 0 5 -2 10 -6 1 -2 9 -6 2 -1 1 -1zm-41 10l1 -2 1 0 -1 -2 1 -2 4 -7 1 -2 2 -2 2 -3 3 -3 4 -4 7 -5 6 -4 3 -2 3 -2 5 -1 4 -2 2 1 2 -1 0 0 3 1 3 3 1 2 0 3 1 2 2 -1 2 -4 2 -2 4 -1 3 1 1 1 1 4 -1 5 -2 6 -3 4 -2 7 -1 1 0 4 -1 4 1 1 0 0 1 0 0 0 2 -1 3 -3 2 -1 4 -4 1 -1 1 -2 4 -3 2 -2 1 -2 1 0 1 0 1 1 1 3 -1 3 -2 3 0 4 -2 1 -4 5 -2 1 -2 3 -3 1 -1 2 -2 0 -1 2 -3 2 -5 1 -2 0 -2 -1 -2 -1 -1 -3 -2 -2 0 -1 0 -1 1 -2 -1 -1 0 -2 0 -3 0 0 0 -2 0 -3 0 0 -2 2 -2 0 -2 3 -1 2 -1 1 -2 1 -2 2 -2 0 -1 2 -1 1 -7 6 -3 3 -3 2 -8 5 -4 1 -5 -2 -4 -3 0 -1 -1 -3 -1 -3 0 -3 0 -2 0 0 0 -3zm91 -28l1 -1c2,0 3,-1 4,-3l0 -1c3,0 5,-1 6,-3 1,-1 2,-2 5,-3 3,-1 4,-1 4,-1 1,0 2,1 4,2 2,1 3,4 3,7 0,3 -1,5 -2,8l0 3 0 1c-1,1 -2,2 -2,3l0 1 0 3 -1 1c0,0 0,1 0,1 0,1 0,1 0,1 0,1 0,1 1,0 0,1 0,3 -1,5 0,0 0,0 1,0l0 0c0,-1 1,-1 2,-1l1 -1c0,-1 0,-1 0,-2l1 0c1,0 1,0 1,0 0,0 1,-1 3,-3 3,-1 4,-2 5,-3 0,-1 1,-2 2,-2 1,0 1,0 2,-1 0,-1 1,-1 1,-2 1,-1 2,-1 2,-1 1,-1 2,-1 3,-1 0,0 2,-1 4,-3 1,0 1,0 3,-2l1 -4 1 -5 1 -2 4 -3 5 -2c0,0 1,0 1,0 2,0 3,1 5,2 1,2 2,4 2,6 0,1 0,2 0,3 0,0 -1,1 -1,2l-1 2 -1 3 -2 0 0 3 -2 1 -1 3 -5 8 -2 4 -1 2 -2 9 -1 4 1 1 1 0 0 0 5 -5 4 -1 4 -5 2 -1 2 -1 1 -1 2 -1 1 -2 4 -4 6 -6 1 0 1 1 1 1 0 0 0 1 -1 4 0 2 0 2 -1 0 -2 2 -3 2 -1 3 -2 1 -1 1 -2 0 -2 4 -1 0 0 1 -2 0 -1 1 -2 1 -1 1 -1 1 -1 1 -1 1 -1 1 -4 3 -8 2 -4 -1 -3 -4 -2 -7 0 -2 1 -5 1 -5 0 -2 3 -7 1 -3c-1,1 -2,2 -4,2 0,1 0,1 -1,1 0,1 -1,1 -2,2 0,1 -1,2 -1,2l-1 0c-1,0 -1,1 -1,3 -1,1 -2,2 -4,2 0,1 0,1 -1,2 0,1 -1,2 -2,2 -2,1 -3,2 -4,3l-6 2c-1,3 -1,5 -1,6 0,1 0,2 0,3 0,0 0,1 0,2 -1,1 -1,2 -1,2 0,0 -1,1 -2,1 -1,1 -2,1 -3,1 -5,0 -9,-2 -10,-5 0,-3 -1,-6 -1,-9 1,-4 2,-8 2,-10 1,-2 1,-4 1,-6 0,-2 1,-4 1,-5l1 -4 1 -1c0,-1 1,-2 1,-3l0 -2c0,-1 0,-2 -1,-2 -1,0 -1,1 -2,2l0 1c-2,-1 -3,-1 -3,-1 -1,0 -1,1 -1,3 -1,1 -1,2 -2,2 -1,0 -3,1 -4,3l0 1c-1,0 -1,0 -2,0 0,2 -1,3 -2,3 0,0 0,-1 -1,-2 0,0 -1,-1 -1,-1 -1,-1 -1,-1 -1,-2 0,-2 1,-4 4,-6 1,-1 1,-2 1,-2 0,-1 1,-1 3,-1 0,0 1,-1 1,-2zm132 18l1 -1 4 -4 1 -2 2 -1 3 -4 2 -2 2 -3 -3 1 -1 0 -1 0 -7 -1 0 0 -2 1 -5 2 -6 3 -2 1 -1 2 -6 5 -1 2 -3 3 0 2 -3 1 -1 3 -2 3 0 2 0 0 0 3 1 1 0 1 1 0 4 -2 10 -6 2 -2 9 -6 1 -1 1 -1zm-40 10l0 -2 1 0 0 -2 1 -2 4 -7 1 -2 2 -2 2 -3 3 -3 4 -4 6 -5 7 -4 3 -2 3 -2 5 -1 4 -2 2 1 1 -1 1 0 2 1 4 3 0 2 1 3 1 2 1 -1 3 -4 2 -2 4 -1 2 1 2 1 1 4 -1 5 -3 6 -2 4 -2 7 -1 1 0 4 -1 4 1 1 0 0 1 0 0 0 2 -1 3 -3 2 -1 3 -4 1 -1 2 -2 3 -3 3 -2 1 -2 1 0 1 0 1 1 0 3 0 3 -2 3 -1 4 -1 1 -4 5 -2 1 -2 3 -3 1 -1 2 -2 0 -1 2 -3 2 -5 1 -2 0 -2 -1 -2 -1 -2 -3 -1 -2 0 -1 0 -1 1 -2 -1 -1 0 -2 0 -3 0 0 0 -2 0 -3 0 0 -2 2 -3 0 -1 3 -2 2 -1 1 -1 1 -2 2 -2 0 -1 2 -1 1 -7 6 -3 3 -3 2 -8 5 -4 1 -6 -2 -3 -3 -1 -1 0 -3 -2 -3 0 -3 1 -2 0 0 0 -3zm221 -57l1 -1 0 -1 0 0 0 -1 0 0 4 -5 0 -1 1 -2 1 0 1 -1 0 -3 3 -5 4 -10 2 -4 4 -6 2 -2 3 -2 3 -2 5 0 1 -1 1 1 2 0 2 2 2 2 0 2 0 1 -1 3 -2 4 -2 3 -2 1 0 3 -1 1 -1 3 -2 3 0 2 -3 7 -2 7 0 1 0 0 -2 0 1 3 -2 3 0 3 -1 3 -1 3 -1 2 -1 2 -2 3 -7 17 0 2 -1 1 0 2 -1 1 0 3 -1 2 -1 5 -1 4 1 2 0 4 1 3 3 -2 1 -1 3 -1 0 -1 4 -5 2 -2 2 -4 2 0 3 -5 7 -6 1 -3 2 -4 3 -3 0 0 2 0 1 2 0 1 -2 8 0 2 -2 1 -2 2 -3 3 -7 8 -1 1 -3 5 -2 1 -2 5 -3 1 -3 3 -2 1 -3 1 -2 1 -2 0 -1 1 -3 -2 -4 -2 0 -1 -2 -3 -1 -3 0 -5 -1 -5 2 -14 0 -4 10 -20 1 -6 0 -1 -1 0 0 1 -1 2 -2 1 0 0 0 2 -1 0 0 1 -5 7 -3 6 -1 2 -1 0 -1 0 -1 0 -1 3 -2 1 -1 3 -8 6 -1 1 -1 1 -2 -2 -1 2 0 1 -3 0 -2 0 0 0 -3 -1 -4 -3 -3 -3 -3 -4 -2 -3 -1 -3 -2 -3 0 -3 0 -4 0 -2 0 -1 2 -8 0 -2 2 -7 1 -5 0 -1 0 0 3 -4 0 -1 1 -3 0 0 2 -2 -1 -4 2 -4 2 -3 2 -6 4 -5 1 -2 1 -1 1 1 1 -1 -1 -2 2 -3 1 0 1 1 -1 -3 1 -7 0 0 0 -1 -1 -1 -1 -1 -2 1 -1 -2 -1 2 0 0 -1 1 0 0 -2 -1 -4 2 -3 0 -1 2 -3 1 -2 2 -2 1 -2 1 -2 2 -2 1 -2 2 -1 3 -2 2 -2 2 0 0 0 6 0 0 -2 2 -1 1 -3 1 -4 -1 -2 -2 0 -2 0 -5 1 -4 2 -2 4 -4 4 -3 4 -4 7 -3 2 -2 7 -3 3 -2 0 0 2 0 3 -2 2 0 2 -2 7 -1 8 1 2 1 3 3 2 8 0 2 -2 7 -4 8 -5 9 -1 3 -2 4 -1 3 0 4 -3 4 0 3 -2 6 -1 5 -2 2 -1 7 -3 9 0 5 -1 6 1 2 0 1 2 1 3 -2 2 -2 5 -5 2 -2 2 -3 4 1 0 -3 0 -2 1 0 1 0 1 -1 1 -2 1 -3 7 -8 3 -5 0 0 1 -1zm50 38l0 3 0 0 2 -1 4 -2 4 -4 2 -1 2 -2 2 -1 0 -2 2 0 2 -2 1 -1 2 -2 0 -1 -1 0 -3 1 -3 0 -2 1 -3 2 -3 2 -3 2 -2 1 0 1 -1 3 -2 3zm-3 -15l2 -1 5 -4 5 -2 3 -2 1 0 1 0 3 0 2 -1 3 0 3 0 1 0 5 1 2 1 2 3 0 2 0 3 -3 4 -3 3 -2 1 -2 2 -1 1 -2 1 -3 1 0 0 -1 1 -2 2 -1 0 -2 2 -1 1 -2 1 -3 3 -1 1 -2 0 -1 1 0 2 -2 1 -1 1 -1 0 -2 2 -3 0 0 2 -1 4 0 2 1 1 1 0 6 0 3 0 5 -2 2 0 2 0 2 -3 2 -1 2 -1 1 -1 1 -1 1 -1 3 -1 2 -2 3 -1 2 -3 3 0 1 -3 3 -2 1 -1 1 0 1 2 0 -3 2 -2 3 -2 1 -3 2 -1 2 0 0 0 0 0 1 0 0 1 0 0 -1 3 1 3 -2 3 -1 4 -2 1 -2 2 -1 1 -3 4 -3 2 -1 2 -1 -2 -1 1 -1 2 0 1 -1 0 -3 2 -1 1 -2 0 -2 3 -5 2 -5 4 -2 0 -7 3 -2 0 -2 0 -1 -1 -3 0 -3 1 -1 -1 -2 -1 -4 -2 -1 -3 -2 0 -2 -6 -2 -2 -1 0 0 -2 1 -3 1 -3 1 -2 2 -7 1 -1 1 -2 1 -2 1 -3 1 -2 1 -1 2 -2 2 -1 0 -1 0 -2 1 -1 0 -1zm72 35l0 3 1 0 2 -2 2 -2 2 0 2 -1 4 -1 3 1 1 2 3 -1 3 -2 3 -1 0 -2 5 -4 0 -2 5 -5 1 -3 2 -3 1 -4 1 -2 0 -2 -1 -2 -2 1 -3 -1 -1 2 -2 0 -2 1 -2 1 -1 1 -2 1 -2 0 -2 2 -1 1 -1 2 -3 1 -1 2 -4 3 -6 8 -2 1 1 2 -3 3 -1 2zm-42 66l0 4 4 -5 3 -6 2 -4 3 -8 7 -21 0 0 -2 2 -2 0 -1 5 -2 1 -1 2 -1 3 -1 2 -1 2 -1 2 -2 3 -1 0 0 2 0 2 -1 1 -1 3 0 3 -2 7zm35 -89l0 -4 -3 0 0 3 -1 2 0 0 -4 0 -1 2 0 1 -1 0 -3 3 -5 5 -2 1 -1 0 -1 0 -2 -2 0 -3 0 -2 1 -1 1 -1 3 -2 2 -2 3 -3 2 -2 2 -1 2 0 0 -3 2 0 3 -2 1 -1 1 -2 4 -4 2 -4 2 -2 2 0 2 0 3 3 2 3 0 4 0 3 -2 11 0 2 0 0 2 -2 4 -4 2 -2 2 -2 6 -4 3 -1 0 -2 2 -1 6 -4 5 -1 2 -1 2 1 1 -1 2 0 1 0 3 2 2 2 2 4 0 3 0 0 0 3 0 2 -1 1 0 2 -1 4 -1 4 -2 3 -2 4 -3 2 -1 2 2 0 2 -2 2 -1 1 -1 2 0 2 -3 3 -1 4 -3 1 -2 2 0 2 -2 2 -2 5 -4 1 0 2 -1 1 0 0 1 0 1 0 0 -1 2 0 3 -1 2 -1 2 -2 0 -1 1 -3 4 -3 2 -1 2 -1 1 0 0 -2 -1 -2 3 -2 0 -2 3 -2 1 -2 1 -5 5 -1 0 -2 0 -2 3 -2 2 -2 0 -3 2 -2 -1 -2 2 -2 1 -1 0 -3 0 -7 4 -2 0 -1 0 -2 0 0 0 -1 1 -3 0 -2 1 0 0 -2 -1 -3 -4 -2 -2 -1 -1 -3 2 0 3 -1 3 -1 2 -2 5 -1 2 0 2 -2 2 0 3 -2 3 -2 10 -2 1 -1 4 -3 6 -1 3 -2 7 -1 2 -2 3 -2 4 -2 3 -3 2 -4 3 0 0 -3 -1 -1 0 0 -1 -3 -4 -1 -3 -1 -2 -1 -7 0 -2 2 -9 3 -6 1 -3 0 0 2 -2 5 -10 6 -9 1 -2 1 -2 0 -1 2 -1 1 -2 1 -1 2 -3 1 -2 2 -1 1 -1 1 -1 1 -2 0 -2 8 -24 1 -5zm77 -6l0 -1c3,0 4,-1 5,-3l0 -1c2,0 4,-1 5,-3 1,-1 3,-2 6,-3 2,-1 4,-1 4,-1 0,0 2,1 4,2 2,1 3,4 3,7 0,3 -1,5 -2,8l0 3 0 1c-2,1 -2,2 -2,3l0 1 0 3 -1 1c-1,0 -1,1 -1,1 0,1 0,1 0,1 1,1 1,1 1,0 0,1 0,3 0,5 0,0 0,0 0,0l1 0c0,-1 0,-1 1,-1l1 -1c0,-1 0,-1 1,-2l1 0c1,0 1,0 0,0 0,0 1,-1 4,-3 2,-1 4,-2 4,-3 1,-1 2,-2 2,-2 1,0 2,0 2,-1 1,-1 1,-1 2,-2 1,-1 1,-1 2,-1 1,-1 1,-1 2,-1 1,0 2,-1 5,-3 0,0 1,0 2,-2l1 -4 1 -5 2 -2 3 -3 6 -2c0,0 0,0 0,0 2,0 4,1 5,2 2,2 3,4 3,6 0,1 0,2 0,3 -1,0 -1,1 -2,2l0 2 -2 3 -1 0 0 3 -2 1 -1 3 -6 8 -1 4 -2 2 -1 9 -1 4 1 1 0 0 1 0 4 -5 4 -1 4 -5 2 -1 2 -1 2 -1 1 -1 2 -2c5,-5 11,-3 10,1l-1 2 -4 2 -1 3 -1 1 -1 1 -2 0 -2 4 -1 0 -1 1 -1 0 -2 1 -1 1 -1 1 -1 1 -2 1 -1 1 0 1 -4 3 -8 2 -4 -1 -3 -4 -2 -7 0 -2 0 -5 2 -5 0 -2 3 -7 1 -3c-1,1 -3,2 -4,2 0,1 -1,1 -1,1 -1,1 -1,1 -2,2 -1,1 -1,2 -2,2l-1 0c0,0 -1,1 -1,3 0,1 -1,2 -3,2 0,1 -1,1 -1,2 -1,1 -2,2 -3,2 -1,1 -2,2 -4,3l-5 2c-1,3 -1,5 -1,6 0,1 0,2 0,3 0,0 0,1 -1,2 0,1 0,2 0,2 0,0 -1,1 -2,1 -1,1 -2,1 -3,1 -6,0 -9,-2 -10,-5 -1,-3 -1,-6 -2,-9 1,-4 2,-8 3,-10 0,-2 1,-4 1,-6 0,-2 0,-4 1,-5l1 -4 0 -1c1,-1 1,-2 2,-3l0 -2c0,-1 0,-2 -1,-2 -1,0 -2,1 -2,2l-1 1c-2,-1 -2,-1 -2,-1 -1,0 -1,1 -2,3 0,1 -1,2 -2,2 -1,0 -2,1 -3,3l-1 1c0,0 -1,0 -1,0 -1,2 -2,3 -2,3 0,0 -1,-1 -1,-2 -1,0 -1,-1 -2,-1 0,-1 -1,-1 -1,-2 0,-2 2,-4 5,-6 0,-1 1,-2 1,-2 0,-1 1,-1 3,-1 0,0 0,-1 1,-2zm107 44l-5 2 0 0 -3 0 -1 0 0 1 -2 0 -2 0 -2 1 0 0 -2 -1 -4 -4 -1 -2 -2 -1 3 -8 0 0 2 -2 3 -2 1 0 2 -1 5 -1 3 1 1 2 1 3 1 1 7 -5 3 -1 1 -2 9 -5 3 -4 -2 1 -2 0 -1 2 -4 2 -6 1 -7 -1 -2 -4 -1 -4 0 -5 1 -4 2 -3 2 -3 2 -3 6 -4 5 -4 2 -1 3 -1 3 -1 2 -1 4 -1 3 1 5 0 4 1 3 4 3 2 1 5 -1 6 -3 3 -1 3 -2 2 0 2 -2 4 -2 4 -1 4 -1 2 0 4 1 2 0 1 1 1 2 1 3 0 5 -1 6 -2 3 0 1 -2 3 -1 2 -1 2 -2 1 -1 3 -1 1 -2 1 -1 1 0 1 -1 2 -2 3 -1 2 -1 1 -2 2 -1 2 -1 0 2 1 -4 1 -1 1 -1 2 0 1 -2 1 -2 3 -2 2 1 -1 3 1 4 -3 3 0 4 -2 1 -2 2 -2 0 -2 4 -2 2 -2 2 -1 -1 -1 1 -2 3 -2 1 -2 2 -2 0 -3 4 -4 1 -5 3 -3 1 -6 3 -2 0 -1 0 -2 -2 -7 1 -2 -1 -3 -2 -2 -3 -1 0 -1 -2 -2 -5 -2 -5 0 -2 -2 1 -2 2 -2 0 -2 3 -6 5 -5 5 -5 3 0 1zm28 -42l0 -1 3 -2 0 -1 1 -1 2 -3 2 -2 1 -1 -2 0 -1 0 -1 0 -4 0 0 0 -2 1 -3 1 -4 3 -1 1 -2 1 -3 3 -1 2 -1 1 -1 2 -2 1 0 2 -1 2 0 1 0 0 0 2 0 1 1 0 0 0 3 -1 7 -5 1 -1 6 -4 1 -1 1 -1zm55 13l2 -4 1 -1 1 -2 1 -1 1 -2 5 -6 5 -7 6 -7 1 -3 2 -4 4 -2 5 -1 5 2 0 4 -3 5 -3 4 -1 2 -3 7 0 2 -1 2 -1 1 -2 2 0 2 -1 4 0 2 -2 1 0 4 1 0 0 -2 2 -1 2 -1 1 -3 3 -3 6 -6 1 -2 2 0 0 -2 5 -5 2 -2 2 -2 2 0 2 -3 3 -2 5 -2 0 0 2 0 3 0 2 2 2 1c4,11 -14,13 -14,13l0 -1 -1 0 0 0 -2 1 -2 2 -2 1 -1 1 -1 2 0 0 -3 0 -2 3 -3 1 -1 3 -3 1 -1 3 -4 4 -1 2 -2 0 -2 3 -1 1 -1 2 0 1 -2 0 -1 3 -3 3 -1 3 -4 4 -4 2 -2 0 -2 -2 -1 -1 0 -1 0 -5 1 -3 2 -7 2 -4 3 -7 0 0 0 -1 0 0 0 0 -1 0 -4 4 -4 -1 -2 -1zm41 0l0 1 -4 2 0 2 -1 1 1 2 1 1 2 1 1 2 4 9 2 3 2 3 1 1 1 1 1 0 3 1 1 0 3 0 1 -1 3 -1 2 -2 1 0 0 0 1 -1 4 -3 2 -1 2 -2 3 -2 5 -6 3 -1 1 -2 3 -3 2 1 1 -2 1 -4 0 -2 1 -4 0 0 0 0 -1 -1 -1 0 -1 0 -1 1 -3 3 -2 1 -1 2 -3 2 -1 2 -2 0 -1 0 -1 1 -1 2 -5 3 -2 2 -2 1 -3 1 -1 2 -3 -1 -3 -2 -2 -2 -2 -5c-2,-3 -8,-10 -12,-6zm94 3l1 -1 4 -4 1 -2 1 -1 4 -4 2 -2 1 -3 -2 1 -1 0 -2 0 -6 -1 0 0 -2 1 -5 2 -6 3 -2 1 -2 2 -5 5 -1 2 -3 3 -1 2 -2 1 -1 3 -2 3 0 2 0 0 0 3 1 1 0 1 1 0 4 -2 10 -6 1 -2 10 -6 1 -1 1 -1zm-41 10l1 -2 1 0 0 -2 1 -2 4 -7 0 -2 3 -2 2 -3 3 -3 4 -4 6 -5 6 -4 4 -2 3 -2 5 -1 3 -2 2 1 2 -1 1 0 2 1 3 3 1 2 1 3 1 2 1 -1 2 -4 3 -2 4 -1 2 1 2 1 0 4 0 5 -3 6 -2 4 -3 7 -1 1 0 4 0 4 0 1 1 0 0 0 1 0 1 -1 4 -3 2 -1 3 -4 1 -1 2 -2 3 -3 2 -2 2 -2 1 0 1 0 1 1 0 3 0 3 -2 3 -1 4 -1 1 -5 5 -1 1 -3 3 -2 1 -1 2 -2 0 -1 2 -3 2 -6 1 -2 0 -2 -1 -2 -1 -1 -3 -1 -2 0 -1 0 -1 0 -2 -1 -1 0 -2 0 -3 0 0 1 -2 0 -3 -1 0 -2 2 -2 0 -1 3 -2 2 -1 1 -2 1 -2 2 -1 0 -1 2 -1 1 -8 6 -2 3 -3 2 -9 5 -3 1 -6 -2 -3 -3 -1 -1 -1 -3 -1 -3 0 -3 0 -2 0 0 0 -3z"/>
  <polygon class="fil2" points="539,136 558,136 571,167 584,136 603,136 603,194 589,194 589,152 575,183 566,183 553,152 553,194 539,194 "/>
  <polygon id="1" class="fil2" points="656,136 696,136 696,148 671,148 671,158 694,158 694,169 671,169 671,183 697,183 697,194 656,194 "/>
  <path id="2" class="fil2" d="M767 183l16 0 0 -35 -12 0 0 3c0,16 -1,27 -4,32zm-17 0c3,-2 4,-4 5,-7 1,-3 1,-12 1,-29l0 -11 42 0 0 47 8 0 0 23 -11 0 0 -12 -38 0 0 12 -11 0 0 -23 4 0z"/>
  <polygon id="3" class="fil2" points="908,136 908,194 894,194 894,154 873,194 857,194 857,136 871,136 871,176 892,136 "/>
  <polygon id="4" class="fil2" points="1011,194 961,194 961,136 976,136 976,183 998,183 998,136 1013,136 1013,183 1023,183 1023,206 1011,206 "/>
  <polygon id="5" class="fil2" points="1125,136 1125,194 1111,194 1111,154 1090,194 1073,194 1073,136 1087,136 1087,176 1108,136 "/>
  <polygon id="6" class="fil2" points="1178,136 1193,136 1193,158 1214,158 1214,136 1229,136 1229,194 1214,194 1214,169 1193,169 1193,194 1178,194 "/>
  <path id="7" class="fil2" d="M1328 191c-3,1 -6,2 -9,3 -3,0 -6,1 -9,1 -10,0 -17,-3 -23,-8 -5,-6 -8,-13 -8,-22 0,-9 3,-16 8,-22 6,-5 13,-8 23,-8 3,0 6,1 9,1 3,1 6,2 9,4l0 11c-3,-1 -6,-3 -8,-4 -3,-1 -6,-1 -9,-1 -5,0 -9,2 -12,5 -3,3 -5,8 -5,14 0,6 2,11 5,14 3,3 7,5 12,5 3,0 6,0 9,-1 2,-1 5,-2 8,-4l0 12z"/>
  <polygon id="8" class="fil2" points="1379,136 1393,136 1393,160 1417,136 1433,136 1411,160 1435,194 1418,194 1401,169 1393,177 1393,194 1379,194 "/>
  <polygon id="9" class="fil2" points="1533,136 1533,194 1519,194 1519,154 1498,194 1482,194 1482,136 1496,136 1496,176 1517,136 "/>
  <path id="10" class="fil2" d="M1638 136l0 58 -14 0 0 -40 -21 40 -17 0 0 -58 14 0 0 40 21 -40 17 0zm-40 -15l5 0c1,1 2,2 3,3 1,1 3,1 5,1 2,0 3,0 4,-1 2,-1 2,-2 3,-3l6 0c-1,3 -2,6 -4,7 -3,2 -6,3 -9,3 -4,0 -7,-1 -9,-3 -3,-1 -4,-4 -4,-7z"/>
  <polygon id="11" class="fil2" points="1812,194 1762,194 1762,136 1777,136 1777,183 1798,183 1798,136 1813,136 1813,183 1823,183 1823,206 1812,206 "/>
  <polygon id="12" class="fil2" points="1873,136 1913,136 1913,148 1888,148 1888,158 1912,158 1912,169 1888,169 1888,183 1914,183 1914,194 1873,194 "/>
  <polygon id="13" class="fil2" points="1966,136 1981,136 1981,158 2002,158 2002,136 2017,136 2017,194 2002,194 2002,169 1981,169 1981,194 1966,194 "/>
  <polygon id="14" class="fil2" points="2064,136 2116,136 2116,148 2097,148 2097,194 2083,194 2083,148 2064,148 "/>
  <path id="15" class="fil2" d="M2163 136l24 0c8,0 13,2 17,5 4,3 6,8 6,14 0,6 -2,11 -6,14 -4,3 -9,5 -17,5l-9 0 0 20 -15 0 0 -58zm15 11l0 16 8 0c3,0 5,-1 6,-2 2,-1 3,-3 3,-6 0,-3 -1,-5 -3,-6 -1,-1 -3,-2 -6,-2l-8 0z"/>
  <polygon id="16" class="fil3 str0" points="539,136 558,136 571,167 584,136 603,136 603,194 589,194 589,152 575,183 566,183 553,152 553,194 539,194 "/>
  <polygon id="17" class="fil3 str0" points="656,136 696,136 696,148 671,148 671,158 694,158 694,169 671,169 671,183 697,183 697,194 656,194 "/>
  <path id="18" class="fil3 str0" d="M767 183l16 0 0 -35 -12 0 0 3c0,16 -1,27 -4,32zm-17 0c3,-2 4,-4 5,-7 1,-3 1,-12 1,-29l0 -11 42 0 0 47 8 0 0 23 -11 0 0 -12 -38 0 0 12 -11 0 0 -23 4 0z"/>
  <polygon id="19" class="fil3 str0" points="908,136 908,194 894,194 894,154 873,194 857,194 857,136 871,136 871,176 892,136 "/>
  <polygon id="20" class="fil3 str0" points="1011,194 961,194 961,136 976,136 976,183 998,183 998,136 1013,136 1013,183 1023,183 1023,206 1011,206 "/>
  <polygon id="21" class="fil3 str0" points="1125,136 1125,194 1111,194 1111,154 1090,194 1073,194 1073,136 1087,136 1087,176 1108,136 "/>
  <polygon id="22" class="fil3 str0" points="1178,136 1193,136 1193,158 1214,158 1214,136 1229,136 1229,194 1214,194 1214,169 1193,169 1193,194 1178,194 "/>
  <path id="23" class="fil3 str0" d="M1328 191c-3,1 -6,2 -9,3 -3,0 -6,1 -9,1 -10,0 -17,-3 -23,-8 -5,-6 -8,-13 -8,-22 0,-9 3,-16 8,-22 6,-5 13,-8 23,-8 3,0 6,1 9,1 3,1 6,2 9,4l0 11c-3,-1 -6,-3 -8,-4 -3,-1 -6,-1 -9,-1 -5,0 -9,2 -12,5 -3,3 -5,8 -5,14 0,6 2,11 5,14 3,3 7,5 12,5 3,0 6,0 9,-1 2,-1 5,-2 8,-4l0 12z"/>
  <polygon id="24" class="fil3 str0" points="1379,136 1393,136 1393,160 1417,136 1433,136 1411,160 1435,194 1418,194 1401,169 1393,177 1393,194 1379,194 "/>
  <polygon id="25" class="fil3 str0" points="1533,136 1533,194 1519,194 1519,154 1498,194 1482,194 1482,136 1496,136 1496,176 1517,136 "/>
  <path id="26" class="fil3 str0" d="M1638 136l0 58 -14 0 0 -40 -21 40 -17 0 0 -58 14 0 0 40 21 -40 17 0zm-40 -15l5 0c1,1 2,2 3,3 1,1 3,1 5,1 2,0 3,0 4,-1 2,-1 2,-2 3,-3l6 0c-1,3 -2,6 -4,7 -3,2 -6,3 -9,3 -4,0 -7,-1 -9,-3 -3,-1 -4,-4 -4,-7z"/>
  <polygon id="27" class="fil3 str0" points="1812,194 1762,194 1762,136 1777,136 1777,183 1798,183 1798,136 1813,136 1813,183 1823,183 1823,206 1812,206 "/>
  <polygon id="28" class="fil3 str0" points="1873,136 1913,136 1913,148 1888,148 1888,158 1912,158 1912,169 1888,169 1888,183 1914,183 1914,194 1873,194 "/>
  <polygon id="29" class="fil3 str0" points="1966,136 1981,136 1981,158 2002,158 2002,136 2017,136 2017,194 2002,194 2002,169 1981,169 1981,194 1966,194 "/>
  <polygon id="30" class="fil3 str0" points="2064,136 2116,136 2116,148 2097,148 2097,194 2083,194 2083,148 2064,148 "/>
  <path id="31" class="fil3 str0" d="M2163 136l24 0c8,0 13,2 17,5 4,3 6,8 6,14 0,6 -2,11 -6,14 -4,3 -9,5 -17,5l-9 0 0 20 -15 0 0 -58zm15 11l0 16 8 0c3,0 5,-1 6,-2 2,-1 3,-3 3,-6 0,-3 -1,-5 -3,-6 -1,-1 -3,-2 -6,-2l-8 0z"/>
 </g>
</svg>
