<?xml version="1.0" encoding="UTF-8"?>
<!DOCTYPE svg PUBLIC "-//W3C//DTD SVG 1.1//EN" "http://www.w3.org/Graphics/SVG/1.1/DTD/svg11.dtd">
<!-- Creator: CorelDRAW X7 -->
<svg xmlns="http://www.w3.org/2000/svg" xml:space="preserve" width="213px" height="60px" version="1.1" style="shape-rendering:geometricPrecision; text-rendering:geometricPrecision; image-rendering:optimizeQuality; fill-rule:evenodd; clip-rule:evenodd"
viewBox="0 0 212 60"
 xmlns:xlink="http://www.w3.org/1999/xlink">
 <defs>
  <style type="text/css">
   <![CDATA[
    .fil0 {fill:#14C83F}
    .fil1 {fill:#3C2D19}
    .fil2 {fill:#3C2D19;fill-rule:nonzero}
   ]]>
  </style>
 </defs>
 <g id="Layer_x0020_1">
  <metadata id="CorelCorpID_0Corel-Layer"/>
  <path class="fil0" d="M36 12l-1 0c0,-1 0,-2 1,-3 0,-1 0,-1 1,-2 0,0 0,-1 1,-1 1,0 2,-1 4,-1 0,2 0,2 -1,4 0,0 0,1 -1,1 0,0 0,0 0,0 0,1 0,1 0,1 -1,1 -3,1 -4,1zm-28 14l-1 0c0,0 1,0 1,0 0,-1 2,-1 3,-1 0,0 -1,1 -1,1 -1,0 -2,0 -2,0zm44 -7c-1,0 0,0 -1,-1 0,0 0,0 0,0 1,0 1,0 2,0 0,0 1,0 1,0 -1,1 -1,1 -2,1zm-49 -3c0,0 1,0 1,0 0,1 0,1 1,1 1,0 1,1 3,0 0,0 0,0 0,0 0,-1 -1,-2 -2,-2 -1,-1 -3,0 -3,1zm36 15c0,0 0,0 0,-1 0,0 0,0 0,0 1,0 1,0 1,0 0,1 1,1 1,1 0,0 0,1 0,1 0,1 0,1 0,1 0,0 -1,0 -1,-1 -1,0 -1,0 -1,-1zm-33 7c0,0 0,0 0,-1 0,0 0,-1 1,-1 0,0 0,-1 0,-1 0,0 1,0 1,0 0,1 0,2 -1,3 0,0 0,0 -1,0zm-6 -13c0,0 0,0 1,0 1,1 2,1 4,0l1 0c1,-1 -1,-2 -1,-2 -1,0 -3,0 -4,0 0,0 -1,1 -1,2zm52 5l1 0c1,0 1,0 2,0 0,1 0,1 1,1 0,1 0,1 0,1 -1,0 -2,-1 -3,-1 0,0 0,0 0,-1 -1,0 -1,0 -1,0zm-8 -19c-1,0 -1,0 0,-1 0,-1 1,-1 2,-1l1 0c0,0 0,0 0,0 0,1 -2,2 -3,2zm-25 -6c0,-2 1,-3 1,-3 0,0 0,0 0,1 0,0 1,0 1,0 0,0 0,0 0,0 0,0 0,0 0,0 0,0 0,1 0,1 1,1 1,2 1,3 0,0 0,1 0,2 0,0 -1,-1 -1,-1 -1,0 -1,0 -1,-1 -1,0 -1,-1 -1,-1 0,0 0,-1 0,-1zm-8 29c0,0 0,0 0,0 0,0 0,0 0,0 0,-2 0,-3 1,-4 1,-1 2,-2 4,-2 0,1 0,2 -1,3 0,2 -1,3 -4,3zm35 -16l-1 0c-1,0 -1,0 -1,0 0,-1 0,-2 0,-2 1,-1 1,-1 2,-2 1,-1 2,-1 4,0 0,0 0,0 0,0 -1,1 -1,2 -2,2 0,1 -1,2 -2,2zm-38 -7c0,0 0,0 0,0 2,0 3,0 4,1 1,1 2,2 2,4 0,1 0,1 -2,0 -1,0 -2,-1 -3,-1 -1,-1 -1,-3 -1,-4zm-7 23c0,-1 0,-1 0,-2 1,-1 2,-2 2,-2 2,-1 3,-1 4,-1 0,0 1,1 1,1 0,0 -1,1 -1,2 -1,0 -1,1 -2,1 0,0 -1,1 -2,1 0,0 -1,0 -2,0zm44 -1l0 0c1,0 2,0 3,0 1,1 2,1 2,2 1,1 1,2 1,2l0 1c0,1 0,1 -1,1 0,0 -1,-1 -2,-1 0,0 -1,0 -1,-1 -2,-1 -2,-2 -2,-4zm-39 -12c0,0 0,0 0,-1 1,0 1,0 1,0 2,-1 3,-1 4,0 1,0 1,1 2,1 -1,0 -1,0 -1,1 0,0 -1,0 -1,0 -1,1 -3,1 -4,0l-1 -1 0 0zm7 -14c0,-1 1,-1 1,-2 0,0 1,1 1,1 0,1 0,2 0,3 0,0 0,1 -1,1 0,0 -1,-2 -1,-3zm33 15c0,0 0,0 0,0 3,-2 5,-2 7,0 1,1 1,1 1,1 0,0 1,2 2,3 -2,0 -4,0 -6,-1 -1,0 -2,-1 -3,-1 0,0 -1,-1 -1,-2zm-8 -4c0,0 0,0 -1,0 0,0 0,0 0,0 0,0 0,0 0,0 0,0 0,0 0,0 1,-2 2,-4 4,-3 0,0 0,0 1,0 -1,1 -1,1 -1,1l0 1c-1,1 -2,1 -3,1zm-12 -7c-1,-1 -1,-3 -1,-4 0,-1 0,-2 0,-3 1,-1 1,-2 2,-2 0,0 1,-1 1,-1l1 0c0,2 1,4 0,6 -1,1 -2,3 -3,4zm7 -5c0,0 -1,0 -1,0 0,-2 1,-4 3,-4 0,0 0,0 1,0 0,2 -1,3 -2,4 0,0 -1,0 -1,0zm9 21c1,0 1,-1 1,-1 1,0 3,0 4,1 0,0 0,1 0,1 0,0 1,1 1,1l-1 0c-1,0 -2,0 -2,0 -1,0 -2,-1 -2,-2 0,0 0,0 -1,0zm-24 -15c0,0 0,0 0,-1 0,0 0,0 0,0 0,0 1,0 1,0 2,1 2,3 2,5 0,0 0,0 0,1 -1,-1 -2,-2 -3,-3 0,-1 0,-1 0,-2z"/>
  <path class="fil1" d="M8 26l-1 0c0,0 1,0 1,0 0,-1 2,-1 3,-1 0,0 -1,1 -1,1 -1,0 -2,0 -2,0zm44 -7c-1,0 0,0 -1,-1 0,0 0,0 0,0 1,0 1,0 2,0 0,0 1,0 1,0 -1,1 -1,1 -2,1zm-2 -1c0,1 0,1 0,1 1,0 2,1 3,0 1,0 1,0 1,-1 0,0 -1,-2 -3,0 -1,0 -1,0 -1,0zm-14 36c0,0 1,0 1,0 0,0 0,0 1,-1 1,-1 2,-3 4,-3 0,0 0,0 0,0 1,-1 1,-1 0,-1 -1,0 -2,0 -3,1 0,0 0,1 0,1 -1,0 -1,1 -1,1 -1,0 -1,1 -1,1 0,0 -1,1 -1,1zm-32 -38c1,-1 3,-1 3,1 0,0 -1,0 -2,0 0,-1 -1,-1 -1,-1zm-1 0c0,0 1,0 1,0 0,1 0,1 1,1 1,0 1,1 3,0 0,0 0,0 0,0 0,-1 -1,-2 -2,-2 -1,-1 -3,0 -3,1zm36 15c0,0 0,0 0,-1 0,0 0,0 0,0 1,0 1,0 1,0 0,1 1,1 1,1 0,0 0,1 0,1 0,1 0,1 0,1 0,0 -1,0 -1,-1 -1,0 -1,0 -1,-1zm2 3c1,0 1,0 1,-1 0,0 0,-1 0,-2 -1,-1 -1,-1 -2,-1 0,-1 -1,-1 -1,-1 0,0 0,1 0,1 -1,1 0,3 1,3 0,1 1,1 1,1zm-35 4c0,0 0,0 0,-1 0,0 0,-1 1,-1 0,0 0,-1 0,-1 0,0 1,0 1,0 0,1 0,2 -1,3 0,0 0,0 -1,0zm0 -1c0,1 0,1 0,1 0,2 0,1 1,1 1,-1 2,-2 2,-4 0,-1 -1,-1 -2,-1 -1,1 -1,2 -1,3zm-3 -14c1,0 1,0 2,1 0,0 0,0 0,0 0,1 -1,1 -3,1 -1,0 -1,-1 -1,-1 0,0 1,0 1,0 0,0 1,-1 1,-1zm-3 2c0,0 0,0 1,0 1,1 2,1 4,0l1 0c1,-1 -1,-2 -1,-2 -1,0 -3,0 -4,0 0,0 -1,1 -1,2zm52 5l1 0c1,0 1,0 2,0 0,1 0,1 1,1 0,1 0,1 0,1 -1,0 -2,-1 -3,-1 0,0 0,0 0,-1 -1,0 -1,0 -1,0zm-1 -1c0,1 1,1 1,2 2,2 5,1 5,1 0,-1 -1,-2 -2,-2 -1,-1 -2,-1 -3,-1 -1,0 -1,0 -1,0zm-7 -18c-1,0 -1,0 0,-1 0,-1 1,-1 2,-1l1 0c0,0 0,0 0,0 0,1 -2,2 -3,2zm-1 0c0,1 0,1 0,1 1,0 2,0 3,-1 0,0 1,-1 1,-1 0,0 0,0 1,-1 0,-1 0,-1 -1,-1 -1,0 -2,0 -3,1 -1,0 -1,1 -1,1 0,0 0,1 0,1zm-24 -6c0,-2 1,-3 1,-3 0,0 0,0 0,1 0,0 1,0 1,0 0,0 0,0 0,0 0,0 0,0 0,0 0,0 0,1 0,1 1,1 1,2 1,3 0,0 0,1 0,2 0,0 -1,-1 -1,-1 -1,0 -1,0 -1,-1 -1,0 -1,-1 -1,-1 0,0 0,-1 0,-1zm-1 0c0,1 0,1 1,2 0,1 1,2 3,2 0,1 0,1 1,-1 0,0 0,-1 0,-1 0,-4 -3,-6 -3,-6 0,0 0,0 -1,1 0,0 0,0 0,0 0,1 -1,2 -1,3zm-7 29c0,0 0,0 0,0 0,0 0,0 0,0 0,-2 0,-3 1,-4 1,-1 2,-2 4,-2 0,1 0,2 -1,3 0,2 -1,3 -4,3zm-1 0c0,1 0,1 2,1 1,0 2,-1 3,-1 0,0 0,-1 0,-1 1,-1 1,-3 1,-4 0,-1 1,-1 -1,-1 0,0 -1,0 -2,0 -2,1 -3,3 -3,6zm36 -16l-1 0c-1,0 -1,0 -1,0 0,-1 0,-2 0,-2 1,-1 1,-1 2,-2 1,-1 2,-1 4,0 0,0 0,0 0,0 -1,1 -1,2 -2,2 0,1 -1,2 -2,2zm-1 0c1,0 2,0 3,0 1,-1 2,-2 2,-3 0,0 0,-1 0,-1 0,-1 0,-1 -1,-1 -2,-1 -4,0 -5,2 0,0 0,1 0,1 0,0 0,0 0,0 -1,1 -1,1 -1,2 0,0 0,0 0,0 1,0 1,0 2,0zm-37 -7c0,0 0,0 0,0 2,0 3,0 4,1 1,1 2,2 2,4 0,1 0,1 -2,0 -1,0 -2,-1 -3,-1 -1,-1 -1,-3 -1,-4zm6 5c0,-1 0,-3 -1,-3 0,-1 0,-1 -1,-2 -1,-1 -3,-1 -5,-1 0,0 0,0 0,1 0,1 0,2 1,3 0,1 0,1 1,1 1,2 3,2 5,2 0,0 0,0 0,0 0,-1 0,-1 0,-1zm-13 18c0,-1 0,-1 0,-2 1,-1 2,-2 2,-2 2,-1 3,-1 4,-1 0,0 1,1 1,1 0,0 -1,1 -1,2 -1,0 -1,1 -2,1 0,0 -1,1 -2,1 0,0 -1,0 -2,0zm-1 1c0,0 0,0 1,0 2,0 4,-1 6,-2 0,-1 1,-2 2,-3 0,0 0,0 0,0 0,0 -1,-1 -1,-1 0,0 -1,-1 -2,-1 0,0 0,0 -1,0 0,0 0,0 0,0 -1,0 -2,1 -2,1 -2,1 -2,2 -3,4 0,0 0,1 0,2zm45 -2l0 0c1,0 2,0 3,0 1,1 2,1 2,2 1,1 1,2 1,2l0 1c0,1 0,1 -1,1 0,0 -1,-1 -2,-1 0,0 -1,0 -1,-1 -2,-1 -2,-2 -2,-4zm-1 -1c0,3 1,6 4,7 1,0 2,0 4,0 0,0 0,0 0,0 0,-2 -1,-4 -2,-5 -1,-2 -3,-2 -5,-2 -1,0 -1,0 -1,0zm-38 -11c0,0 0,0 0,-1 1,0 1,0 1,0 2,-1 3,-1 4,0 1,0 1,1 2,1 -1,0 -1,0 -1,1 0,0 -1,0 -1,0 -1,1 -3,1 -4,0l-1 -1 0 0zm7 -14c0,-1 1,-1 1,-2 0,0 1,1 1,1 0,1 0,2 0,3 0,0 0,1 -1,1 0,0 -1,-2 -1,-3zm0 0c0,1 0,2 1,3 0,0 0,0 0,0 0,1 0,1 0,1 1,1 1,2 1,3 1,2 2,4 3,6l1 2c0,0 1,0 1,0l-1 0c-2,-1 -4,-1 -6,-1 0,-1 -1,-1 -1,-2 -1,0 -2,0 -3,0 -1,0 -1,0 -2,0 0,1 -1,1 -1,1 -1,1 -1,1 0,2 1,1 2,1 3,1 1,0 2,0 2,0 1,-1 1,-1 2,-1 0,-1 0,0 1,0 1,0 2,0 2,0 0,0 1,0 1,0 0,0 1,0 1,0 0,0 0,1 1,1l1 0c0,0 1,1 1,1 0,0 0,0 0,-1 0,0 0,-1 0,-1 -1,0 -1,-1 -2,-2 0,0 0,-1 -1,-1 0,-1 0,-1 0,-1l-1 -2c-1,-1 -1,-2 -2,-4 0,0 0,-1 0,-1 0,0 0,0 0,-1 1,-1 1,-2 1,-4 0,0 0,0 -1,-1 0,0 0,-1 -1,-1 0,0 -1,2 -1,3zm33 15c0,0 0,0 0,0 3,-2 5,-2 7,0 1,1 1,1 1,1 0,0 1,2 2,3 -2,0 -4,0 -6,-1 -1,0 -2,-1 -3,-1 0,0 -1,-1 -1,-2zm-8 -4c0,0 0,0 -1,0 0,0 0,0 0,0 0,0 0,0 0,0 0,0 0,0 0,0 1,-2 2,-4 4,-3 0,0 0,0 1,0 -1,1 -1,1 -1,1l0 1c-1,1 -2,1 -3,1zm-3 6c0,0 1,0 1,-1 3,-1 6,-1 9,0 0,0 0,0 0,0 1,0 1,1 2,1 1,1 3,3 5,3 2,0 2,0 4,-1 1,0 1,0 0,-1 0,-1 -1,-2 -2,-3 -1,-1 -1,-1 -2,-1 0,-1 0,-1 -1,-1 -1,0 -2,0 -4,0 0,1 -1,1 -2,2 0,0 0,0 -1,0 -2,-1 -4,-1 -6,0 -1,0 -1,0 -2,0l-1 1c0,-1 1,-3 1,-3 0,0 0,-1 0,-1 0,0 0,0 1,0 2,0 4,0 5,-3 0,0 0,-1 0,-1 0,-1 -1,-1 -1,-1 -2,0 -4,1 -5,4 0,0 0,0 0,1 -1,0 -1,1 -1,2 0,0 -1,3 -1,3 0,0 0,0 1,0zm-9 -13c-1,-1 -1,-3 -1,-4 0,-1 0,-2 0,-3 1,-1 1,-2 2,-2 0,0 1,-1 1,-1l1 0c0,2 1,4 0,6 -1,1 -2,3 -3,4zm7 -5c0,0 -1,0 -1,0 0,-2 1,-4 3,-4 0,0 0,0 1,0 0,2 -1,3 -2,4 0,0 -1,0 -1,0zm-9 0c0,2 1,4 1,5 0,0 0,0 0,1 0,0 1,2 1,3 0,3 1,6 1,9l1 1c0,1 0,1 0,1 1,0 1,-1 1,-1 0,0 0,-1 0,-1l0 -2c0,0 0,0 0,0 0,-1 0,-2 0,-4 0,-2 1,-5 2,-8 0,0 1,-2 1,-3 1,0 1,0 1,0 1,0 2,-1 3,-2 0,-1 0,-2 0,-3 0,-1 0,-1 -1,-1 0,0 -1,0 -1,1 -2,1 -2,3 -2,5 0,0 0,0 0,1l-1 0c-1,3 -2,7 -3,10 0,1 0,2 0,3l0 1c0,0 0,1 0,1 0,0 0,0 0,0l0 0c0,0 0,0 0,0 0,0 0,0 0,0 -1,-2 -1,-4 -1,-5 0,-1 0,-1 0,-2l-1 -3c0,0 0,0 0,0l0 -2c1,0 2,-1 2,-2l1 0c1,-2 1,-6 0,-8 0,0 0,0 0,-1 0,0 0,0 -1,0 0,0 -1,1 -1,1 -2,1 -3,3 -3,5zm18 21c1,0 1,-1 1,-1 1,0 3,0 4,1 0,0 0,1 0,1 0,0 1,1 1,1l-1 0c-1,0 -2,0 -2,0 -1,0 -2,-1 -2,-2 0,0 0,0 -1,0zm0 -1c0,0 -1,0 -2,0 -1,0 -2,0 -3,0 -4,2 -4,6 -4,9 1,3 1,8 4,10 1,1 4,2 6,2 1,0 2,0 2,0 1,1 2,2 2,3 0,1 -1,1 -1,2 0,0 -1,1 -1,2 -1,0 -2,1 -2,1 -1,1 -3,2 -4,2 -3,1 -5,2 -8,2 0,0 -1,0 -1,0 0,0 0,1 1,1 1,0 3,0 5,-1 1,0 1,0 2,-1 0,0 0,0 0,0 0,0 1,0 1,0 1,0 3,-1 3,-2 1,0 1,0 1,0l2 -2c1,-1 3,-2 3,-4l0 0c0,-2 -1,-3 -2,-3 -1,-1 -1,-1 -3,-1 0,0 -1,0 -1,0 -2,0 -4,-1 -5,-2 -2,-1 -2,-3 -3,-5 0,-2 0,-4 0,-6 0,-1 0,-3 1,-4 1,-2 4,-3 6,-2 1,0 1,0 1,0 1,2 3,3 5,3 0,0 1,0 1,0 0,0 1,0 1,0 0,-1 -1,-2 -1,-2 0,-1 -1,-1 -1,-2 -1,-1 -3,-1 -5,0l0 0zm-24 -14c0,0 0,0 0,-1 0,0 0,0 0,0 0,0 1,0 1,0 2,1 2,3 2,5 0,0 0,0 0,1 -1,-1 -2,-2 -3,-3 0,-1 0,-1 0,-2zm18 0l-1 0c0,-1 0,-2 1,-3 0,-1 0,-1 1,-2 0,0 0,-1 1,-1 1,0 2,-1 4,-1 0,2 0,2 -1,4 0,0 0,1 -1,1 0,0 0,0 0,0 0,1 0,1 0,1 -1,1 -3,1 -4,1zm-2 0c0,1 1,0 0,2l-1 1c-1,3 -2,5 -2,8 0,0 0,2 0,3 0,1 -1,3 -1,4l0 2c0,0 0,1 0,1 0,1 0,8 0,9 -1,1 -3,2 -4,-1l0 -1c0,-1 0,-1 0,-1 0,0 0,0 0,0 0,-1 0,-2 0,-3 0,-5 0,-10 -2,-15 0,-1 -1,-2 -1,-3l-1 -1c0,0 0,0 0,-1 0,-2 0,-3 -1,-4 0,0 0,0 0,0 0,0 0,-1 0,-1 -1,0 -2,-1 -3,-1 -1,0 -1,0 -1,1 0,3 1,5 4,6 0,0 1,1 1,1 1,3 2,5 3,8 0,2 1,5 1,8 0,1 0,2 0,2l0 5c0,1 0,1 0,2 1,0 1,0 1,0 1,1 2,1 3,0 1,-2 1,-14 1,-17 1,-2 1,-4 1,-6 1,-3 2,-5 3,-7 1,0 2,0 3,0 1,0 1,-1 2,-1 1,-1 1,-2 2,-3 0,-1 0,-2 0,-4 0,-1 0,-1 0,-1 -2,0 -4,1 -6,2 0,1 -1,2 -1,3 0,1 -1,2 -1,3zm-20 13c2,0 4,0 5,1 0,0 1,1 1,1 1,1 2,3 2,5 0,1 0,2 0,2 0,0 0,1 0,1 0,0 0,0 0,0 0,2 0,4 0,5 -1,2 -1,2 -1,3 -1,1 -1,1 -1,1 -2,2 -5,2 -7,2 -2,1 -3,0 -4,2 -1,2 0,4 1,5 1,1 1,1 1,1 1,1 1,1 2,1 0,1 1,1 1,1 1,1 2,1 3,2 0,0 0,0 1,0 0,0 1,1 2,1 2,0 2,0 4,0 0,0 1,0 1,0 2,0 3,0 5,-1 0,0 1,-1 1,-1 2,-1 2,0 3,-1 2,0 1,-2 -1,-2 -1,0 -2,0 -3,0 -1,0 -2,0 -2,0 -1,-1 -2,-1 -3,0 -1,0 0,1 0,1 -1,0 -3,0 -4,-1 0,0 0,0 0,0 0,0 0,0 0,0 -1,-1 -2,-2 -2,-2 -1,-1 -1,-1 -2,-2 -1,-1 -2,-1 -3,-1 0,0 0,0 0,0 0,1 1,0 2,2 1,0 1,0 1,0l1 1c1,1 2,2 2,2 2,1 3,2 5,2 0,0 0,0 0,0 1,0 0,-1 0,-1 0,-1 1,-1 1,-1 1,0 1,0 2,0 2,1 3,0 5,1 0,0 1,0 1,1 0,0 0,0 0,0 -1,0 -1,0 -1,0 -1,0 -2,1 -3,1 -2,1 -4,2 -5,2 -3,0 -4,-1 -6,-1 -1,-1 -2,-1 -2,-1 -2,-1 -4,-2 -5,-3 -1,-1 -1,-1 -1,-1 -1,-1 -1,-1 -1,-1 0,0 0,-1 -1,-1 0,-1 0,-1 0,-2 1,-1 2,-2 3,-2 4,0 9,-1 10,-5 0,-2 1,-7 1,-9 0,-3 -1,-6 -4,-8 -1,0 -2,0 -3,-1 -1,0 -3,0 -4,0 -1,1 -1,1 -1,1 -1,-1 -2,-1 -3,0 0,0 -1,0 -1,1 0,0 0,0 0,0 0,1 0,1 0,1 0,0 2,0 2,0 1,0 2,-1 2,-2 0,0 0,0 1,0 0,0 1,0 2,0z"/>
  <path class="fil2" d="M68 24l0 -14 2 0 0 14 -2 0zm11 0l0 -6c0,-1 0,-1 -1,-2 0,0 0,0 -1,0 0,0 -1,0 -1,0 -1,0 -1,1 -1,1l0 7 -2 0 0 -10 1 0 1 1c0,-1 1,-1 2,-1 2,0 3,0 3,1 1,1 1,2 1,3l0 6 -2 0zm5 -8l-1 0 0 -2 1 0 0 -2 2 -1 0 3 3 0 0 2 -3 0 0 4c0,1 0,1 1,2 0,0 0,0 1,0 0,0 1,0 1,0l0 2c0,0 -1,0 -2,0 -1,0 -2,0 -2,-1 -1,0 -1,-1 -1,-2l0 -5zm16 4l-7 0c0,1 0,1 1,2 0,0 1,0 2,0 1,0 2,0 2,-1l1 2c-1,1 -2,1 -4,1 -1,0 -2,0 -3,-1 -1,-1 -1,-2 -1,-4 0,-1 0,-3 1,-4 1,-1 2,-1 3,-1 2,0 3,0 4,1 1,1 1,2 1,3 0,1 0,1 0,2zm-7 -2l5 0c0,-1 -1,-2 -2,-2 -2,0 -3,1 -3,2zm9 -8l3 0 0 11c0,1 0,2 1,2 -1,1 -1,1 -2,1 -1,0 -2,-1 -2,-2l0 -12zm6 0l2 0 0 11c0,1 1,2 1,2 0,1 -1,1 -1,1 -1,0 -2,-1 -2,-2l0 -12zm14 10l-7 0c0,1 0,1 1,2 0,0 1,0 2,0 1,0 2,0 2,-1l1 2c-1,1 -2,1 -4,1 -1,0 -2,0 -3,-1 -1,-1 -1,-2 -1,-4 0,-1 0,-3 1,-4 1,-1 2,-1 3,-1 2,0 3,0 4,1 1,1 1,2 1,3 0,1 0,1 0,2zm-7 -2l5 0c0,-1 -1,-2 -3,-2 -1,0 -2,1 -2,2zm17 -3l-1 2c-1,-1 -2,-1 -2,-1 -1,0 -2,0 -2,1 -1,0 -1,1 -1,2 0,2 1,3 3,3 1,0 1,0 2,-1l1 2c-1,1 -1,1 -2,1 0,0 -1,0 -2,0 -1,0 -2,0 -3,-1 -1,-1 -2,-2 -2,-4 0,-1 1,-3 2,-4 1,-1 2,-1 4,-1 1,0 2,0 3,1zm2 1l-1 0 0 -2 1 0 0 -2 2 -1 0 3 3 0 0 2 -3 0 0 4c0,1 0,1 1,2 0,0 0,0 1,0 0,0 1,0 1,0l0 2c0,0 -1,0 -2,0 -1,0 -2,0 -2,-1 -1,0 -1,-1 -1,-2l0 -5zm26 8l-3 0 -1 -7 -3 7 -1 0 -2 -7 -2 7 -2 0 2 -14 2 0 3 10 3 -10 1 0 3 14zm10 -4l-7 0c0,1 0,1 0,2 1,0 2,0 2,0 1,0 2,0 3,-1l1 2c-1,1 -2,1 -4,1 -1,0 -3,0 -3,-1 -1,-1 -2,-2 -2,-4 0,-1 1,-3 2,-4 1,-1 2,-1 3,-1 2,0 3,0 4,1 0,1 1,2 1,3 0,1 0,1 0,2zm-7 -2l5 0c-1,-1 -1,-2 -3,-2 -1,0 -2,1 -2,2zm15 6l0 -1c0,1 0,1 -1,1 0,0 -1,0 -1,0 -2,0 -3,0 -4,-1 0,-1 -1,-2 -1,-4 0,-1 1,-3 2,-4 1,-1 2,-1 3,-1 1,0 1,0 2,0l0 -4 2 0 0 14 -2 0zm0 -8c0,0 -1,0 -1,0 -1,0 -2,0 -3,1 0,0 0,1 0,2 0,2 1,3 3,3 0,0 0,0 0,0 1,0 1,0 1,0l0 -6zm6 -6c1,0 1,0 1,1 1,0 1,0 1,1 0,0 0,0 -1,1 0,0 0,0 -1,0 0,0 0,0 -1,0 0,-1 0,-1 0,-1 0,-1 0,-1 0,-1 1,-1 1,-1 1,-1zm-1 14l0 -8 -1 0 0 -2 4 0 0 10 -3 0zm13 -9l-1 2c-1,-1 -1,-1 -2,-1 -1,0 -2,0 -2,1 -1,0 -1,1 -1,2 0,2 1,3 3,3 1,0 2,0 2,-1l1 2c-1,1 -1,1 -2,1 0,0 -1,0 -1,0 -2,0 -3,0 -4,-1 -1,-1 -1,-2 -1,-4 0,-1 0,-3 1,-4 1,-1 2,-1 4,-1 1,0 2,0 3,1zm7 8c0,0 0,1 -1,1 0,0 -1,0 -1,0 -1,0 -2,0 -3,-1 0,0 -1,-1 -1,-2 0,-1 1,-2 2,-3 0,0 2,-1 3,-1 0,0 1,0 1,1 0,-2 -1,-2 -2,-2 -1,0 -2,0 -2,0l-1 -2c1,0 2,0 3,0 2,0 3,0 3,1 1,1 1,2 1,4l0 2c0,1 1,2 1,2 0,1 0,1 0,1 -1,0 -1,0 -1,0 -1,0 -1,0 -1,0 0,0 -1,-1 -1,-1zm0 -4c0,0 -1,0 -1,0 -2,0 -2,1 -2,2 0,1 0,1 1,1 1,0 2,0 2,-2l0 -1zm5 -9l3 0 0 11c0,1 0,2 1,2 -1,1 -1,1 -2,1 -1,0 -2,-1 -2,-2l0 -12zm-84 23l-1 2c-1,0 -1,0 -2,0 0,-1 -1,-1 -1,-1 -1,0 -2,1 -3,2 -1,1 -1,2 -1,3 0,2 0,3 1,4 1,1 2,1 3,1 1,0 1,0 2,-1l0 -2 -2 0 0 -2 4 0 0 6c0,0 -1,0 -2,1 -1,0 -2,0 -3,0 -1,0 -3,-1 -4,-2 -1,-1 -2,-3 -2,-5 0,-2 1,-4 2,-5 1,-1 3,-2 5,-2 1,0 3,1 4,1zm8 5c0,0 -1,0 -1,0 -1,0 -1,0 -2,0 0,1 0,2 0,2l0 6 -3 0 0 -10 3 0 0 1c0,-1 1,-1 2,-1 1,0 2,0 2,0l-1 2zm2 3c0,-2 0,-3 1,-4 1,-1 2,-1 4,-1 1,0 2,0 3,1 1,1 1,2 1,4 0,1 0,3 -1,4 -1,1 -2,1 -3,1 -2,0 -3,0 -4,-1 -1,-1 -1,-3 -1,-4zm2 0c0,2 1,3 3,3 0,0 1,0 1,-1 1,0 1,-1 1,-2 0,-2 -1,-3 -2,-3 -1,0 -2,0 -2,1 -1,0 -1,1 -1,2zm15 5l0 -1c0,0 0,1 -1,1 0,0 -1,0 -1,0 -3,0 -4,-1 -4,-4l0 -6 2 0 0 6c0,1 1,2 2,2 1,0 1,0 2,0 0,-1 0,-1 0,-1l0 -7 3 0 0 10 -3 0zm7 0l0 4 -2 0 0 -14 2 0 0 1c1,-1 2,-1 2,-1 4,0 5,2 5,5 0,2 0,3 -1,4 -1,1 -2,1 -4,1 0,0 -1,0 -2,0zm0 -8l0 6c1,0 1,0 2,0 1,0 2,0 2,-1 1,0 1,-1 1,-2 0,-1 0,-2 -1,-3 0,0 -1,0 -2,0 -1,0 -1,0 -2,0z"/>
 </g>
</svg>
