<?xml version="1.0" encoding="UTF-8"?>
<!DOCTYPE svg PUBLIC "-//W3C//DTD SVG 1.1//EN" "http://www.w3.org/Graphics/SVG/1.1/DTD/svg11.dtd">
<!-- Creator: CorelDRAW X7 -->
<svg xmlns="http://www.w3.org/2000/svg" xml:space="preserve" width="7060px" height="1518px" version="1.1" style="shape-rendering:geometricPrecision; text-rendering:geometricPrecision; image-rendering:optimizeQuality; fill-rule:evenodd; clip-rule:evenodd"
viewBox="0 0 5777 1242"
 xmlns:xlink="http://www.w3.org/1999/xlink">
 <defs>
  <style type="text/css">
   <![CDATA[
    .fil0 {fill:#21A73F}
    .fil1 {fill:#3C2817}
    .fil2 {fill:#3C2817;fill-rule:nonzero}
   ]]>
  </style>
 </defs>
 <g id="Layer_x0020_1">
  <metadata id="CorelCorpID_0Corel-Layer"/>
  <g id="_2322019285712">
   <path class="fil0" d="M726 260l-14 0c0,-26 2,-47 10,-69 7,-19 14,-31 26,-44 4,-4 14,-12 19,-15 21,-14 51,-24 78,-24 0,32 0,43 -10,73 -4,14 -8,21 -15,32 -1,3 -1,3 -3,5 -2,2 -2,3 -4,5 -20,24 -55,37 -87,37zm-564 290l-12 -1c1,-3 4,-9 6,-11 15,-21 44,-24 62,-14 -4,7 -14,15 -22,19 -9,4 -25,8 -34,7zm902 -160c-26,0 -17,-2 -34,-6 0,-4 2,-4 5,-6 13,-8 29,-11 43,-4 4,2 10,6 11,9 -6,3 -15,7 -25,7zm-998 -67c0,5 8,12 13,17 3,4 10,9 15,12 19,11 38,17 60,12 5,-1 11,-1 11,-7 0,-21 -19,-40 -38,-47 -23,-8 -61,2 -61,13zm729 320c0,-4 0,-7 1,-11 0,-3 1,-6 1,-9 7,1 13,5 19,9 7,4 10,8 15,14 4,5 7,12 8,21 1,15 -2,17 -3,26 -9,0 -24,-11 -29,-16 -7,-7 -12,-19 -12,-34zm-667 156c-2,-6 -4,-8 -4,-17 0,-14 6,-29 11,-37 3,-4 7,-8 12,-11 4,-3 11,-6 16,-7 0,27 -1,44 -20,61 -5,4 -10,8 -15,11zm-126 -288c0,5 7,8 11,9 29,15 57,18 88,7l18 -10c13,-9 -13,-28 -19,-32 -20,-13 -52,-13 -73,1 -6,4 -25,17 -25,25zm1056 107l19 -1c16,0 30,8 39,16 6,5 9,9 13,15 7,12 5,10 -1,11 -18,1 -30,-3 -45,-13 -5,-4 -9,-8 -14,-12 -5,-6 -7,-10 -11,-16zm-169 -389c-8,0 -13,3 -2,-17 10,-18 28,-33 49,-33l12 0c4,0 4,1 8,1 -7,29 -36,49 -67,49zm-507 -123c0,-35 18,-57 20,-61 3,0 10,7 13,10 2,2 2,2 4,4 2,2 2,3 4,5 1,1 2,2 3,4 2,2 5,6 7,9 13,21 16,38 16,63 0,16 -4,30 -7,42 -4,0 -18,-8 -22,-11 -6,-4 -12,-10 -18,-15 -8,-9 -15,-22 -18,-34 0,-4 -2,-12 -2,-16zm-152 607c-6,0 -5,-1 -8,-1 0,-5 -1,-5 -1,-10 0,-31 6,-58 26,-80 19,-20 46,-28 74,-28 0,20 -1,35 -7,53 -12,41 -38,66 -84,66zm695 -346l-15 0c-7,0 -12,-1 -18,-1 0,-7 8,-28 11,-33 7,-14 14,-26 27,-36 25,-20 52,-18 80,-10 -1,2 -1,5 -2,8 -4,14 -16,37 -26,47 -15,15 -35,25 -57,25zm-772 -145c6,0 9,-1 15,-1 28,0 54,9 75,28 15,14 32,44 32,74 0,23 3,22 -27,16 -24,-6 -51,-17 -68,-36 -17,-20 -27,-55 -27,-81zm-139 491c3,-15 6,-26 12,-39 8,-21 26,-45 45,-56 22,-13 46,-15 71,-8 5,2 15,7 18,11 -2,11 -18,29 -23,37 -5,7 -23,23 -31,29 -13,9 -24,16 -40,20 -15,4 -33,6 -52,6zm896 -25l0 -9c27,0 41,0 66,11 21,10 35,24 46,44 9,13 13,28 17,44l4 20c0,7 -1,5 -19,5 -16,0 -36,-4 -47,-9 -10,-4 -18,-8 -26,-15 -26,-21 -41,-57 -41,-91zm-788 -256c2,-2 4,-4 6,-5 6,-5 17,-12 23,-15 27,-14 53,-14 79,2 8,5 23,19 27,27 -5,3 -9,7 -15,10 -4,3 -10,6 -16,9 -25,13 -57,16 -81,-2l-18 -18 -5 -8zm149 -278c0,-29 8,-35 17,-52 6,4 11,14 15,21 9,19 8,41 2,61 -3,9 -7,15 -10,23 -12,-8 -24,-35 -24,-53zm656 310c0,-4 11,-11 14,-13 45,-28 102,-25 143,13 5,5 9,9 13,14 11,11 29,42 32,55 -34,8 -75,9 -108,-2 -17,-5 -46,-21 -60,-32 -6,-5 -34,-29 -34,-35zm-153 -80c-5,0 -9,-1 -14,-2 -1,0 -4,0 -6,-1 -3,0 -4,-1 -7,-1 2,-4 3,-10 5,-14 12,-38 37,-67 80,-59 6,1 9,3 13,4 -3,14 -2,14 -8,28l-9 17c-12,17 -29,28 -54,28zm-247 -160c-12,-25 -23,-55 -23,-83 0,-21 1,-31 8,-52 8,-20 22,-40 37,-53 5,-4 21,-17 27,-19l5 13c15,33 19,76 8,110 -10,35 -36,65 -62,84zm134 -89c0,-5 -1,-5 -1,-11 0,-35 17,-75 48,-82 10,-2 11,-1 16,-1 0,34 -13,65 -37,81 -5,4 -19,11 -26,13zm203 418c2,0 8,-4 15,-6 25,-7 51,1 67,18 6,6 11,14 15,22 3,6 10,19 10,27l-19 0c-14,0 -32,-3 -44,-10 -15,-9 -28,-23 -38,-38 -2,-3 -6,-8 -6,-13zm-501 -301c0,-6 0,-11 1,-16 0,-5 2,-11 2,-15 7,0 23,10 28,14 27,21 40,53 40,94 0,7 -1,10 -1,17 -24,-6 -54,-31 -64,-58 -4,-10 -6,-22 -6,-36z"/>
   <path class="fil1" d="M162 550l-12 -1c1,-3 4,-9 6,-11 15,-21 44,-24 62,-14 -4,7 -14,15 -22,19 -9,4 -25,8 -34,7zm902 -160c-26,0 -17,-2 -34,-6 0,-4 2,-4 5,-6 13,-8 29,-11 43,-4 4,2 10,6 11,9 -6,3 -15,7 -25,7zm-51 -6c0,6 4,7 8,9 21,10 42,15 65,5 8,-3 18,-7 18,-14 0,-8 -33,-43 -73,-19 -5,3 -18,13 -18,19zm-271 737c0,3 6,14 15,1 2,-3 3,-5 5,-8 22,-31 46,-73 85,-81 5,-1 8,0 12,-1 9,-1 10,-15 0,-15 -24,0 -49,14 -64,31 -3,3 -5,5 -7,7 -9,10 -17,20 -24,32 -4,5 -8,11 -12,16 -2,4 -10,14 -10,18zm-660 -796c23,-13 64,-3 70,26 -14,4 -30,1 -41,-4 -9,-4 -24,-14 -29,-22zm-16 -2c0,5 8,12 13,17 3,4 10,9 15,12 19,11 38,17 60,12 5,-1 11,-1 11,-7 0,-21 -19,-40 -38,-47 -23,-8 -61,2 -61,13zm729 320c0,-4 0,-7 1,-11 0,-3 1,-6 1,-9 7,1 13,5 19,9 7,4 10,8 15,14 4,5 7,12 8,21 1,15 -2,17 -3,26 -9,0 -24,-11 -29,-16 -7,-7 -12,-19 -12,-34zm44 64c6,0 6,-5 9,-13 5,-16 5,-34 -3,-49 -6,-13 -18,-23 -30,-29 -5,-3 -16,-8 -23,-8 -4,0 -6,9 -7,13 -7,31 0,58 25,74 5,4 20,12 29,12zm-711 92c-2,-6 -4,-8 -4,-17 0,-14 6,-29 11,-37 3,-4 7,-8 12,-11 4,-3 11,-6 16,-7 0,27 -1,44 -20,61 -5,4 -10,8 -15,11zm-16 -21c0,10 0,15 3,24 8,22 15,13 30,1 21,-17 31,-34 31,-67 0,-31 -8,-29 -30,-17 -20,11 -34,30 -34,59zm-51 -289c17,0 26,0 40,12 3,2 6,5 7,8 -9,3 -29,20 -68,8 -10,-2 -18,-7 -22,-8 3,-5 13,-11 18,-13 6,-4 16,-7 25,-7zm-59 22c0,5 7,8 11,9 29,15 57,18 88,7l18 -10c13,-9 -13,-28 -19,-32 -20,-13 -52,-13 -73,1 -6,4 -25,17 -25,25zm1056 107l19 -1c16,0 30,8 39,16 6,5 9,9 13,15 7,12 5,10 -1,11 -18,1 -30,-3 -45,-13 -5,-4 -9,-8 -14,-12 -5,-6 -7,-10 -11,-16zm-18 -4c0,5 10,19 13,23 41,54 98,37 98,28 0,-15 -17,-35 -27,-44 -20,-18 -47,-24 -73,-16 -5,1 -11,1 -11,9zm-151 -385c-8,0 -13,3 -2,-17 10,-18 28,-33 49,-33l12 0c4,0 4,1 8,1 -7,29 -36,49 -67,49zm-25 6c0,8 9,8 15,8 20,1 37,0 55,-11 9,-6 18,-14 24,-23 3,-5 6,-9 8,-15 7,-17 9,-25 -3,-28 -30,-7 -52,0 -75,20 -4,4 -12,16 -14,21 -3,6 -10,21 -10,28zm-482 -129c0,-35 18,-57 20,-61 3,0 10,7 13,10 2,2 2,2 4,4 2,2 2,3 4,5 1,1 2,2 3,4 2,2 5,6 7,9 13,21 16,38 16,63 0,16 -4,30 -7,42 -4,0 -18,-8 -22,-11 -6,-4 -12,-10 -18,-15 -8,-9 -15,-22 -18,-34 0,-4 -2,-12 -2,-16zm-13 -4c0,20 3,33 12,48 14,23 34,36 57,47 15,6 14,3 20,-25 2,-7 3,-16 4,-23 9,-79 -58,-122 -60,-122 -4,0 -5,2 -7,5 -3,3 -4,5 -6,8 -10,16 -20,41 -20,62zm-139 611c-6,0 -5,-1 -8,-1 0,-5 -1,-5 -1,-10 0,-31 6,-58 26,-80 19,-20 46,-28 74,-28 0,20 -1,35 -7,53 -12,41 -38,66 -84,66zm-23 -14c0,31 3,28 31,28 21,0 42,-9 57,-22 6,-5 8,-8 13,-15 16,-20 26,-56 26,-85 0,-28 3,-25 -20,-25 -16,0 -33,5 -45,10 -41,18 -62,60 -62,109zm718 -332l-15 0c-7,0 -12,-1 -18,-1 0,-7 8,-28 11,-33 7,-14 14,-26 27,-36 25,-20 52,-18 80,-10 -1,2 -1,5 -2,8 -4,14 -16,37 -26,47 -15,15 -35,25 -57,25zm-15 16c24,0 45,-2 65,-16 20,-14 34,-34 43,-57 2,-6 7,-21 7,-27 1,-10 -10,-11 -20,-13 -45,-13 -84,4 -107,42 -4,7 -8,13 -11,21 -1,2 -1,3 -2,5 -3,7 -8,26 -9,32 0,6 3,8 7,9 8,2 18,4 27,4zm-757 -161c6,0 9,-1 15,-1 28,0 54,9 75,28 15,14 32,44 32,74 0,23 3,22 -27,16 -24,-6 -51,-17 -68,-36 -17,-20 -27,-55 -27,-81zm137 105c0,-20 -8,-46 -16,-60 -12,-19 -18,-27 -36,-40 -24,-17 -61,-24 -91,-19 -8,2 -9,5 -8,13 4,28 5,47 19,74 6,11 12,17 21,25 25,24 62,34 96,38 9,0 9,-1 12,-10 1,-5 3,-15 3,-21zm-276 386c3,-15 6,-26 12,-39 8,-21 26,-45 45,-56 22,-13 46,-15 71,-8 5,2 15,7 18,11 -2,11 -18,29 -23,37 -5,7 -23,23 -31,29 -13,9 -24,16 -40,20 -15,4 -33,6 -52,6zm-14 7c0,10 9,8 18,8 49,0 87,-16 116,-47 16,-16 31,-34 40,-56 1,-4 1,2 1,-6 0,-4 -7,-10 -9,-12 -11,-8 -31,-15 -46,-15 -4,0 -4,-1 -9,-1 -2,1 -5,1 -9,1 -17,2 -37,11 -50,22 -23,20 -34,41 -45,70 -2,8 -7,27 -7,36zm910 -32l0 -9c27,0 41,0 66,11 21,10 35,24 46,44 9,13 13,28 17,44l4 20c0,7 -1,5 -19,5 -16,0 -36,-4 -47,-9 -10,-4 -18,-8 -26,-15 -26,-21 -41,-57 -41,-91zm-14 -15c0,58 19,110 71,132 24,11 56,15 83,11 4,0 7,-2 7,-7 0,-33 -16,-80 -38,-104 -28,-31 -71,-46 -113,-40 -4,1 -10,2 -10,8zm-774 -241c2,-2 4,-4 6,-5 6,-5 17,-12 23,-15 27,-14 53,-14 79,2 8,5 23,19 27,27 -5,3 -9,7 -15,10 -4,3 -10,6 -16,9 -25,13 -57,16 -81,-2l-18 -18 -5 -8zm149 -278c0,-29 8,-35 17,-52 6,4 11,14 15,21 9,19 8,41 2,61 -3,9 -7,15 -10,23 -12,-8 -24,-35 -24,-53zm-14 -3c0,24 8,43 21,59 3,3 3,4 7,8 5,4 3,5 5,16 6,25 11,44 20,67 15,40 35,79 58,114l23 34c4,6 9,11 12,17l-15 -6c-44,-20 -73,-27 -122,-27 -6,-11 -19,-22 -30,-30 -13,-9 -29,-14 -49,-14 -18,0 -34,8 -47,15 -7,4 -12,7 -18,12 -19,15 -17,15 -1,36 15,20 39,32 62,32 16,0 34,-6 48,-12 7,-4 21,-12 28,-17 11,-9 5,-7 27,-7 14,0 30,3 42,6 6,1 12,3 18,5 7,2 13,3 19,6 6,2 11,4 16,7l32 16c2,1 14,9 16,9 4,0 7,-5 7,-8 0,-5 -16,-24 -19,-28 -8,-12 -18,-24 -26,-37 -9,-14 -15,-22 -24,-38 -2,-4 -4,-6 -6,-10l-21 -41c-14,-30 -21,-47 -31,-81 -2,-7 -4,-17 -6,-26 -1,-6 -2,-6 2,-11 15,-25 23,-56 15,-87 -2,-8 -4,-12 -7,-19 -4,-8 -17,-27 -26,-27 -8,0 -30,38 -30,67zm670 313c0,-4 11,-11 14,-13 45,-28 102,-25 143,13 5,5 9,9 13,14 11,11 29,42 32,55 -34,8 -75,9 -108,-2 -17,-5 -46,-21 -60,-32 -6,-5 -34,-29 -34,-35zm-153 -80c-5,0 -9,-1 -14,-2 -1,0 -4,0 -6,-1 -3,0 -4,-1 -7,-1 2,-4 3,-10 5,-14 12,-38 37,-67 80,-59 6,1 9,3 13,4 -3,14 -2,14 -8,28l-9 17c-12,17 -29,28 -54,28zm-72 121c2,0 20,-13 27,-17 57,-30 120,-29 181,-16 6,1 8,5 11,9 6,9 23,23 31,29 27,20 69,44 114,44 33,0 38,-1 68,-7 15,-2 15,-6 6,-25 -11,-25 -25,-48 -44,-66 -14,-12 -23,-19 -39,-27 -5,-2 -10,-4 -16,-6 -26,-9 -55,-8 -81,2 -11,5 -35,17 -42,27 -6,8 -3,5 -19,3 -44,-8 -89,-10 -132,2 -11,3 -20,6 -29,10l-26 14c0,-16 15,-56 21,-69 1,-4 3,-7 5,-10 1,-3 4,-7 5,-10 47,12 85,2 107,-50 4,-9 8,-24 8,-37 0,-6 -19,-10 -24,-11 -50,-10 -83,27 -96,73 -3,13 -5,13 -12,26 -5,9 -12,24 -15,34 -4,12 -18,63 -16,72 1,3 3,6 7,6zm-175 -281c-12,-25 -23,-55 -23,-83 0,-21 1,-31 8,-52 8,-20 22,-40 37,-53 5,-4 21,-17 27,-19l5 13c15,33 19,76 8,110 -10,35 -36,65 -62,84zm134 -89c0,-5 -1,-5 -1,-11 0,-35 17,-75 48,-82 10,-2 11,-1 16,-1 0,34 -13,65 -37,81 -5,4 -19,11 -26,13zm-171 -2c0,35 12,75 25,97 2,5 3,6 3,13 0,12 3,58 5,71 6,56 19,126 35,179l11 34c2,7 3,8 9,8 7,0 5,-11 5,-15 0,-7 0,-14 0,-21l1 -30c0,-5 1,-5 1,-10 1,-26 4,-52 7,-76 7,-54 21,-115 40,-165 7,-19 19,-47 28,-64 2,-4 1,-3 5,-5 23,-8 45,-22 57,-44 9,-17 16,-39 16,-66 0,-14 -7,-13 -22,-13 -11,0 -23,5 -30,10 -29,21 -43,61 -38,101 1,13 1,8 -5,21l-9 18c-27,58 -47,140 -56,205 -2,15 -4,33 -5,49l-2 26c-1,10 -1,18 -1,27 0,0 0,0 0,0l-1 -3c-1,-1 -1,-2 -1,-3 -1,-3 -2,-5 -2,-7 -9,-35 -17,-66 -22,-102 -2,-11 -4,-21 -5,-31l-6 -65c-1,-3 0,-6 -1,-9l-1 -25c8,-2 38,-34 46,-45l6 -8c33,-49 33,-114 8,-167 -2,-4 -3,-7 -5,-10 -4,-7 -3,-8 -10,-8 -4,0 -27,17 -32,21 -30,27 -54,63 -54,112zm374 420c2,0 8,-4 15,-6 25,-7 51,1 67,18 6,6 11,14 15,22 3,6 10,19 10,27l-19 0c-14,0 -32,-3 -44,-10 -15,-9 -28,-23 -38,-38 -2,-3 -6,-8 -6,-13zm-10 -10c-6,0 -26,-8 -46,-8 -25,0 -44,2 -65,13 -63,32 -68,112 -63,182 5,71 6,168 64,211 33,23 88,35 129,39 14,1 37,3 49,7 20,7 31,26 31,49 0,19 -10,36 -17,47 -8,11 -21,26 -30,35 -9,8 -25,22 -35,29 -22,16 -55,35 -80,46 -50,21 -99,34 -154,34 -9,0 -23,-5 -23,6 0,6 3,8 7,8 37,2 67,0 102,-9 22,-5 26,-7 44,-13 3,-1 4,-1 7,-2 8,-4 15,-6 23,-10 18,-8 49,-25 64,-36 7,-4 13,-8 20,-13l27 -23c25,-21 59,-60 59,-95l0 -8c0,-22 -13,-43 -26,-52 -16,-12 -34,-13 -60,-14 -10,-1 -22,-3 -32,-5 -31,-4 -74,-16 -98,-34 -37,-28 -47,-74 -51,-123 -2,-37 -6,-76 -6,-112 0,-32 3,-67 18,-93 25,-44 81,-56 129,-44 5,2 7,1 9,6 26,44 55,69 107,69 7,0 13,-1 19,-1 5,0 12,-1 12,-7 0,-8 -8,-29 -11,-35 -9,-20 -15,-27 -29,-40 -20,-20 -58,-23 -85,-10l-9 6zm-491 -291c0,-6 0,-11 1,-16 0,-5 2,-11 2,-15 7,0 23,10 28,14 27,21 40,53 40,94 0,7 -1,10 -1,17 -24,-6 -54,-31 -64,-58 -4,-10 -6,-22 -6,-36zm363 8l-14 0c0,-26 2,-47 10,-69 7,-19 14,-31 26,-44 4,-4 14,-12 19,-15 21,-14 51,-24 78,-24 0,32 0,43 -10,73 -4,14 -8,21 -15,32 -1,3 -1,3 -3,5 -2,2 -2,3 -4,5 -20,24 -55,37 -87,37zm-28 -10c0,27 4,6 -11,36l-16 32c-21,48 -32,98 -40,152 -2,15 -6,48 -7,64 -1,31 -5,62 -6,92l-2 34c0,6 0,18 0,24 0,30 -3,169 -13,193 -13,29 -64,32 -65,-32l-1 -20c0,-3 0,-7 0,-10 0,-6 -1,-7 -1,-11 -1,-14 0,-31 -1,-44 -6,-117 -7,-211 -49,-324 -7,-20 -16,-40 -27,-59l-10 -17c-7,-11 -1,-6 -1,-36 0,-30 -9,-56 -23,-78 -2,-2 -2,-2 -4,-4 -1,-2 -2,-3 -3,-5 -14,-16 -31,-27 -51,-32 -12,-4 -12,4 -15,15 -16,69 20,120 78,141 7,2 9,9 12,15 29,51 46,103 59,162 12,55 18,118 19,176 0,13 2,28 2,41l2 96c1,16 6,33 13,42 5,5 9,9 15,12 18,11 43,8 56,-11 24,-33 21,-291 29,-355 5,-46 7,-77 19,-126 11,-51 29,-99 53,-137 27,0 44,-1 64,-8 13,-5 25,-11 35,-20 18,-14 30,-32 38,-55 11,-29 13,-51 13,-83 0,-16 -2,-17 -13,-17 -38,0 -80,14 -107,42 -13,14 -22,30 -29,48 -7,19 -12,41 -12,67zm-411 271c36,0 71,4 101,23 8,5 14,10 20,17 27,28 42,73 42,113 0,12 0,27 -1,39 0,4 0,7 0,10 0,5 -1,5 -1,9 -1,33 -6,78 -10,109 -3,27 -6,41 -18,59 -5,7 -12,15 -19,20 -39,32 -87,39 -141,46 -34,3 -58,1 -78,34 -22,36 0,82 25,110 9,9 17,17 26,25 9,7 19,15 30,22 10,7 20,13 30,19 16,10 33,18 50,26 6,3 12,5 18,8 12,5 25,10 38,13 44,12 40,11 85,15 3,0 19,-1 23,-1 35,-5 65,-12 97,-29 12,-5 22,-12 34,-17 35,-17 40,-10 60,-15 24,-7 8,-41 -24,-50 -18,-6 -50,0 -72,0 -11,0 -23,-6 -33,-9 -17,-6 -46,-16 -61,2 -11,13 -8,27 -8,37 -22,-5 -44,-12 -63,-25 -5,-3 -9,-5 -14,-8 -2,-2 -4,-3 -6,-5 -15,-12 -25,-27 -38,-41 -11,-12 -21,-23 -34,-34 -17,-13 -39,-26 -62,-26 -8,0 -8,11 -2,14 8,5 23,-2 54,22 5,4 9,8 13,13l25 27c12,14 23,28 38,39 27,19 56,32 88,39 3,1 8,2 11,2 9,-3 4,-16 4,-32 0,-10 7,-17 16,-17 16,0 26,5 40,9 39,12 67,1 96,6 9,2 26,9 28,20 -4,3 -6,2 -13,2 -5,0 -10,1 -14,2 -25,5 -45,20 -67,30 -31,14 -65,29 -100,29 -54,0 -67,-6 -117,-21 -15,-5 -29,-11 -43,-17 -34,-15 -77,-41 -104,-68 -6,-5 -15,-13 -19,-19 -4,-6 -9,-10 -14,-17 -3,-5 -8,-13 -11,-19 -5,-13 -7,-29 -3,-43 8,-27 34,-34 58,-36 72,-5 173,-23 198,-104 12,-40 19,-145 19,-190 0,-67 -23,-131 -77,-161 -20,-11 -44,-15 -67,-19 -21,-3 -57,-1 -78,2 -12,3 -13,5 -23,1 -17,-7 -40,-7 -56,4 -8,5 -14,12 -19,20 -2,4 -4,8 -7,13 -2,4 -5,9 2,12 13,4 38,4 50,0 16,-5 28,-17 39,-30 2,-2 4,-2 7,-3 18,-4 34,-6 52,-6z"/>
  </g>
  <path class="fil2" d="M1462 529l0 -286 51 0 0 286 -51 0zm242 0l0 -121c0,-18 -3,-31 -10,-39 -7,-8 -18,-12 -33,-12 -8,0 -15,2 -23,6 -9,4 -15,9 -19,15l0 151 -49 0 0 -209 35 0 9 19c13,-15 33,-23 59,-23 24,0 44,7 59,22 14,15 21,36 21,63l0 128 -49 0zm109 -170l-24 0 0 -39 24 0 0 -43 49 -18 0 61 58 0 0 39 -58 0 0 92c0,15 2,26 7,32 5,6 13,9 25,9 12,0 23,-3 33,-10l0 45c-11,4 -28,6 -49,6 -21,0 -37,-6 -48,-17 -11,-12 -17,-29 -17,-51l0 -106zm339 81l-150 0c1,16 7,29 17,39 11,9 25,13 43,13 22,0 39,-5 51,-17l19 37c-17,14 -43,21 -77,21 -32,0 -57,-9 -76,-28 -18,-19 -28,-45 -28,-78 0,-33 10,-60 31,-80 20,-21 45,-31 73,-31 31,0 55,9 73,27 19,18 28,41 28,69 0,6 -1,15 -4,28zm-148 -37l103 0c-4,-31 -21,-46 -51,-46 -28,0 -45,15 -52,46zm199 -161l49 -12 0 235c0,26 8,42 24,47 -8,14 -21,21 -39,21 -22,0 -34,-15 -34,-46l0 -245zm119 0l48 -12 0 235c0,26 8,42 24,47 -8,14 -21,21 -39,21 -22,0 -33,-15 -33,-46l0 -245zm296 198l-149 0c1,16 6,29 17,39 10,9 25,13 42,13 23,0 40,-5 51,-17l19 37c-17,14 -43,21 -77,21 -32,0 -57,-9 -75,-28 -19,-19 -28,-45 -28,-78 0,-33 10,-60 30,-80 21,-21 45,-31 74,-31 30,0 54,9 73,27 18,18 27,41 27,69 0,6 -1,15 -4,28zm-147 -37l102 0c-3,-31 -20,-46 -51,-46 -27,0 -45,15 -51,46zm355 -67l-21 37c-12,-11 -27,-16 -46,-16 -19,0 -33,6 -44,18 -11,12 -16,30 -16,51 0,44 21,66 62,66 19,0 35,-6 48,-18l18 39c-14,9 -26,14 -37,17 -11,2 -23,3 -38,3 -32,0 -57,-9 -76,-28 -19,-19 -28,-45 -28,-79 0,-33 10,-59 31,-80 20,-20 48,-30 83,-30 25,0 46,7 64,20zm48 23l-25 0 0 -39 25 0 0 -43 48 -18 0 61 58 0 0 39 -58 0 0 92c0,15 3,26 8,32 4,6 12,9 24,9 12,0 23,-3 33,-10l0 45c-11,4 -27,6 -48,6 -21,0 -37,-6 -49,-17 -11,-12 -16,-29 -16,-51l0 -106zm542 170l-49 0 -30 -154 -58 158 -18 0 -57 -158 -31 154 -49 0 58 -286 26 0 62 193 60 -193 27 0 59 286zm215 -89l-149 0c0,16 6,29 17,39 10,9 25,13 42,13 23,0 40,-5 51,-17l19 37c-17,14 -43,21 -77,21 -32,0 -57,-9 -75,-28 -19,-19 -28,-45 -28,-78 0,-33 10,-60 30,-80 21,-21 45,-31 74,-31 30,0 54,9 73,27 18,18 27,41 27,69 0,6 -1,15 -4,28zm-147 -37l102 0c-3,-31 -20,-46 -51,-46 -27,0 -45,15 -51,46zm325 126l0 -12c-4,4 -10,8 -20,11 -10,4 -20,5 -30,5 -29,0 -52,-9 -69,-27 -17,-19 -25,-45 -25,-78 0,-33 9,-60 29,-81 19,-21 43,-31 72,-31 16,0 30,3 43,10l0 -84 49 -12 0 299 -49 0zm0 -159c-10,-8 -21,-13 -32,-13 -20,0 -35,6 -45,18 -11,12 -16,29 -16,52 0,43 21,65 63,65 4,0 10,-1 17,-4 7,-3 11,-6 13,-9l0 -109zm136 -131c8,0 15,2 20,8 6,5 8,12 8,20 0,8 -2,14 -8,20 -5,6 -12,8 -20,8 -8,0 -15,-2 -20,-8 -6,-6 -8,-12 -8,-20 0,-8 2,-15 8,-20 5,-6 12,-8 20,-8zm-25 290l0 -169 -27 0 0 -40 76 0 0 209 -49 0zm271 -193l-21 37c-12,-11 -27,-16 -46,-16 -19,0 -34,6 -44,18 -11,12 -16,30 -16,51 0,44 21,66 62,66 18,0 34,-6 48,-18l18 39c-14,9 -26,14 -37,17 -11,2 -23,3 -38,3 -32,0 -57,-9 -76,-28 -19,-19 -28,-45 -28,-79 0,-33 10,-59 30,-80 21,-20 49,-30 84,-30 24,0 46,7 64,20zm157 172c-5,8 -12,14 -23,18 -11,5 -23,7 -35,7 -22,0 -40,-5 -53,-17 -13,-11 -19,-27 -19,-48 0,-24 9,-43 27,-57 18,-13 44,-20 77,-20 6,0 13,1 21,2 0,-24 -16,-36 -47,-36 -18,0 -34,3 -46,9l-11 -38c17,-8 37,-12 60,-12 32,0 56,7 71,22 15,14 22,42 22,82l0 45c0,28 6,46 17,53 -4,7 -9,11 -14,13 -5,1 -10,2 -17,2 -7,0 -13,-2 -19,-8 -5,-5 -9,-10 -11,-17zm-5 -78c-8,-1 -14,-2 -19,-2 -38,0 -57,13 -57,38 0,19 10,28 32,28 29,0 44,-14 44,-44l0 -20zm110 -188l49 -12 0 235c0,26 8,42 23,47 -7,14 -20,21 -39,21 -22,0 -33,-15 -33,-46l0 -245zm445 24l-22 41c-6,-5 -15,-11 -27,-16 -13,-5 -24,-8 -32,-8 -29,0 -51,10 -67,29 -16,19 -24,45 -24,77 0,30 7,54 23,73 16,18 38,27 66,27 18,0 33,-5 44,-15l0 -56 -39 0 0 -44 90 0 0 129c-12,10 -28,17 -47,23 -19,5 -38,8 -57,8 -41,0 -73,-13 -97,-40 -24,-27 -36,-63 -36,-107 0,-44 13,-80 39,-108 26,-27 61,-41 106,-41 31,0 58,9 80,28zm175 99c-8,-5 -18,-8 -28,-8 -12,0 -22,5 -31,15 -8,10 -13,23 -13,38l0 119 -49 0 0 -209 49 0 0 19c14,-15 32,-23 55,-23 16,0 29,2 38,7l-21 42zm37 59c0,-32 9,-58 27,-78 19,-20 43,-30 73,-30 32,0 57,9 74,29 18,19 27,45 27,79 0,33 -9,60 -27,80 -18,19 -42,29 -74,29 -31,0 -56,-10 -74,-30 -17,-19 -26,-46 -26,-79zm51 0c0,46 16,69 49,69 16,0 28,-6 37,-18 9,-12 13,-29 13,-51 0,-45 -16,-68 -50,-68 -15,0 -27,6 -36,18 -9,12 -13,29 -13,50zm324 105l0 -17c-7,6 -16,11 -29,15 -12,4 -23,6 -33,6 -49,0 -73,-26 -73,-77l0 -136 49 0 0 132c0,27 12,40 36,40 11,0 22,-2 31,-8 10,-6 16,-13 19,-20l0 -144 49 0 0 209 -49 0zm147 -5l0 87 -49 0 0 -291 49 0 0 14c12,-12 27,-18 45,-18 67,0 100,37 100,110 0,35 -9,61 -28,80 -18,18 -43,27 -75,27 -16,0 -30,-3 -42,-9zm0 -153l0 110c8,7 19,11 31,11 22,0 38,-5 48,-16 10,-11 15,-28 15,-51 0,-25 -5,-42 -15,-52 -9,-10 -26,-16 -48,-16 -12,0 -22,5 -31,14z"/>
  <path class="fil2" d="M2385 949l-17 -97 -48 100 -8 0 -48 -98 -17 95 -27 0 30 -163 8 0 60 119 58 -119 7 0 30 163 -28 0zm191 -77l-115 0c0,11 2,21 6,30 4,8 9,14 17,19 8,5 17,7 27,7 16,0 30,-5 41,-14l12 23c-8,6 -16,10 -25,12 -9,2 -20,3 -33,3 -22,0 -40,-7 -54,-22 -14,-15 -21,-35 -21,-59 0,-26 7,-46 22,-62 15,-16 32,-24 53,-24 22,0 40,7 53,19 13,12 20,29 20,50 0,4 -1,10 -3,18zm-69 -63c-12,0 -23,4 -31,12 -9,9 -13,18 -14,30l88 0c0,-12 -4,-22 -11,-30 -8,-8 -19,-12 -32,-12zm252 192l-25 0 0 -52 -114 0 0 52 -25 0 0 -75 12 0c13,-14 22,-32 29,-53 7,-21 10,-42 10,-64l0 -21 95 0 0 138 18 0 0 75zm-45 -75l0 -115 -44 0c0,21 -3,42 -9,63 -6,21 -15,38 -26,52l79 0zm208 23l-29 0 0 -110 -100 114 -6 0 0 -165 28 0 0 110 100 -114 7 0 0 165zm182 52l-26 0 0 -52 -116 0 0 -161 29 0 0 137 65 0 0 -137 29 0 0 137 19 0 0 76zm162 -52l-28 0 0 -110 -100 114 -7 0 0 -165 29 0 0 110 100 -114 6 0 0 165zm172 0l-29 0 0 -73 -74 0 0 73 -28 0 0 -161 28 0 0 65 74 0 0 -65 29 0 0 161zm161 -147l-14 20c-3,-4 -8,-6 -15,-9 -7,-2 -14,-4 -22,-4 -15,0 -28,6 -37,17 -9,11 -13,26 -13,44 0,19 4,33 13,43 9,10 22,15 39,15 13,0 26,-5 39,-15l11 24c-15,10 -34,15 -57,15 -21,0 -39,-7 -54,-22 -14,-15 -21,-35 -21,-60 0,-26 7,-47 22,-62 16,-15 36,-23 61,-23 9,0 18,2 28,6 9,3 16,7 20,11zm158 148c-3,0 -6,0 -10,0 -19,0 -30,-9 -33,-28 -2,-16 -7,-28 -16,-35 -8,-7 -21,-11 -36,-11l-3 0 0 73 -28 0 0 -161 28 0 0 65 4 0c15,0 26,-4 34,-10 8,-6 13,-15 16,-28 3,-19 13,-28 31,-28 4,0 7,0 10,1l0 24c-1,0 -4,0 -7,0 -5,0 -8,3 -9,9 -4,22 -18,37 -40,43 23,8 38,26 43,53 1,6 4,9 8,9 4,0 7,-1 8,-1l0 25zm167 -1l-29 0 0 -110 -100 114 -6 0 0 -165 29 0 0 110 100 -114 6 0 0 165zm175 0l-28 0 0 -110 -100 114 -7 0 0 -165 29 0 0 110 100 -114 6 0 0 165zm-11 -238c-6,30 -24,46 -53,46 -29,0 -47,-16 -54,-46l25 -6c4,20 14,31 29,31 17,0 26,-10 29,-31l24 6zm286 290l-26 0 0 -52 -116 0 0 -161 29 0 0 137 66 0 0 -137 28 0 0 137 19 0 0 76zm162 -129l-115 0c0,11 2,21 6,30 4,8 9,14 17,19 8,5 17,7 27,7 16,0 30,-5 41,-14l12 23c-8,6 -16,10 -25,12 -9,2 -20,3 -33,3 -22,0 -40,-7 -54,-22 -14,-15 -21,-35 -21,-59 0,-26 7,-46 22,-62 15,-16 32,-24 53,-24 22,0 40,7 53,19 13,12 20,29 20,50 0,4 -1,10 -3,18zm-69 -63c-12,0 -23,4 -31,12 -9,9 -13,18 -14,30l88 0c0,-12 -4,-22 -11,-30 -8,-8 -19,-12 -32,-12zm233 140l-28 0 0 -73 -74 0 0 73 -29 0 0 -161 29 0 0 65 74 0 0 -65 28 0 0 161zm150 -137l-46 0 0 137 -28 0 0 -137 -46 0 0 -24 120 0 0 24zm58 128l0 72 -28 0 0 -224 28 0 0 14c11,-11 24,-17 39,-17 23,0 41,8 53,22 13,14 19,35 19,62 0,25 -6,45 -19,60 -13,15 -31,23 -55,23 -7,0 -14,-1 -22,-4 -8,-2 -13,-5 -15,-8zm0 -117l0 94c2,3 6,5 12,8 6,2 11,3 17,3 35,0 53,-20 53,-60 0,-21 -5,-36 -13,-45 -9,-9 -22,-14 -40,-14 -4,0 -9,2 -15,5 -6,3 -11,6 -14,9z"/>
 </g>
</svg>
