<svg width="25" height="30" viewBox="0 0 25 30" fill="none" xmlns="http://www.w3.org/2000/svg">
<path d="M21.1463 21.944H19.5L19.5077 20.9877C19.5077 20.5627 19.8567 20.215 20.283 20.215H20.388C20.8153 20.215 21.1653 20.5627 21.1653 20.9877L21.1463 21.944ZM14.971 19.8947C14.5533 19.8947 14.2117 20.1753 14.2117 20.519V25.17C14.2117 25.513 14.5533 25.793 14.971 25.793C15.3903 25.793 15.7323 25.513 15.7323 25.17V20.519C15.7323 20.175 15.3903 19.8947 14.971 19.8947ZM25 17.293V26.141C25 28.2633 23.1597 30 20.91 30H4.09033C1.84 30 0 28.2633 0 26.141V17.293C0 15.1707 1.84 13.4337 4.09033 13.4337H20.91C23.1597 13.4337 25 15.1707 25 17.293ZM5.21233 27.1017L5.211 17.7813L7.296 17.782V16.401L1.738 16.3927V17.7503L3.473 17.7553V27.1017H5.21233ZM11.4623 19.1697H9.724V24.1467C9.724 24.8667 9.76767 25.2267 9.72133 25.3537C9.58 25.7397 8.94467 26.1497 8.697 25.3953C8.655 25.2633 8.692 24.865 8.69133 24.181L8.68433 19.1697H6.95567L6.961 24.1023C6.96233 24.8583 6.944 25.422 6.967 25.6787C7.00933 26.131 6.99433 26.6583 7.414 26.9597C8.196 27.523 9.695 26.8757 10.07 26.0703L10.0667 27.098L11.4627 27.0997L11.4623 19.1697ZM17.0233 24.869L17.0197 20.7267C17.0183 19.148 15.8373 18.2027 14.2343 19.48L14.2413 16.4003L12.505 16.403L12.4967 27.033L13.9247 27.0123L14.0547 26.3503C15.879 28.024 17.026 26.877 17.0233 24.869ZM22.4637 24.32L21.1603 24.327C21.1597 24.3787 21.1577 24.4383 21.157 24.5033V25.2307C21.157 25.62 20.8353 25.937 20.4447 25.937H20.1893C19.798 25.937 19.4763 25.62 19.4763 25.2307V25.15V24.35V23.3177H22.461V22.1943C22.461 21.3733 22.44 20.5527 22.372 20.0833C22.1583 18.5987 20.0743 18.363 19.0217 19.123C18.6913 19.3603 18.439 19.678 18.2923 20.1047C18.1443 20.5317 18.0707 21.115 18.0707 21.856V24.326C18.0713 28.432 23.0587 27.8517 22.4637 24.32ZM15.7777 10.9107C15.8673 11.1287 16.0067 11.3053 16.1957 11.4387C16.3823 11.57 16.621 11.636 16.907 11.636C17.1577 11.636 17.3797 11.5683 17.573 11.4287C17.7657 11.2897 17.928 11.082 18.0607 10.805L18.0277 11.487H19.9653V3.24667H18.44V9.66C18.44 10.0073 18.154 10.2917 17.8043 10.2917C17.4567 10.2917 17.1697 10.0073 17.1697 9.66V3.24667H15.5777V8.80467C15.5777 9.51267 15.5907 9.98467 15.6117 10.224C15.6333 10.4617 15.688 10.6897 15.7777 10.9107ZM9.90567 6.25667C9.90567 5.46567 9.97167 4.848 10.1027 4.40267C10.2347 3.959 10.4717 3.60233 10.815 3.33333C11.1573 3.063 11.5957 2.92767 12.1287 2.92767C12.577 2.92767 12.961 3.01567 13.2817 3.188C13.604 3.36133 13.8527 3.58633 14.025 3.864C14.2007 4.14267 14.32 4.429 14.3837 4.722C14.4487 5.019 14.4807 5.467 14.4807 6.07133V8.15533C14.4807 8.91967 14.45 9.482 14.3903 9.839C14.3313 10.197 14.2047 10.529 14.0083 10.8403C13.815 11.1483 13.5653 11.3787 13.2627 11.5257C12.9567 11.674 12.6067 11.7467 12.2113 11.7467C11.7697 11.7467 11.3977 11.6857 11.091 11.5583C10.7833 11.4317 10.5457 11.2407 10.3763 10.987C10.2053 10.733 10.085 10.4237 10.0123 10.063C9.93933 9.70267 9.90467 9.16067 9.90467 8.43833L9.90567 6.25667ZM11.4233 9.53C11.4233 9.99667 11.7707 10.3777 12.1937 10.3777C12.617 10.3777 12.963 9.99667 12.963 9.53V5.14333C12.963 4.67733 12.617 4.29633 12.1937 4.29633C11.7707 4.29633 11.4233 4.67733 11.4233 5.14333V9.53ZM6.06067 11.745H7.88867L7.89067 5.425L10.0507 0.011H8.05133L6.903 4.03233L5.73833 0H3.75967L6.05767 5.428L6.06067 11.745Z" fill="black"/>
</svg>
